%TF.GenerationSoftware,KiCad,Pcbnew,8.0.8*%
%TF.CreationDate,2025-02-24T10:42:33-05:00*%
%TF.ProjectId,filamento_3d,66696c61-6d65-46e7-946f-5f33642e6b69,rev?*%
%TF.SameCoordinates,Original*%
%TF.FileFunction,Drillmap*%
%TF.FilePolarity,Positive*%
%FSLAX45Y45*%
G04 Gerber Fmt 4.5, Leading zero omitted, Abs format (unit mm)*
G04 Created by KiCad (PCBNEW 8.0.8) date 2025-02-24 10:42:33*
%MOMM*%
%LPD*%
G01*
G04 APERTURE LIST*
%ADD10C,0.050000*%
%ADD11C,0.200000*%
%ADD12C,0.300000*%
G04 APERTURE END LIST*
D10*
X10054541Y-6000000D02*
X19054541Y-6000000D01*
X19054541Y-15000000D01*
X10054541Y-15000000D01*
X10054541Y-6000000D01*
D11*
D12*
X13181541Y-6901000D02*
X13481541Y-7201000D01*
X13481541Y-6901000D02*
X13181541Y-7201000D01*
X13181541Y-11596000D02*
X13481541Y-11896000D01*
X13481541Y-11596000D02*
X13181541Y-11896000D01*
X15632541Y-6901000D02*
X15932541Y-7201000D01*
X15932541Y-6901000D02*
X15632541Y-7201000D01*
X15632541Y-11596000D02*
X15932541Y-11896000D01*
X15932541Y-11596000D02*
X15632541Y-11896000D01*
D11*
X10312817Y-15313984D02*
X10312817Y-15113984D01*
X10312817Y-15113984D02*
X10360436Y-15113984D01*
X10360436Y-15113984D02*
X10389008Y-15123508D01*
X10389008Y-15123508D02*
X10408056Y-15142555D01*
X10408056Y-15142555D02*
X10417579Y-15161603D01*
X10417579Y-15161603D02*
X10427103Y-15199698D01*
X10427103Y-15199698D02*
X10427103Y-15228269D01*
X10427103Y-15228269D02*
X10417579Y-15266365D01*
X10417579Y-15266365D02*
X10408056Y-15285412D01*
X10408056Y-15285412D02*
X10389008Y-15304460D01*
X10389008Y-15304460D02*
X10360436Y-15313984D01*
X10360436Y-15313984D02*
X10312817Y-15313984D01*
X10512817Y-15313984D02*
X10512817Y-15180650D01*
X10512817Y-15218746D02*
X10522341Y-15199698D01*
X10522341Y-15199698D02*
X10531865Y-15190174D01*
X10531865Y-15190174D02*
X10550913Y-15180650D01*
X10550913Y-15180650D02*
X10569960Y-15180650D01*
X10636627Y-15313984D02*
X10636627Y-15180650D01*
X10636627Y-15113984D02*
X10627103Y-15123508D01*
X10627103Y-15123508D02*
X10636627Y-15133031D01*
X10636627Y-15133031D02*
X10646151Y-15123508D01*
X10646151Y-15123508D02*
X10636627Y-15113984D01*
X10636627Y-15113984D02*
X10636627Y-15133031D01*
X10760436Y-15313984D02*
X10741389Y-15304460D01*
X10741389Y-15304460D02*
X10731865Y-15285412D01*
X10731865Y-15285412D02*
X10731865Y-15113984D01*
X10865198Y-15313984D02*
X10846151Y-15304460D01*
X10846151Y-15304460D02*
X10836627Y-15285412D01*
X10836627Y-15285412D02*
X10836627Y-15113984D01*
X11093770Y-15313984D02*
X11093770Y-15113984D01*
X11093770Y-15113984D02*
X11160437Y-15256841D01*
X11160437Y-15256841D02*
X11227103Y-15113984D01*
X11227103Y-15113984D02*
X11227103Y-15313984D01*
X11408055Y-15313984D02*
X11408055Y-15209222D01*
X11408055Y-15209222D02*
X11398532Y-15190174D01*
X11398532Y-15190174D02*
X11379484Y-15180650D01*
X11379484Y-15180650D02*
X11341389Y-15180650D01*
X11341389Y-15180650D02*
X11322341Y-15190174D01*
X11408055Y-15304460D02*
X11389008Y-15313984D01*
X11389008Y-15313984D02*
X11341389Y-15313984D01*
X11341389Y-15313984D02*
X11322341Y-15304460D01*
X11322341Y-15304460D02*
X11312817Y-15285412D01*
X11312817Y-15285412D02*
X11312817Y-15266365D01*
X11312817Y-15266365D02*
X11322341Y-15247317D01*
X11322341Y-15247317D02*
X11341389Y-15237793D01*
X11341389Y-15237793D02*
X11389008Y-15237793D01*
X11389008Y-15237793D02*
X11408055Y-15228269D01*
X11503294Y-15180650D02*
X11503294Y-15380650D01*
X11503294Y-15190174D02*
X11522341Y-15180650D01*
X11522341Y-15180650D02*
X11560436Y-15180650D01*
X11560436Y-15180650D02*
X11579484Y-15190174D01*
X11579484Y-15190174D02*
X11589008Y-15199698D01*
X11589008Y-15199698D02*
X11598532Y-15218746D01*
X11598532Y-15218746D02*
X11598532Y-15275888D01*
X11598532Y-15275888D02*
X11589008Y-15294936D01*
X11589008Y-15294936D02*
X11579484Y-15304460D01*
X11579484Y-15304460D02*
X11560436Y-15313984D01*
X11560436Y-15313984D02*
X11522341Y-15313984D01*
X11522341Y-15313984D02*
X11503294Y-15304460D01*
X11684246Y-15294936D02*
X11693770Y-15304460D01*
X11693770Y-15304460D02*
X11684246Y-15313984D01*
X11684246Y-15313984D02*
X11674722Y-15304460D01*
X11674722Y-15304460D02*
X11684246Y-15294936D01*
X11684246Y-15294936D02*
X11684246Y-15313984D01*
X11684246Y-15190174D02*
X11693770Y-15199698D01*
X11693770Y-15199698D02*
X11684246Y-15209222D01*
X11684246Y-15209222D02*
X11674722Y-15199698D01*
X11674722Y-15199698D02*
X11684246Y-15190174D01*
X11684246Y-15190174D02*
X11684246Y-15209222D01*
X9852041Y-15542500D02*
X10052041Y-15742500D01*
X10052041Y-15542500D02*
X9852041Y-15742500D01*
X10293770Y-15533984D02*
X10417579Y-15533984D01*
X10417579Y-15533984D02*
X10350913Y-15610174D01*
X10350913Y-15610174D02*
X10379484Y-15610174D01*
X10379484Y-15610174D02*
X10398532Y-15619698D01*
X10398532Y-15619698D02*
X10408056Y-15629222D01*
X10408056Y-15629222D02*
X10417579Y-15648269D01*
X10417579Y-15648269D02*
X10417579Y-15695888D01*
X10417579Y-15695888D02*
X10408056Y-15714936D01*
X10408056Y-15714936D02*
X10398532Y-15724460D01*
X10398532Y-15724460D02*
X10379484Y-15733984D01*
X10379484Y-15733984D02*
X10322341Y-15733984D01*
X10322341Y-15733984D02*
X10303294Y-15724460D01*
X10303294Y-15724460D02*
X10293770Y-15714936D01*
X10503294Y-15714936D02*
X10512817Y-15724460D01*
X10512817Y-15724460D02*
X10503294Y-15733984D01*
X10503294Y-15733984D02*
X10493770Y-15724460D01*
X10493770Y-15724460D02*
X10503294Y-15714936D01*
X10503294Y-15714936D02*
X10503294Y-15733984D01*
X10636627Y-15533984D02*
X10655675Y-15533984D01*
X10655675Y-15533984D02*
X10674722Y-15543508D01*
X10674722Y-15543508D02*
X10684246Y-15553031D01*
X10684246Y-15553031D02*
X10693770Y-15572079D01*
X10693770Y-15572079D02*
X10703294Y-15610174D01*
X10703294Y-15610174D02*
X10703294Y-15657793D01*
X10703294Y-15657793D02*
X10693770Y-15695888D01*
X10693770Y-15695888D02*
X10684246Y-15714936D01*
X10684246Y-15714936D02*
X10674722Y-15724460D01*
X10674722Y-15724460D02*
X10655675Y-15733984D01*
X10655675Y-15733984D02*
X10636627Y-15733984D01*
X10636627Y-15733984D02*
X10617579Y-15724460D01*
X10617579Y-15724460D02*
X10608056Y-15714936D01*
X10608056Y-15714936D02*
X10598532Y-15695888D01*
X10598532Y-15695888D02*
X10589008Y-15657793D01*
X10589008Y-15657793D02*
X10589008Y-15610174D01*
X10589008Y-15610174D02*
X10598532Y-15572079D01*
X10598532Y-15572079D02*
X10608056Y-15553031D01*
X10608056Y-15553031D02*
X10617579Y-15543508D01*
X10617579Y-15543508D02*
X10636627Y-15533984D01*
X10827103Y-15533984D02*
X10846151Y-15533984D01*
X10846151Y-15533984D02*
X10865198Y-15543508D01*
X10865198Y-15543508D02*
X10874722Y-15553031D01*
X10874722Y-15553031D02*
X10884246Y-15572079D01*
X10884246Y-15572079D02*
X10893770Y-15610174D01*
X10893770Y-15610174D02*
X10893770Y-15657793D01*
X10893770Y-15657793D02*
X10884246Y-15695888D01*
X10884246Y-15695888D02*
X10874722Y-15714936D01*
X10874722Y-15714936D02*
X10865198Y-15724460D01*
X10865198Y-15724460D02*
X10846151Y-15733984D01*
X10846151Y-15733984D02*
X10827103Y-15733984D01*
X10827103Y-15733984D02*
X10808056Y-15724460D01*
X10808056Y-15724460D02*
X10798532Y-15714936D01*
X10798532Y-15714936D02*
X10789008Y-15695888D01*
X10789008Y-15695888D02*
X10779484Y-15657793D01*
X10779484Y-15657793D02*
X10779484Y-15610174D01*
X10779484Y-15610174D02*
X10789008Y-15572079D01*
X10789008Y-15572079D02*
X10798532Y-15553031D01*
X10798532Y-15553031D02*
X10808056Y-15543508D01*
X10808056Y-15543508D02*
X10827103Y-15533984D01*
X11017579Y-15533984D02*
X11036627Y-15533984D01*
X11036627Y-15533984D02*
X11055675Y-15543508D01*
X11055675Y-15543508D02*
X11065198Y-15553031D01*
X11065198Y-15553031D02*
X11074722Y-15572079D01*
X11074722Y-15572079D02*
X11084246Y-15610174D01*
X11084246Y-15610174D02*
X11084246Y-15657793D01*
X11084246Y-15657793D02*
X11074722Y-15695888D01*
X11074722Y-15695888D02*
X11065198Y-15714936D01*
X11065198Y-15714936D02*
X11055675Y-15724460D01*
X11055675Y-15724460D02*
X11036627Y-15733984D01*
X11036627Y-15733984D02*
X11017579Y-15733984D01*
X11017579Y-15733984D02*
X10998532Y-15724460D01*
X10998532Y-15724460D02*
X10989008Y-15714936D01*
X10989008Y-15714936D02*
X10979484Y-15695888D01*
X10979484Y-15695888D02*
X10969960Y-15657793D01*
X10969960Y-15657793D02*
X10969960Y-15610174D01*
X10969960Y-15610174D02*
X10979484Y-15572079D01*
X10979484Y-15572079D02*
X10989008Y-15553031D01*
X10989008Y-15553031D02*
X10998532Y-15543508D01*
X10998532Y-15543508D02*
X11017579Y-15533984D01*
X11169960Y-15733984D02*
X11169960Y-15600650D01*
X11169960Y-15619698D02*
X11179484Y-15610174D01*
X11179484Y-15610174D02*
X11198532Y-15600650D01*
X11198532Y-15600650D02*
X11227103Y-15600650D01*
X11227103Y-15600650D02*
X11246151Y-15610174D01*
X11246151Y-15610174D02*
X11255675Y-15629222D01*
X11255675Y-15629222D02*
X11255675Y-15733984D01*
X11255675Y-15629222D02*
X11265198Y-15610174D01*
X11265198Y-15610174D02*
X11284246Y-15600650D01*
X11284246Y-15600650D02*
X11312817Y-15600650D01*
X11312817Y-15600650D02*
X11331865Y-15610174D01*
X11331865Y-15610174D02*
X11341389Y-15629222D01*
X11341389Y-15629222D02*
X11341389Y-15733984D01*
X11436627Y-15733984D02*
X11436627Y-15600650D01*
X11436627Y-15619698D02*
X11446151Y-15610174D01*
X11446151Y-15610174D02*
X11465198Y-15600650D01*
X11465198Y-15600650D02*
X11493770Y-15600650D01*
X11493770Y-15600650D02*
X11512817Y-15610174D01*
X11512817Y-15610174D02*
X11522341Y-15629222D01*
X11522341Y-15629222D02*
X11522341Y-15733984D01*
X11522341Y-15629222D02*
X11531865Y-15610174D01*
X11531865Y-15610174D02*
X11550913Y-15600650D01*
X11550913Y-15600650D02*
X11579484Y-15600650D01*
X11579484Y-15600650D02*
X11598532Y-15610174D01*
X11598532Y-15610174D02*
X11608056Y-15629222D01*
X11608056Y-15629222D02*
X11608056Y-15733984D01*
X11998532Y-15524460D02*
X11827103Y-15781603D01*
X12255675Y-15533984D02*
X12274722Y-15533984D01*
X12274722Y-15533984D02*
X12293770Y-15543508D01*
X12293770Y-15543508D02*
X12303294Y-15553031D01*
X12303294Y-15553031D02*
X12312818Y-15572079D01*
X12312818Y-15572079D02*
X12322341Y-15610174D01*
X12322341Y-15610174D02*
X12322341Y-15657793D01*
X12322341Y-15657793D02*
X12312818Y-15695888D01*
X12312818Y-15695888D02*
X12303294Y-15714936D01*
X12303294Y-15714936D02*
X12293770Y-15724460D01*
X12293770Y-15724460D02*
X12274722Y-15733984D01*
X12274722Y-15733984D02*
X12255675Y-15733984D01*
X12255675Y-15733984D02*
X12236627Y-15724460D01*
X12236627Y-15724460D02*
X12227103Y-15714936D01*
X12227103Y-15714936D02*
X12217579Y-15695888D01*
X12217579Y-15695888D02*
X12208056Y-15657793D01*
X12208056Y-15657793D02*
X12208056Y-15610174D01*
X12208056Y-15610174D02*
X12217579Y-15572079D01*
X12217579Y-15572079D02*
X12227103Y-15553031D01*
X12227103Y-15553031D02*
X12236627Y-15543508D01*
X12236627Y-15543508D02*
X12255675Y-15533984D01*
X12408056Y-15714936D02*
X12417579Y-15724460D01*
X12417579Y-15724460D02*
X12408056Y-15733984D01*
X12408056Y-15733984D02*
X12398532Y-15724460D01*
X12398532Y-15724460D02*
X12408056Y-15714936D01*
X12408056Y-15714936D02*
X12408056Y-15733984D01*
X12608056Y-15733984D02*
X12493770Y-15733984D01*
X12550913Y-15733984D02*
X12550913Y-15533984D01*
X12550913Y-15533984D02*
X12531865Y-15562555D01*
X12531865Y-15562555D02*
X12512818Y-15581603D01*
X12512818Y-15581603D02*
X12493770Y-15591127D01*
X12798532Y-15733984D02*
X12684246Y-15733984D01*
X12741389Y-15733984D02*
X12741389Y-15533984D01*
X12741389Y-15533984D02*
X12722341Y-15562555D01*
X12722341Y-15562555D02*
X12703294Y-15581603D01*
X12703294Y-15581603D02*
X12684246Y-15591127D01*
X12912818Y-15619698D02*
X12893770Y-15610174D01*
X12893770Y-15610174D02*
X12884246Y-15600650D01*
X12884246Y-15600650D02*
X12874722Y-15581603D01*
X12874722Y-15581603D02*
X12874722Y-15572079D01*
X12874722Y-15572079D02*
X12884246Y-15553031D01*
X12884246Y-15553031D02*
X12893770Y-15543508D01*
X12893770Y-15543508D02*
X12912818Y-15533984D01*
X12912818Y-15533984D02*
X12950913Y-15533984D01*
X12950913Y-15533984D02*
X12969960Y-15543508D01*
X12969960Y-15543508D02*
X12979484Y-15553031D01*
X12979484Y-15553031D02*
X12989008Y-15572079D01*
X12989008Y-15572079D02*
X12989008Y-15581603D01*
X12989008Y-15581603D02*
X12979484Y-15600650D01*
X12979484Y-15600650D02*
X12969960Y-15610174D01*
X12969960Y-15610174D02*
X12950913Y-15619698D01*
X12950913Y-15619698D02*
X12912818Y-15619698D01*
X12912818Y-15619698D02*
X12893770Y-15629222D01*
X12893770Y-15629222D02*
X12884246Y-15638746D01*
X12884246Y-15638746D02*
X12874722Y-15657793D01*
X12874722Y-15657793D02*
X12874722Y-15695888D01*
X12874722Y-15695888D02*
X12884246Y-15714936D01*
X12884246Y-15714936D02*
X12893770Y-15724460D01*
X12893770Y-15724460D02*
X12912818Y-15733984D01*
X12912818Y-15733984D02*
X12950913Y-15733984D01*
X12950913Y-15733984D02*
X12969960Y-15724460D01*
X12969960Y-15724460D02*
X12979484Y-15714936D01*
X12979484Y-15714936D02*
X12989008Y-15695888D01*
X12989008Y-15695888D02*
X12989008Y-15657793D01*
X12989008Y-15657793D02*
X12979484Y-15638746D01*
X12979484Y-15638746D02*
X12969960Y-15629222D01*
X12969960Y-15629222D02*
X12950913Y-15619698D01*
X13179484Y-15733984D02*
X13065199Y-15733984D01*
X13122341Y-15733984D02*
X13122341Y-15533984D01*
X13122341Y-15533984D02*
X13103294Y-15562555D01*
X13103294Y-15562555D02*
X13084246Y-15581603D01*
X13084246Y-15581603D02*
X13065199Y-15591127D01*
X13255675Y-15533984D02*
X13255675Y-15572079D01*
X13331865Y-15533984D02*
X13331865Y-15572079D01*
X13627103Y-15810174D02*
X13617580Y-15800650D01*
X13617580Y-15800650D02*
X13598532Y-15772079D01*
X13598532Y-15772079D02*
X13589008Y-15753031D01*
X13589008Y-15753031D02*
X13579484Y-15724460D01*
X13579484Y-15724460D02*
X13569961Y-15676841D01*
X13569961Y-15676841D02*
X13569961Y-15638746D01*
X13569961Y-15638746D02*
X13579484Y-15591127D01*
X13579484Y-15591127D02*
X13589008Y-15562555D01*
X13589008Y-15562555D02*
X13598532Y-15543508D01*
X13598532Y-15543508D02*
X13617580Y-15514936D01*
X13617580Y-15514936D02*
X13627103Y-15505412D01*
X13789008Y-15600650D02*
X13789008Y-15733984D01*
X13741389Y-15524460D02*
X13693770Y-15667317D01*
X13693770Y-15667317D02*
X13817580Y-15667317D01*
X14046151Y-15733984D02*
X14046151Y-15533984D01*
X14131865Y-15733984D02*
X14131865Y-15629222D01*
X14131865Y-15629222D02*
X14122342Y-15610174D01*
X14122342Y-15610174D02*
X14103294Y-15600650D01*
X14103294Y-15600650D02*
X14074722Y-15600650D01*
X14074722Y-15600650D02*
X14055675Y-15610174D01*
X14055675Y-15610174D02*
X14046151Y-15619698D01*
X14255675Y-15733984D02*
X14236627Y-15724460D01*
X14236627Y-15724460D02*
X14227103Y-15714936D01*
X14227103Y-15714936D02*
X14217580Y-15695888D01*
X14217580Y-15695888D02*
X14217580Y-15638746D01*
X14217580Y-15638746D02*
X14227103Y-15619698D01*
X14227103Y-15619698D02*
X14236627Y-15610174D01*
X14236627Y-15610174D02*
X14255675Y-15600650D01*
X14255675Y-15600650D02*
X14284246Y-15600650D01*
X14284246Y-15600650D02*
X14303294Y-15610174D01*
X14303294Y-15610174D02*
X14312818Y-15619698D01*
X14312818Y-15619698D02*
X14322342Y-15638746D01*
X14322342Y-15638746D02*
X14322342Y-15695888D01*
X14322342Y-15695888D02*
X14312818Y-15714936D01*
X14312818Y-15714936D02*
X14303294Y-15724460D01*
X14303294Y-15724460D02*
X14284246Y-15733984D01*
X14284246Y-15733984D02*
X14255675Y-15733984D01*
X14436627Y-15733984D02*
X14417580Y-15724460D01*
X14417580Y-15724460D02*
X14408056Y-15705412D01*
X14408056Y-15705412D02*
X14408056Y-15533984D01*
X14589008Y-15724460D02*
X14569961Y-15733984D01*
X14569961Y-15733984D02*
X14531865Y-15733984D01*
X14531865Y-15733984D02*
X14512818Y-15724460D01*
X14512818Y-15724460D02*
X14503294Y-15705412D01*
X14503294Y-15705412D02*
X14503294Y-15629222D01*
X14503294Y-15629222D02*
X14512818Y-15610174D01*
X14512818Y-15610174D02*
X14531865Y-15600650D01*
X14531865Y-15600650D02*
X14569961Y-15600650D01*
X14569961Y-15600650D02*
X14589008Y-15610174D01*
X14589008Y-15610174D02*
X14598532Y-15629222D01*
X14598532Y-15629222D02*
X14598532Y-15648269D01*
X14598532Y-15648269D02*
X14503294Y-15667317D01*
X14674723Y-15724460D02*
X14693770Y-15733984D01*
X14693770Y-15733984D02*
X14731865Y-15733984D01*
X14731865Y-15733984D02*
X14750913Y-15724460D01*
X14750913Y-15724460D02*
X14760437Y-15705412D01*
X14760437Y-15705412D02*
X14760437Y-15695888D01*
X14760437Y-15695888D02*
X14750913Y-15676841D01*
X14750913Y-15676841D02*
X14731865Y-15667317D01*
X14731865Y-15667317D02*
X14703294Y-15667317D01*
X14703294Y-15667317D02*
X14684246Y-15657793D01*
X14684246Y-15657793D02*
X14674723Y-15638746D01*
X14674723Y-15638746D02*
X14674723Y-15629222D01*
X14674723Y-15629222D02*
X14684246Y-15610174D01*
X14684246Y-15610174D02*
X14703294Y-15600650D01*
X14703294Y-15600650D02*
X14731865Y-15600650D01*
X14731865Y-15600650D02*
X14750913Y-15610174D01*
X14827104Y-15810174D02*
X14836627Y-15800650D01*
X14836627Y-15800650D02*
X14855675Y-15772079D01*
X14855675Y-15772079D02*
X14865199Y-15753031D01*
X14865199Y-15753031D02*
X14874723Y-15724460D01*
X14874723Y-15724460D02*
X14884246Y-15676841D01*
X14884246Y-15676841D02*
X14884246Y-15638746D01*
X14884246Y-15638746D02*
X14874723Y-15591127D01*
X14874723Y-15591127D02*
X14865199Y-15562555D01*
X14865199Y-15562555D02*
X14855675Y-15543508D01*
X14855675Y-15543508D02*
X14836627Y-15514936D01*
X14836627Y-15514936D02*
X14827104Y-15505412D01*
X15189008Y-15810174D02*
X15179484Y-15800650D01*
X15179484Y-15800650D02*
X15160437Y-15772079D01*
X15160437Y-15772079D02*
X15150913Y-15753031D01*
X15150913Y-15753031D02*
X15141389Y-15724460D01*
X15141389Y-15724460D02*
X15131865Y-15676841D01*
X15131865Y-15676841D02*
X15131865Y-15638746D01*
X15131865Y-15638746D02*
X15141389Y-15591127D01*
X15141389Y-15591127D02*
X15150913Y-15562555D01*
X15150913Y-15562555D02*
X15160437Y-15543508D01*
X15160437Y-15543508D02*
X15179484Y-15514936D01*
X15179484Y-15514936D02*
X15189008Y-15505412D01*
X15265199Y-15600650D02*
X15265199Y-15733984D01*
X15265199Y-15619698D02*
X15274723Y-15610174D01*
X15274723Y-15610174D02*
X15293770Y-15600650D01*
X15293770Y-15600650D02*
X15322342Y-15600650D01*
X15322342Y-15600650D02*
X15341389Y-15610174D01*
X15341389Y-15610174D02*
X15350913Y-15629222D01*
X15350913Y-15629222D02*
X15350913Y-15733984D01*
X15474723Y-15733984D02*
X15455675Y-15724460D01*
X15455675Y-15724460D02*
X15446151Y-15714936D01*
X15446151Y-15714936D02*
X15436627Y-15695888D01*
X15436627Y-15695888D02*
X15436627Y-15638746D01*
X15436627Y-15638746D02*
X15446151Y-15619698D01*
X15446151Y-15619698D02*
X15455675Y-15610174D01*
X15455675Y-15610174D02*
X15474723Y-15600650D01*
X15474723Y-15600650D02*
X15503294Y-15600650D01*
X15503294Y-15600650D02*
X15522342Y-15610174D01*
X15522342Y-15610174D02*
X15531865Y-15619698D01*
X15531865Y-15619698D02*
X15541389Y-15638746D01*
X15541389Y-15638746D02*
X15541389Y-15695888D01*
X15541389Y-15695888D02*
X15531865Y-15714936D01*
X15531865Y-15714936D02*
X15522342Y-15724460D01*
X15522342Y-15724460D02*
X15503294Y-15733984D01*
X15503294Y-15733984D02*
X15474723Y-15733984D01*
X15598532Y-15600650D02*
X15674723Y-15600650D01*
X15627104Y-15533984D02*
X15627104Y-15705412D01*
X15627104Y-15705412D02*
X15636627Y-15724460D01*
X15636627Y-15724460D02*
X15655675Y-15733984D01*
X15655675Y-15733984D02*
X15674723Y-15733984D01*
X15893770Y-15600650D02*
X15893770Y-15800650D01*
X15893770Y-15610174D02*
X15912818Y-15600650D01*
X15912818Y-15600650D02*
X15950913Y-15600650D01*
X15950913Y-15600650D02*
X15969961Y-15610174D01*
X15969961Y-15610174D02*
X15979485Y-15619698D01*
X15979485Y-15619698D02*
X15989008Y-15638746D01*
X15989008Y-15638746D02*
X15989008Y-15695888D01*
X15989008Y-15695888D02*
X15979485Y-15714936D01*
X15979485Y-15714936D02*
X15969961Y-15724460D01*
X15969961Y-15724460D02*
X15950913Y-15733984D01*
X15950913Y-15733984D02*
X15912818Y-15733984D01*
X15912818Y-15733984D02*
X15893770Y-15724460D01*
X16103294Y-15733984D02*
X16084246Y-15724460D01*
X16084246Y-15724460D02*
X16074723Y-15705412D01*
X16074723Y-15705412D02*
X16074723Y-15533984D01*
X16265199Y-15733984D02*
X16265199Y-15629222D01*
X16265199Y-15629222D02*
X16255675Y-15610174D01*
X16255675Y-15610174D02*
X16236627Y-15600650D01*
X16236627Y-15600650D02*
X16198532Y-15600650D01*
X16198532Y-15600650D02*
X16179485Y-15610174D01*
X16265199Y-15724460D02*
X16246151Y-15733984D01*
X16246151Y-15733984D02*
X16198532Y-15733984D01*
X16198532Y-15733984D02*
X16179485Y-15724460D01*
X16179485Y-15724460D02*
X16169961Y-15705412D01*
X16169961Y-15705412D02*
X16169961Y-15686365D01*
X16169961Y-15686365D02*
X16179485Y-15667317D01*
X16179485Y-15667317D02*
X16198532Y-15657793D01*
X16198532Y-15657793D02*
X16246151Y-15657793D01*
X16246151Y-15657793D02*
X16265199Y-15648269D01*
X16331866Y-15600650D02*
X16408056Y-15600650D01*
X16360437Y-15533984D02*
X16360437Y-15705412D01*
X16360437Y-15705412D02*
X16369961Y-15724460D01*
X16369961Y-15724460D02*
X16389008Y-15733984D01*
X16389008Y-15733984D02*
X16408056Y-15733984D01*
X16550913Y-15724460D02*
X16531866Y-15733984D01*
X16531866Y-15733984D02*
X16493770Y-15733984D01*
X16493770Y-15733984D02*
X16474723Y-15724460D01*
X16474723Y-15724460D02*
X16465199Y-15705412D01*
X16465199Y-15705412D02*
X16465199Y-15629222D01*
X16465199Y-15629222D02*
X16474723Y-15610174D01*
X16474723Y-15610174D02*
X16493770Y-15600650D01*
X16493770Y-15600650D02*
X16531866Y-15600650D01*
X16531866Y-15600650D02*
X16550913Y-15610174D01*
X16550913Y-15610174D02*
X16560437Y-15629222D01*
X16560437Y-15629222D02*
X16560437Y-15648269D01*
X16560437Y-15648269D02*
X16465199Y-15667317D01*
X16731866Y-15733984D02*
X16731866Y-15533984D01*
X16731866Y-15724460D02*
X16712818Y-15733984D01*
X16712818Y-15733984D02*
X16674723Y-15733984D01*
X16674723Y-15733984D02*
X16655675Y-15724460D01*
X16655675Y-15724460D02*
X16646151Y-15714936D01*
X16646151Y-15714936D02*
X16636627Y-15695888D01*
X16636627Y-15695888D02*
X16636627Y-15638746D01*
X16636627Y-15638746D02*
X16646151Y-15619698D01*
X16646151Y-15619698D02*
X16655675Y-15610174D01*
X16655675Y-15610174D02*
X16674723Y-15600650D01*
X16674723Y-15600650D02*
X16712818Y-15600650D01*
X16712818Y-15600650D02*
X16731866Y-15610174D01*
X16808056Y-15810174D02*
X16817580Y-15800650D01*
X16817580Y-15800650D02*
X16836628Y-15772079D01*
X16836628Y-15772079D02*
X16846151Y-15753031D01*
X16846151Y-15753031D02*
X16855675Y-15724460D01*
X16855675Y-15724460D02*
X16865199Y-15676841D01*
X16865199Y-15676841D02*
X16865199Y-15638746D01*
X16865199Y-15638746D02*
X16855675Y-15591127D01*
X16855675Y-15591127D02*
X16846151Y-15562555D01*
X16846151Y-15562555D02*
X16836628Y-15543508D01*
X16836628Y-15543508D02*
X16817580Y-15514936D01*
X16817580Y-15514936D02*
X16808056Y-15505412D01*
M02*
