%TF.GenerationSoftware,KiCad,Pcbnew,8.0.8*%
%TF.CreationDate,2025-02-24T10:44:51-05:00*%
%TF.ProjectId,filamento_3d,66696c61-6d65-46e7-946f-5f33642e6b69,rev?*%
%TF.SameCoordinates,Original*%
%TF.FileFunction,Copper,L1,Top*%
%TF.FilePolarity,Positive*%
%FSLAX46Y46*%
G04 Gerber Fmt 4.6, Leading zero omitted, Abs format (unit mm)*
G04 Created by KiCad (PCBNEW 8.0.8) date 2025-02-24 10:44:51*
%MOMM*%
%LPD*%
G01*
G04 APERTURE LIST*
G04 Aperture macros list*
%AMRoundRect*
0 Rectangle with rounded corners*
0 $1 Rounding radius*
0 $2 $3 $4 $5 $6 $7 $8 $9 X,Y pos of 4 corners*
0 Add a 4 corners polygon primitive as box body*
4,1,4,$2,$3,$4,$5,$6,$7,$8,$9,$2,$3,0*
0 Add four circle primitives for the rounded corners*
1,1,$1+$1,$2,$3*
1,1,$1+$1,$4,$5*
1,1,$1+$1,$6,$7*
1,1,$1+$1,$8,$9*
0 Add four rect primitives between the rounded corners*
20,1,$1+$1,$2,$3,$4,$5,0*
20,1,$1+$1,$4,$5,$6,$7,0*
20,1,$1+$1,$6,$7,$8,$9,0*
20,1,$1+$1,$8,$9,$2,$3,0*%
G04 Aperture macros list end*
%TA.AperFunction,ComponentPad*%
%ADD10C,1.400000*%
%TD*%
%TA.AperFunction,ComponentPad*%
%ADD11O,1.400000X1.400000*%
%TD*%
%TA.AperFunction,ComponentPad*%
%ADD12R,2.000000X2.000000*%
%TD*%
%TA.AperFunction,ComponentPad*%
%ADD13C,2.000000*%
%TD*%
%TA.AperFunction,ComponentPad*%
%ADD14R,1.910000X1.910000*%
%TD*%
%TA.AperFunction,ComponentPad*%
%ADD15C,1.910000*%
%TD*%
%TA.AperFunction,ComponentPad*%
%ADD16RoundRect,0.249999X-1.025001X-1.025001X1.025001X-1.025001X1.025001X1.025001X-1.025001X1.025001X0*%
%TD*%
%TA.AperFunction,ComponentPad*%
%ADD17C,2.550000*%
%TD*%
%TA.AperFunction,ComponentPad*%
%ADD18R,1.350000X1.350000*%
%TD*%
%TA.AperFunction,ComponentPad*%
%ADD19O,1.350000X1.350000*%
%TD*%
%TA.AperFunction,ComponentPad*%
%ADD20C,1.600000*%
%TD*%
%TA.AperFunction,ComponentPad*%
%ADD21R,1.676400X1.676400*%
%TD*%
%TA.AperFunction,ComponentPad*%
%ADD22C,1.676400*%
%TD*%
%TA.AperFunction,ComponentPad*%
%ADD23R,1.800000X1.800000*%
%TD*%
%TA.AperFunction,ComponentPad*%
%ADD24C,1.800000*%
%TD*%
%TA.AperFunction,ComponentPad*%
%ADD25R,1.650000X1.650000*%
%TD*%
%TA.AperFunction,ComponentPad*%
%ADD26C,1.650000*%
%TD*%
%TA.AperFunction,ComponentPad*%
%ADD27R,1.700000X1.700000*%
%TD*%
%TA.AperFunction,ComponentPad*%
%ADD28O,1.700000X1.700000*%
%TD*%
G04 APERTURE END LIST*
D10*
%TO.P,R1,1*%
%TO.N,/sensor*%
X108825406Y-116650000D03*
D11*
%TO.P,R1,2*%
%TO.N,+5V*%
X108825406Y-124270000D03*
%TD*%
D12*
%TO.P,U1,1,3V3*%
%TO.N,unconnected-(U1-3V3-Pad1)*%
X158245406Y-109500000D03*
D13*
%TO.P,U1,2,GND*%
%TO.N,GND*%
X158245406Y-106960000D03*
%TO.P,U1,3,D15*%
%TO.N,unconnected-(U1-D15-Pad3)*%
X158245406Y-104420000D03*
%TO.P,U1,4,D2*%
%TO.N,unconnected-(U1-D2-Pad4)*%
X158245406Y-101880000D03*
%TO.P,U1,5,D4*%
%TO.N,unconnected-(U1-D4-Pad5)*%
X158245406Y-99340000D03*
%TO.P,U1,6,RX2*%
%TO.N,unconnected-(U1-RX2-Pad6)*%
X158245406Y-96800000D03*
%TO.P,U1,7,TX2*%
%TO.N,unconnected-(U1-TX2-Pad7)*%
X158245406Y-94260000D03*
%TO.P,U1,8,D5*%
%TO.N,/D1 in4*%
X158245406Y-91720000D03*
%TO.P,U1,9,D18*%
%TO.N,/D1 in3*%
X158245406Y-89180000D03*
%TO.P,U1,10,D19*%
%TO.N,/D1 in2*%
X158245406Y-86640000D03*
%TO.P,U1,11,D21*%
%TO.N,/D1 in1*%
X158245406Y-84100000D03*
%TO.P,U1,12,RX0*%
%TO.N,unconnected-(U1-RX0-Pad12)*%
X158245406Y-81560000D03*
%TO.P,U1,13,TX0*%
%TO.N,unconnected-(U1-TX0-Pad13)*%
X158245406Y-79020000D03*
%TO.P,U1,14,D22*%
%TO.N,unconnected-(U1-D22-Pad14)*%
X158245406Y-76480000D03*
%TO.P,U1,15,D23*%
%TO.N,unconnected-(U1-D23-Pad15)*%
X158245406Y-73940000D03*
%TO.P,U1,16,EN*%
%TO.N,unconnected-(U1-EN-Pad16)*%
X132845406Y-73940000D03*
%TO.P,U1,17,VP*%
%TO.N,unconnected-(U1-VP-Pad17)*%
X132845406Y-76480000D03*
%TO.P,U1,18,VN*%
%TO.N,unconnected-(U1-VN-Pad18)*%
X132845406Y-79020000D03*
%TO.P,U1,19,D34*%
%TO.N,unconnected-(U1-D34-Pad19)*%
X132845406Y-81560000D03*
%TO.P,U1,20,D35*%
%TO.N,unconnected-(U1-D35-Pad20)*%
X132845406Y-84100000D03*
%TO.P,U1,21,D32*%
%TO.N,/D2 in4*%
X132845406Y-86640000D03*
%TO.P,U1,22,D33*%
%TO.N,/D2 in3*%
X132845406Y-89180000D03*
%TO.P,U1,23,D25*%
%TO.N,/D2 in2*%
X132845406Y-91720000D03*
%TO.P,U1,24,D26*%
%TO.N,/D2 in1*%
X132845406Y-94260000D03*
%TO.P,U1,25,D27*%
%TO.N,unconnected-(U1-D27-Pad25)*%
X132845406Y-96800000D03*
%TO.P,U1,26,D14*%
%TO.N,unconnected-(U1-D14-Pad26)*%
X132845406Y-99340000D03*
%TO.P,U1,27,D12*%
%TO.N,/sensor*%
X132845406Y-101880000D03*
%TO.P,U1,28,D13*%
%TO.N,unconnected-(U1-D13-Pad28)*%
X132845406Y-104420000D03*
%TO.P,U1,29,GND*%
%TO.N,GND*%
X132845406Y-106960000D03*
%TO.P,U1,30,VIN*%
%TO.N,+5V*%
X132845406Y-109500000D03*
%TD*%
D14*
%TO.P,U2,1,IN*%
%TO.N,Net-(SW1-B)*%
X143505406Y-132500000D03*
D15*
%TO.P,U2,2,GND*%
%TO.N,GND*%
X146045406Y-132500000D03*
%TO.P,U2,3,OUT*%
%TO.N,+5V*%
X148585406Y-132500000D03*
%TD*%
D16*
%TO.P,SW1,1,A*%
%TO.N,+12V*%
X123745406Y-142500000D03*
D17*
%TO.P,SW1,2,B*%
%TO.N,Net-(SW1-B)*%
X128545406Y-142500000D03*
%TD*%
D18*
%TO.P,J6,1,Pin_1*%
%TO.N,+5V*%
X172045406Y-73000000D03*
D19*
%TO.P,J6,2,Pin_2*%
%TO.N,Net-(D1-OUT1)*%
X174045406Y-73000000D03*
%TO.P,J6,3,Pin_3*%
%TO.N,Net-(D1-OUT2)*%
X176045406Y-73000000D03*
%TO.P,J6,4,Pin_4*%
%TO.N,Net-(D1-OUT3)*%
X178045406Y-73000000D03*
%TO.P,J6,5,Pin_5*%
%TO.N,Net-(D1-OUT4)*%
X180045406Y-73000000D03*
%TD*%
D20*
%TO.P,C3,1*%
%TO.N,Net-(SW1-B)*%
X162000000Y-142000000D03*
%TO.P,C3,2*%
%TO.N,GND*%
X164500000Y-142000000D03*
%TD*%
D21*
%TO.P,D2,1,IN1*%
%TO.N,/D2 in1*%
X118045406Y-100280000D03*
D22*
%TO.P,D2,2,IN2*%
%TO.N,/D2 in2*%
X118045406Y-97740000D03*
%TO.P,D2,3,IN3*%
%TO.N,/D2 in3*%
X118045406Y-95200000D03*
%TO.P,D2,4,IN4*%
%TO.N,/D2 in4*%
X118045406Y-92660000D03*
%TO.P,D2,5,IN5*%
%TO.N,unconnected-(D2-IN5-Pad5)*%
X118045406Y-90120000D03*
%TO.P,D2,6,IN6*%
%TO.N,unconnected-(D2-IN6-Pad6)*%
X118045406Y-87580000D03*
%TO.P,D2,7,IN7*%
%TO.N,unconnected-(D2-IN7-Pad7)*%
X118045406Y-85040000D03*
%TO.P,D2,8,GND*%
%TO.N,GND*%
X118045406Y-82500000D03*
%TO.P,D2,9,COM*%
%TO.N,+5V*%
X110425406Y-82500000D03*
%TO.P,D2,10,OUT7*%
%TO.N,unconnected-(D2-OUT7-Pad10)*%
X110425406Y-85040000D03*
%TO.P,D2,11,OUT6*%
%TO.N,unconnected-(D2-OUT6-Pad11)*%
X110425406Y-87580000D03*
%TO.P,D2,12,OUT5*%
%TO.N,unconnected-(D2-OUT5-Pad12)*%
X110425406Y-90120000D03*
%TO.P,D2,13,OUT4*%
%TO.N,Net-(D2-OUT4)*%
X110425406Y-92660000D03*
%TO.P,D2,14,OUT3*%
%TO.N,Net-(D2-OUT3)*%
X110425406Y-95200000D03*
%TO.P,D2,15,OUT2*%
%TO.N,Net-(D2-OUT2)*%
X110425406Y-97740000D03*
%TO.P,D2,16,OUT1*%
%TO.N,Net-(D2-OUT1)*%
X110425406Y-100280000D03*
%TD*%
D10*
%TO.P,R2,1*%
%TO.N,Net-(D3-A)*%
X108825406Y-138770000D03*
D11*
%TO.P,R2,2*%
%TO.N,+5V*%
X108825406Y-131150000D03*
%TD*%
D21*
%TO.P,D1,1,IN1*%
%TO.N,/D1 in1*%
X172925406Y-82380000D03*
D22*
%TO.P,D1,2,IN2*%
%TO.N,/D1 in2*%
X172925406Y-84920000D03*
%TO.P,D1,3,IN3*%
%TO.N,/D1 in3*%
X172925406Y-87460000D03*
%TO.P,D1,4,IN4*%
%TO.N,/D1 in4*%
X172925406Y-90000000D03*
%TO.P,D1,5,IN5*%
%TO.N,unconnected-(D1-IN5-Pad5)*%
X172925406Y-92540000D03*
%TO.P,D1,6,IN6*%
%TO.N,unconnected-(D1-IN6-Pad6)*%
X172925406Y-95080000D03*
%TO.P,D1,7,IN7*%
%TO.N,unconnected-(D1-IN7-Pad7)*%
X172925406Y-97620000D03*
%TO.P,D1,8,GND*%
%TO.N,GND*%
X172925406Y-100160000D03*
%TO.P,D1,9,COM*%
%TO.N,+5V*%
X180545406Y-100160000D03*
%TO.P,D1,10,OUT7*%
%TO.N,unconnected-(D1-OUT7-Pad10)*%
X180545406Y-97620000D03*
%TO.P,D1,11,OUT6*%
%TO.N,unconnected-(D1-OUT6-Pad11)*%
X180545406Y-95080000D03*
%TO.P,D1,12,OUT5*%
%TO.N,unconnected-(D1-OUT5-Pad12)*%
X180545406Y-92540000D03*
%TO.P,D1,13,OUT4*%
%TO.N,Net-(D1-OUT4)*%
X180545406Y-90000000D03*
%TO.P,D1,14,OUT3*%
%TO.N,Net-(D1-OUT3)*%
X180545406Y-87460000D03*
%TO.P,D1,15,OUT2*%
%TO.N,Net-(D1-OUT2)*%
X180545406Y-84920000D03*
%TO.P,D1,16,OUT1*%
%TO.N,Net-(D1-OUT1)*%
X180545406Y-82380000D03*
%TD*%
D20*
%TO.P,C2,1*%
%TO.N,+5V*%
X113295406Y-108000000D03*
%TO.P,C2,2*%
%TO.N,GND*%
X115795406Y-108000000D03*
%TD*%
%TO.P,C1,1*%
%TO.N,+5V*%
X175295406Y-107120000D03*
%TO.P,C1,2*%
%TO.N,GND*%
X177795406Y-107120000D03*
%TD*%
D23*
%TO.P,D3,1,K*%
%TO.N,GND*%
X114000000Y-133500000D03*
D24*
%TO.P,D3,2,A*%
%TO.N,Net-(D3-A)*%
X114000000Y-136040000D03*
%TD*%
D16*
%TO.P,J2,1,Pin_1*%
%TO.N,+12V*%
X143645406Y-142000000D03*
D17*
%TO.P,J2,2,Pin_2*%
%TO.N,GND*%
X148445406Y-142000000D03*
%TD*%
D25*
%TO.P,P1,1,1*%
%TO.N,GND*%
X184500000Y-133420000D03*
D26*
%TO.P,P1,2,2*%
%TO.N,+12V*%
X184500000Y-138500000D03*
%TD*%
D27*
%TO.P,J4,1,Pin_1*%
%TO.N,/sensor*%
X114045406Y-118460000D03*
D28*
%TO.P,J4,2,Pin_2*%
%TO.N,+5V*%
X114045406Y-121000000D03*
%TO.P,J4,3,Pin_3*%
%TO.N,GND*%
X114045406Y-123540000D03*
%TD*%
D18*
%TO.P,J5,1,Pin_1*%
%TO.N,+5V*%
X118545406Y-73500000D03*
D19*
%TO.P,J5,2,Pin_2*%
%TO.N,Net-(D2-OUT1)*%
X116545406Y-73500000D03*
%TO.P,J5,3,Pin_3*%
%TO.N,Net-(D2-OUT2)*%
X114545406Y-73500000D03*
%TO.P,J5,4,Pin_4*%
%TO.N,Net-(D2-OUT3)*%
X112545406Y-73500000D03*
%TO.P,J5,5,Pin_5*%
%TO.N,Net-(D2-OUT4)*%
X110545406Y-73500000D03*
%TD*%
D20*
%TO.P,C4,1*%
%TO.N,+5V*%
X169500000Y-130500000D03*
%TO.P,C4,2*%
%TO.N,GND*%
X172000000Y-130500000D03*
%TD*%
M02*
