%TF.GenerationSoftware,KiCad,Pcbnew,8.0.8*%
%TF.CreationDate,2025-02-24T10:42:33-05:00*%
%TF.ProjectId,filamento_3d,66696c61-6d65-46e7-946f-5f33642e6b69,rev?*%
%TF.SameCoordinates,Original*%
%TF.FileFunction,Drillmap*%
%TF.FilePolarity,Positive*%
%FSLAX45Y45*%
G04 Gerber Fmt 4.5, Leading zero omitted, Abs format (unit mm)*
G04 Created by KiCad (PCBNEW 8.0.8) date 2025-02-24 10:42:33*
%MOMM*%
%LPD*%
G01*
G04 APERTURE LIST*
%ADD10C,0.050000*%
%ADD11C,0.200000*%
%ADD12C,0.100000*%
%ADD13C,0.102000*%
%ADD14C,0.110000*%
%ADD15C,0.111760*%
%ADD16C,0.127000*%
%ADD17C,0.155000*%
G04 APERTURE END LIST*
D10*
X10054541Y-6000000D02*
X19054541Y-6000000D01*
X19054541Y-15000000D01*
X10054541Y-15000000D01*
X10054541Y-6000000D01*
D11*
D12*
X10847541Y-11630000D02*
X10917541Y-11700000D01*
X10917541Y-11630000D02*
X10847541Y-11700000D01*
X10847541Y-12392000D02*
X10917541Y-12462000D01*
X10917541Y-12392000D02*
X10847541Y-12462000D01*
X10847541Y-13080000D02*
X10917541Y-13150000D01*
X10917541Y-13080000D02*
X10847541Y-13150000D01*
X10847541Y-13842000D02*
X10917541Y-13912000D01*
X10917541Y-13842000D02*
X10847541Y-13912000D01*
X11094541Y-7350000D02*
G75*
G02*
X11014541Y-7350000I-40000J0D01*
G01*
X11014541Y-7350000D02*
G75*
G02*
X11094541Y-7350000I40000J0D01*
G01*
X11294541Y-7350000D02*
G75*
G02*
X11214541Y-7350000I-40000J0D01*
G01*
X11214541Y-7350000D02*
G75*
G02*
X11294541Y-7350000I40000J0D01*
G01*
X11369541Y-10800000D02*
G75*
G02*
X11289541Y-10800000I-40000J0D01*
G01*
X11289541Y-10800000D02*
G75*
G02*
X11369541Y-10800000I40000J0D01*
G01*
X11494541Y-7350000D02*
G75*
G02*
X11414541Y-7350000I-40000J0D01*
G01*
X11414541Y-7350000D02*
G75*
G02*
X11494541Y-7350000I40000J0D01*
G01*
X11619541Y-10800000D02*
G75*
G02*
X11539541Y-10800000I-40000J0D01*
G01*
X11539541Y-10800000D02*
G75*
G02*
X11619541Y-10800000I40000J0D01*
G01*
X11694541Y-7350000D02*
G75*
G02*
X11614541Y-7350000I-40000J0D01*
G01*
X11614541Y-7350000D02*
G75*
G02*
X11694541Y-7350000I40000J0D01*
G01*
X11894541Y-7350000D02*
G75*
G02*
X11814541Y-7350000I-40000J0D01*
G01*
X11814541Y-7350000D02*
G75*
G02*
X11894541Y-7350000I40000J0D01*
G01*
X16240000Y-14200000D02*
G75*
G02*
X16160000Y-14200000I-40000J0D01*
G01*
X16160000Y-14200000D02*
G75*
G02*
X16240000Y-14200000I40000J0D01*
G01*
X16490000Y-14200000D02*
G75*
G02*
X16410000Y-14200000I-40000J0D01*
G01*
X16410000Y-14200000D02*
G75*
G02*
X16490000Y-14200000I40000J0D01*
G01*
X16990000Y-13050000D02*
G75*
G02*
X16910000Y-13050000I-40000J0D01*
G01*
X16910000Y-13050000D02*
G75*
G02*
X16990000Y-13050000I40000J0D01*
G01*
X17240000Y-13050000D02*
G75*
G02*
X17160000Y-13050000I-40000J0D01*
G01*
X17160000Y-13050000D02*
G75*
G02*
X17240000Y-13050000I40000J0D01*
G01*
X17244541Y-7300000D02*
G75*
G02*
X17164541Y-7300000I-40000J0D01*
G01*
X17164541Y-7300000D02*
G75*
G02*
X17244541Y-7300000I40000J0D01*
G01*
X17444541Y-7300000D02*
G75*
G02*
X17364541Y-7300000I-40000J0D01*
G01*
X17364541Y-7300000D02*
G75*
G02*
X17444541Y-7300000I40000J0D01*
G01*
X17569541Y-10712000D02*
G75*
G02*
X17489541Y-10712000I-40000J0D01*
G01*
X17489541Y-10712000D02*
G75*
G02*
X17569541Y-10712000I40000J0D01*
G01*
X17644541Y-7300000D02*
G75*
G02*
X17564541Y-7300000I-40000J0D01*
G01*
X17564541Y-7300000D02*
G75*
G02*
X17644541Y-7300000I40000J0D01*
G01*
X17819541Y-10712000D02*
G75*
G02*
X17739541Y-10712000I-40000J0D01*
G01*
X17739541Y-10712000D02*
G75*
G02*
X17819541Y-10712000I40000J0D01*
G01*
X17844541Y-7300000D02*
G75*
G02*
X17764541Y-7300000I-40000J0D01*
G01*
X17764541Y-7300000D02*
G75*
G02*
X17844541Y-7300000I40000J0D01*
G01*
X18044541Y-7300000D02*
G75*
G02*
X17964541Y-7300000I-40000J0D01*
G01*
X17964541Y-7300000D02*
G75*
G02*
X18044541Y-7300000I40000J0D01*
G01*
X11400000Y-13305000D02*
X11400000Y-13395000D01*
X11355000Y-13350000D02*
X11445000Y-13350000D01*
X11400000Y-13559000D02*
X11400000Y-13649000D01*
X11355000Y-13604000D02*
X11445000Y-13604000D01*
X11439896Y-11881356D02*
X11439896Y-11810644D01*
X11369185Y-11810644D01*
X11369185Y-11881356D01*
X11439896Y-11881356D01*
X11439896Y-12135356D02*
X11439896Y-12064644D01*
X11369185Y-12064644D01*
X11369185Y-12135356D01*
X11439896Y-12135356D01*
X11439896Y-12389356D02*
X11439896Y-12318644D01*
X11369185Y-12318644D01*
X11369185Y-12389356D01*
X11439896Y-12389356D01*
D13*
X13284541Y-7445000D02*
X13335541Y-7394000D01*
X13284541Y-7343000D01*
X13233541Y-7394000D01*
X13284541Y-7445000D01*
X13284541Y-7699000D02*
X13335541Y-7648000D01*
X13284541Y-7597000D01*
X13233541Y-7648000D01*
X13284541Y-7699000D01*
X13284541Y-7953000D02*
X13335541Y-7902000D01*
X13284541Y-7851000D01*
X13233541Y-7902000D01*
X13284541Y-7953000D01*
X13284541Y-8207000D02*
X13335541Y-8156000D01*
X13284541Y-8105000D01*
X13233541Y-8156000D01*
X13284541Y-8207000D01*
X13284541Y-8461000D02*
X13335541Y-8410000D01*
X13284541Y-8359000D01*
X13233541Y-8410000D01*
X13284541Y-8461000D01*
X13284541Y-8715000D02*
X13335541Y-8664000D01*
X13284541Y-8613000D01*
X13233541Y-8664000D01*
X13284541Y-8715000D01*
X13284541Y-8969000D02*
X13335541Y-8918000D01*
X13284541Y-8867000D01*
X13233541Y-8918000D01*
X13284541Y-8969000D01*
X13284541Y-9223000D02*
X13335541Y-9172000D01*
X13284541Y-9121000D01*
X13233541Y-9172000D01*
X13284541Y-9223000D01*
X13284541Y-9477000D02*
X13335541Y-9426000D01*
X13284541Y-9375000D01*
X13233541Y-9426000D01*
X13284541Y-9477000D01*
X13284541Y-9731000D02*
X13335541Y-9680000D01*
X13284541Y-9629000D01*
X13233541Y-9680000D01*
X13284541Y-9731000D01*
X13284541Y-9985000D02*
X13335541Y-9934000D01*
X13284541Y-9883000D01*
X13233541Y-9934000D01*
X13284541Y-9985000D01*
X13284541Y-10239000D02*
X13335541Y-10188000D01*
X13284541Y-10137000D01*
X13233541Y-10188000D01*
X13284541Y-10239000D01*
X13284541Y-10493000D02*
X13335541Y-10442000D01*
X13284541Y-10391000D01*
X13233541Y-10442000D01*
X13284541Y-10493000D01*
X13284541Y-10747000D02*
X13335541Y-10696000D01*
X13284541Y-10645000D01*
X13233541Y-10696000D01*
X13284541Y-10747000D01*
X13284541Y-11001000D02*
X13335541Y-10950000D01*
X13284541Y-10899000D01*
X13233541Y-10950000D01*
X13284541Y-11001000D01*
X15824541Y-7445000D02*
X15875541Y-7394000D01*
X15824541Y-7343000D01*
X15773541Y-7394000D01*
X15824541Y-7445000D01*
X15824541Y-7699000D02*
X15875541Y-7648000D01*
X15824541Y-7597000D01*
X15773541Y-7648000D01*
X15824541Y-7699000D01*
X15824541Y-7953000D02*
X15875541Y-7902000D01*
X15824541Y-7851000D01*
X15773541Y-7902000D01*
X15824541Y-7953000D01*
X15824541Y-8207000D02*
X15875541Y-8156000D01*
X15824541Y-8105000D01*
X15773541Y-8156000D01*
X15824541Y-8207000D01*
X15824541Y-8461000D02*
X15875541Y-8410000D01*
X15824541Y-8359000D01*
X15773541Y-8410000D01*
X15824541Y-8461000D01*
X15824541Y-8715000D02*
X15875541Y-8664000D01*
X15824541Y-8613000D01*
X15773541Y-8664000D01*
X15824541Y-8715000D01*
X15824541Y-8969000D02*
X15875541Y-8918000D01*
X15824541Y-8867000D01*
X15773541Y-8918000D01*
X15824541Y-8969000D01*
X15824541Y-9223000D02*
X15875541Y-9172000D01*
X15824541Y-9121000D01*
X15773541Y-9172000D01*
X15824541Y-9223000D01*
X15824541Y-9477000D02*
X15875541Y-9426000D01*
X15824541Y-9375000D01*
X15773541Y-9426000D01*
X15824541Y-9477000D01*
X15824541Y-9731000D02*
X15875541Y-9680000D01*
X15824541Y-9629000D01*
X15773541Y-9680000D01*
X15824541Y-9731000D01*
X15824541Y-9985000D02*
X15875541Y-9934000D01*
X15824541Y-9883000D01*
X15773541Y-9934000D01*
X15824541Y-9985000D01*
X15824541Y-10239000D02*
X15875541Y-10188000D01*
X15824541Y-10137000D01*
X15773541Y-10188000D01*
X15824541Y-10239000D01*
X15824541Y-10493000D02*
X15875541Y-10442000D01*
X15824541Y-10391000D01*
X15773541Y-10442000D01*
X15824541Y-10493000D01*
X15824541Y-10747000D02*
X15875541Y-10696000D01*
X15824541Y-10645000D01*
X15773541Y-10696000D01*
X15824541Y-10747000D01*
X15824541Y-11001000D02*
X15875541Y-10950000D01*
X15824541Y-10899000D01*
X15773541Y-10950000D01*
X15824541Y-11001000D01*
D14*
X18395000Y-13287000D02*
X18505000Y-13397000D01*
X18505000Y-13287000D02*
X18395000Y-13397000D01*
X18505000Y-13342000D02*
G75*
G02*
X18395000Y-13342000I-55000J0D01*
G01*
X18395000Y-13342000D02*
G75*
G02*
X18505000Y-13342000I55000J0D01*
G01*
X18395000Y-13795000D02*
X18505000Y-13905000D01*
X18505000Y-13795000D02*
X18395000Y-13905000D01*
X18505000Y-13850000D02*
G75*
G02*
X18395000Y-13850000I-55000J0D01*
G01*
X18395000Y-13850000D02*
G75*
G02*
X18505000Y-13850000I55000J0D01*
G01*
D15*
X10986661Y-8194120D02*
X11098421Y-8305880D01*
X11098421Y-8194120D02*
X10986661Y-8305880D01*
X11042541Y-8194120D02*
X11042541Y-8305880D01*
X10986661Y-8250000D02*
X11098421Y-8250000D01*
X10986661Y-8448120D02*
X11098421Y-8559880D01*
X11098421Y-8448120D02*
X10986661Y-8559880D01*
X11042541Y-8448120D02*
X11042541Y-8559880D01*
X10986661Y-8504000D02*
X11098421Y-8504000D01*
X10986661Y-8702120D02*
X11098421Y-8813880D01*
X11098421Y-8702120D02*
X10986661Y-8813880D01*
X11042541Y-8702120D02*
X11042541Y-8813880D01*
X10986661Y-8758000D02*
X11098421Y-8758000D01*
X10986661Y-8956120D02*
X11098421Y-9067880D01*
X11098421Y-8956120D02*
X10986661Y-9067880D01*
X11042541Y-8956120D02*
X11042541Y-9067880D01*
X10986661Y-9012000D02*
X11098421Y-9012000D01*
X10986661Y-9210120D02*
X11098421Y-9321880D01*
X11098421Y-9210120D02*
X10986661Y-9321880D01*
X11042541Y-9210120D02*
X11042541Y-9321880D01*
X10986661Y-9266000D02*
X11098421Y-9266000D01*
X10986661Y-9464120D02*
X11098421Y-9575880D01*
X11098421Y-9464120D02*
X10986661Y-9575880D01*
X11042541Y-9464120D02*
X11042541Y-9575880D01*
X10986661Y-9520000D02*
X11098421Y-9520000D01*
X10986661Y-9718120D02*
X11098421Y-9829880D01*
X11098421Y-9718120D02*
X10986661Y-9829880D01*
X11042541Y-9718120D02*
X11042541Y-9829880D01*
X10986661Y-9774000D02*
X11098421Y-9774000D01*
X10986661Y-9972120D02*
X11098421Y-10083880D01*
X11098421Y-9972120D02*
X10986661Y-10083880D01*
X11042541Y-9972120D02*
X11042541Y-10083880D01*
X10986661Y-10028000D02*
X11098421Y-10028000D01*
X11748661Y-8194120D02*
X11860421Y-8305880D01*
X11860421Y-8194120D02*
X11748661Y-8305880D01*
X11804541Y-8194120D02*
X11804541Y-8305880D01*
X11748661Y-8250000D02*
X11860421Y-8250000D01*
X11748661Y-8448120D02*
X11860421Y-8559880D01*
X11860421Y-8448120D02*
X11748661Y-8559880D01*
X11804541Y-8448120D02*
X11804541Y-8559880D01*
X11748661Y-8504000D02*
X11860421Y-8504000D01*
X11748661Y-8702120D02*
X11860421Y-8813880D01*
X11860421Y-8702120D02*
X11748661Y-8813880D01*
X11804541Y-8702120D02*
X11804541Y-8813880D01*
X11748661Y-8758000D02*
X11860421Y-8758000D01*
X11748661Y-8956120D02*
X11860421Y-9067880D01*
X11860421Y-8956120D02*
X11748661Y-9067880D01*
X11804541Y-8956120D02*
X11804541Y-9067880D01*
X11748661Y-9012000D02*
X11860421Y-9012000D01*
X11748661Y-9210120D02*
X11860421Y-9321880D01*
X11860421Y-9210120D02*
X11748661Y-9321880D01*
X11804541Y-9210120D02*
X11804541Y-9321880D01*
X11748661Y-9266000D02*
X11860421Y-9266000D01*
X11748661Y-9464120D02*
X11860421Y-9575880D01*
X11860421Y-9464120D02*
X11748661Y-9575880D01*
X11804541Y-9464120D02*
X11804541Y-9575880D01*
X11748661Y-9520000D02*
X11860421Y-9520000D01*
X11748661Y-9718120D02*
X11860421Y-9829880D01*
X11860421Y-9718120D02*
X11748661Y-9829880D01*
X11804541Y-9718120D02*
X11804541Y-9829880D01*
X11748661Y-9774000D02*
X11860421Y-9774000D01*
X11748661Y-9972120D02*
X11860421Y-10083880D01*
X11860421Y-9972120D02*
X11748661Y-10083880D01*
X11804541Y-9972120D02*
X11804541Y-10083880D01*
X11748661Y-10028000D02*
X11860421Y-10028000D01*
X17236661Y-8182120D02*
X17348421Y-8293880D01*
X17348421Y-8182120D02*
X17236661Y-8293880D01*
X17292541Y-8182120D02*
X17292541Y-8293880D01*
X17236661Y-8238000D02*
X17348421Y-8238000D01*
X17236661Y-8436120D02*
X17348421Y-8547880D01*
X17348421Y-8436120D02*
X17236661Y-8547880D01*
X17292541Y-8436120D02*
X17292541Y-8547880D01*
X17236661Y-8492000D02*
X17348421Y-8492000D01*
X17236661Y-8690120D02*
X17348421Y-8801880D01*
X17348421Y-8690120D02*
X17236661Y-8801880D01*
X17292541Y-8690120D02*
X17292541Y-8801880D01*
X17236661Y-8746000D02*
X17348421Y-8746000D01*
X17236661Y-8944120D02*
X17348421Y-9055880D01*
X17348421Y-8944120D02*
X17236661Y-9055880D01*
X17292541Y-8944120D02*
X17292541Y-9055880D01*
X17236661Y-9000000D02*
X17348421Y-9000000D01*
X17236661Y-9198120D02*
X17348421Y-9309880D01*
X17348421Y-9198120D02*
X17236661Y-9309880D01*
X17292541Y-9198120D02*
X17292541Y-9309880D01*
X17236661Y-9254000D02*
X17348421Y-9254000D01*
X17236661Y-9452120D02*
X17348421Y-9563880D01*
X17348421Y-9452120D02*
X17236661Y-9563880D01*
X17292541Y-9452120D02*
X17292541Y-9563880D01*
X17236661Y-9508000D02*
X17348421Y-9508000D01*
X17236661Y-9706120D02*
X17348421Y-9817880D01*
X17348421Y-9706120D02*
X17236661Y-9817880D01*
X17292541Y-9706120D02*
X17292541Y-9817880D01*
X17236661Y-9762000D02*
X17348421Y-9762000D01*
X17236661Y-9960120D02*
X17348421Y-10071880D01*
X17348421Y-9960120D02*
X17236661Y-10071880D01*
X17292541Y-9960120D02*
X17292541Y-10071880D01*
X17236661Y-10016000D02*
X17348421Y-10016000D01*
X17998661Y-8182120D02*
X18110421Y-8293880D01*
X18110421Y-8182120D02*
X17998661Y-8293880D01*
X18054541Y-8182120D02*
X18054541Y-8293880D01*
X17998661Y-8238000D02*
X18110421Y-8238000D01*
X17998661Y-8436120D02*
X18110421Y-8547880D01*
X18110421Y-8436120D02*
X17998661Y-8547880D01*
X18054541Y-8436120D02*
X18054541Y-8547880D01*
X17998661Y-8492000D02*
X18110421Y-8492000D01*
X17998661Y-8690120D02*
X18110421Y-8801880D01*
X18110421Y-8690120D02*
X17998661Y-8801880D01*
X18054541Y-8690120D02*
X18054541Y-8801880D01*
X17998661Y-8746000D02*
X18110421Y-8746000D01*
X17998661Y-8944120D02*
X18110421Y-9055880D01*
X18110421Y-8944120D02*
X17998661Y-9055880D01*
X18054541Y-8944120D02*
X18054541Y-9055880D01*
X17998661Y-9000000D02*
X18110421Y-9000000D01*
X17998661Y-9198120D02*
X18110421Y-9309880D01*
X18110421Y-9198120D02*
X17998661Y-9309880D01*
X18054541Y-9198120D02*
X18054541Y-9309880D01*
X17998661Y-9254000D02*
X18110421Y-9254000D01*
X17998661Y-9452120D02*
X18110421Y-9563880D01*
X18110421Y-9452120D02*
X17998661Y-9563880D01*
X18054541Y-9452120D02*
X18054541Y-9563880D01*
X17998661Y-9508000D02*
X18110421Y-9508000D01*
X17998661Y-9706120D02*
X18110421Y-9817880D01*
X18110421Y-9706120D02*
X17998661Y-9817880D01*
X18054541Y-9706120D02*
X18054541Y-9817880D01*
X17998661Y-9762000D02*
X18110421Y-9762000D01*
X17998661Y-9960120D02*
X18110421Y-10071880D01*
X18110421Y-9960120D02*
X17998661Y-10071880D01*
X18054541Y-9960120D02*
X18054541Y-10071880D01*
X17998661Y-10016000D02*
X18110421Y-10016000D01*
D16*
X14287041Y-13186500D02*
X14414041Y-13313500D01*
X14414041Y-13186500D02*
X14287041Y-13313500D01*
X14395442Y-13294902D02*
X14395442Y-13205098D01*
X14305639Y-13205098D01*
X14305639Y-13294902D01*
X14395442Y-13294902D01*
X14541041Y-13186500D02*
X14668041Y-13313500D01*
X14668041Y-13186500D02*
X14541041Y-13313500D01*
X14649442Y-13294902D02*
X14649442Y-13205098D01*
X14559639Y-13205098D01*
X14559639Y-13294902D01*
X14649442Y-13294902D01*
X14795041Y-13186500D02*
X14922041Y-13313500D01*
X14922041Y-13186500D02*
X14795041Y-13313500D01*
X14903442Y-13294902D02*
X14903442Y-13205098D01*
X14813639Y-13205098D01*
X14813639Y-13294902D01*
X14903442Y-13294902D01*
D17*
X12297041Y-14172500D02*
X12452041Y-14327500D01*
X12452041Y-14172500D02*
X12297041Y-14327500D01*
X12374541Y-14327500D02*
X12452041Y-14250000D01*
X12374541Y-14172500D01*
X12297041Y-14250000D01*
X12374541Y-14327500D01*
X12777041Y-14172500D02*
X12932041Y-14327500D01*
X12932041Y-14172500D02*
X12777041Y-14327500D01*
X12854541Y-14327500D02*
X12932041Y-14250000D01*
X12854541Y-14172500D01*
X12777041Y-14250000D01*
X12854541Y-14327500D01*
X14287041Y-14122500D02*
X14442041Y-14277500D01*
X14442041Y-14122500D02*
X14287041Y-14277500D01*
X14364541Y-14277500D02*
X14442041Y-14200000D01*
X14364541Y-14122500D01*
X14287041Y-14200000D01*
X14364541Y-14277500D01*
X14767041Y-14122500D02*
X14922041Y-14277500D01*
X14922041Y-14122500D02*
X14767041Y-14277500D01*
X14844541Y-14277500D02*
X14922041Y-14200000D01*
X14844541Y-14122500D01*
X14767041Y-14200000D01*
X14844541Y-14277500D01*
D11*
X10312817Y-15313984D02*
X10312817Y-15113984D01*
X10312817Y-15113984D02*
X10360436Y-15113984D01*
X10360436Y-15113984D02*
X10389008Y-15123508D01*
X10389008Y-15123508D02*
X10408056Y-15142555D01*
X10408056Y-15142555D02*
X10417579Y-15161603D01*
X10417579Y-15161603D02*
X10427103Y-15199698D01*
X10427103Y-15199698D02*
X10427103Y-15228269D01*
X10427103Y-15228269D02*
X10417579Y-15266365D01*
X10417579Y-15266365D02*
X10408056Y-15285412D01*
X10408056Y-15285412D02*
X10389008Y-15304460D01*
X10389008Y-15304460D02*
X10360436Y-15313984D01*
X10360436Y-15313984D02*
X10312817Y-15313984D01*
X10512817Y-15313984D02*
X10512817Y-15180650D01*
X10512817Y-15218746D02*
X10522341Y-15199698D01*
X10522341Y-15199698D02*
X10531865Y-15190174D01*
X10531865Y-15190174D02*
X10550913Y-15180650D01*
X10550913Y-15180650D02*
X10569960Y-15180650D01*
X10636627Y-15313984D02*
X10636627Y-15180650D01*
X10636627Y-15113984D02*
X10627103Y-15123508D01*
X10627103Y-15123508D02*
X10636627Y-15133031D01*
X10636627Y-15133031D02*
X10646151Y-15123508D01*
X10646151Y-15123508D02*
X10636627Y-15113984D01*
X10636627Y-15113984D02*
X10636627Y-15133031D01*
X10760436Y-15313984D02*
X10741389Y-15304460D01*
X10741389Y-15304460D02*
X10731865Y-15285412D01*
X10731865Y-15285412D02*
X10731865Y-15113984D01*
X10865198Y-15313984D02*
X10846151Y-15304460D01*
X10846151Y-15304460D02*
X10836627Y-15285412D01*
X10836627Y-15285412D02*
X10836627Y-15113984D01*
X11093770Y-15313984D02*
X11093770Y-15113984D01*
X11093770Y-15113984D02*
X11160437Y-15256841D01*
X11160437Y-15256841D02*
X11227103Y-15113984D01*
X11227103Y-15113984D02*
X11227103Y-15313984D01*
X11408055Y-15313984D02*
X11408055Y-15209222D01*
X11408055Y-15209222D02*
X11398532Y-15190174D01*
X11398532Y-15190174D02*
X11379484Y-15180650D01*
X11379484Y-15180650D02*
X11341389Y-15180650D01*
X11341389Y-15180650D02*
X11322341Y-15190174D01*
X11408055Y-15304460D02*
X11389008Y-15313984D01*
X11389008Y-15313984D02*
X11341389Y-15313984D01*
X11341389Y-15313984D02*
X11322341Y-15304460D01*
X11322341Y-15304460D02*
X11312817Y-15285412D01*
X11312817Y-15285412D02*
X11312817Y-15266365D01*
X11312817Y-15266365D02*
X11322341Y-15247317D01*
X11322341Y-15247317D02*
X11341389Y-15237793D01*
X11341389Y-15237793D02*
X11389008Y-15237793D01*
X11389008Y-15237793D02*
X11408055Y-15228269D01*
X11503294Y-15180650D02*
X11503294Y-15380650D01*
X11503294Y-15190174D02*
X11522341Y-15180650D01*
X11522341Y-15180650D02*
X11560436Y-15180650D01*
X11560436Y-15180650D02*
X11579484Y-15190174D01*
X11579484Y-15190174D02*
X11589008Y-15199698D01*
X11589008Y-15199698D02*
X11598532Y-15218746D01*
X11598532Y-15218746D02*
X11598532Y-15275888D01*
X11598532Y-15275888D02*
X11589008Y-15294936D01*
X11589008Y-15294936D02*
X11579484Y-15304460D01*
X11579484Y-15304460D02*
X11560436Y-15313984D01*
X11560436Y-15313984D02*
X11522341Y-15313984D01*
X11522341Y-15313984D02*
X11503294Y-15304460D01*
X11684246Y-15294936D02*
X11693770Y-15304460D01*
X11693770Y-15304460D02*
X11684246Y-15313984D01*
X11684246Y-15313984D02*
X11674722Y-15304460D01*
X11674722Y-15304460D02*
X11684246Y-15294936D01*
X11684246Y-15294936D02*
X11684246Y-15313984D01*
X11684246Y-15190174D02*
X11693770Y-15199698D01*
X11693770Y-15199698D02*
X11684246Y-15209222D01*
X11684246Y-15209222D02*
X11674722Y-15199698D01*
X11674722Y-15199698D02*
X11684246Y-15190174D01*
X11684246Y-15190174D02*
X11684246Y-15209222D01*
D12*
X9982041Y-15607500D02*
X10052041Y-15677500D01*
X10052041Y-15607500D02*
X9982041Y-15677500D01*
D11*
X10350913Y-15533984D02*
X10369960Y-15533984D01*
X10369960Y-15533984D02*
X10389008Y-15543508D01*
X10389008Y-15543508D02*
X10398532Y-15553031D01*
X10398532Y-15553031D02*
X10408056Y-15572079D01*
X10408056Y-15572079D02*
X10417579Y-15610174D01*
X10417579Y-15610174D02*
X10417579Y-15657793D01*
X10417579Y-15657793D02*
X10408056Y-15695888D01*
X10408056Y-15695888D02*
X10398532Y-15714936D01*
X10398532Y-15714936D02*
X10389008Y-15724460D01*
X10389008Y-15724460D02*
X10369960Y-15733984D01*
X10369960Y-15733984D02*
X10350913Y-15733984D01*
X10350913Y-15733984D02*
X10331865Y-15724460D01*
X10331865Y-15724460D02*
X10322341Y-15714936D01*
X10322341Y-15714936D02*
X10312817Y-15695888D01*
X10312817Y-15695888D02*
X10303294Y-15657793D01*
X10303294Y-15657793D02*
X10303294Y-15610174D01*
X10303294Y-15610174D02*
X10312817Y-15572079D01*
X10312817Y-15572079D02*
X10322341Y-15553031D01*
X10322341Y-15553031D02*
X10331865Y-15543508D01*
X10331865Y-15543508D02*
X10350913Y-15533984D01*
X10503294Y-15714936D02*
X10512817Y-15724460D01*
X10512817Y-15724460D02*
X10503294Y-15733984D01*
X10503294Y-15733984D02*
X10493770Y-15724460D01*
X10493770Y-15724460D02*
X10503294Y-15714936D01*
X10503294Y-15714936D02*
X10503294Y-15733984D01*
X10579484Y-15533984D02*
X10712817Y-15533984D01*
X10712817Y-15533984D02*
X10627103Y-15733984D01*
X10827103Y-15533984D02*
X10846151Y-15533984D01*
X10846151Y-15533984D02*
X10865198Y-15543508D01*
X10865198Y-15543508D02*
X10874722Y-15553031D01*
X10874722Y-15553031D02*
X10884246Y-15572079D01*
X10884246Y-15572079D02*
X10893770Y-15610174D01*
X10893770Y-15610174D02*
X10893770Y-15657793D01*
X10893770Y-15657793D02*
X10884246Y-15695888D01*
X10884246Y-15695888D02*
X10874722Y-15714936D01*
X10874722Y-15714936D02*
X10865198Y-15724460D01*
X10865198Y-15724460D02*
X10846151Y-15733984D01*
X10846151Y-15733984D02*
X10827103Y-15733984D01*
X10827103Y-15733984D02*
X10808056Y-15724460D01*
X10808056Y-15724460D02*
X10798532Y-15714936D01*
X10798532Y-15714936D02*
X10789008Y-15695888D01*
X10789008Y-15695888D02*
X10779484Y-15657793D01*
X10779484Y-15657793D02*
X10779484Y-15610174D01*
X10779484Y-15610174D02*
X10789008Y-15572079D01*
X10789008Y-15572079D02*
X10798532Y-15553031D01*
X10798532Y-15553031D02*
X10808056Y-15543508D01*
X10808056Y-15543508D02*
X10827103Y-15533984D01*
X11017579Y-15533984D02*
X11036627Y-15533984D01*
X11036627Y-15533984D02*
X11055675Y-15543508D01*
X11055675Y-15543508D02*
X11065198Y-15553031D01*
X11065198Y-15553031D02*
X11074722Y-15572079D01*
X11074722Y-15572079D02*
X11084246Y-15610174D01*
X11084246Y-15610174D02*
X11084246Y-15657793D01*
X11084246Y-15657793D02*
X11074722Y-15695888D01*
X11074722Y-15695888D02*
X11065198Y-15714936D01*
X11065198Y-15714936D02*
X11055675Y-15724460D01*
X11055675Y-15724460D02*
X11036627Y-15733984D01*
X11036627Y-15733984D02*
X11017579Y-15733984D01*
X11017579Y-15733984D02*
X10998532Y-15724460D01*
X10998532Y-15724460D02*
X10989008Y-15714936D01*
X10989008Y-15714936D02*
X10979484Y-15695888D01*
X10979484Y-15695888D02*
X10969960Y-15657793D01*
X10969960Y-15657793D02*
X10969960Y-15610174D01*
X10969960Y-15610174D02*
X10979484Y-15572079D01*
X10979484Y-15572079D02*
X10989008Y-15553031D01*
X10989008Y-15553031D02*
X10998532Y-15543508D01*
X10998532Y-15543508D02*
X11017579Y-15533984D01*
X11169960Y-15733984D02*
X11169960Y-15600650D01*
X11169960Y-15619698D02*
X11179484Y-15610174D01*
X11179484Y-15610174D02*
X11198532Y-15600650D01*
X11198532Y-15600650D02*
X11227103Y-15600650D01*
X11227103Y-15600650D02*
X11246151Y-15610174D01*
X11246151Y-15610174D02*
X11255675Y-15629222D01*
X11255675Y-15629222D02*
X11255675Y-15733984D01*
X11255675Y-15629222D02*
X11265198Y-15610174D01*
X11265198Y-15610174D02*
X11284246Y-15600650D01*
X11284246Y-15600650D02*
X11312817Y-15600650D01*
X11312817Y-15600650D02*
X11331865Y-15610174D01*
X11331865Y-15610174D02*
X11341389Y-15629222D01*
X11341389Y-15629222D02*
X11341389Y-15733984D01*
X11436627Y-15733984D02*
X11436627Y-15600650D01*
X11436627Y-15619698D02*
X11446151Y-15610174D01*
X11446151Y-15610174D02*
X11465198Y-15600650D01*
X11465198Y-15600650D02*
X11493770Y-15600650D01*
X11493770Y-15600650D02*
X11512817Y-15610174D01*
X11512817Y-15610174D02*
X11522341Y-15629222D01*
X11522341Y-15629222D02*
X11522341Y-15733984D01*
X11522341Y-15629222D02*
X11531865Y-15610174D01*
X11531865Y-15610174D02*
X11550913Y-15600650D01*
X11550913Y-15600650D02*
X11579484Y-15600650D01*
X11579484Y-15600650D02*
X11598532Y-15610174D01*
X11598532Y-15610174D02*
X11608056Y-15629222D01*
X11608056Y-15629222D02*
X11608056Y-15733984D01*
X11998532Y-15524460D02*
X11827103Y-15781603D01*
X12255675Y-15533984D02*
X12274722Y-15533984D01*
X12274722Y-15533984D02*
X12293770Y-15543508D01*
X12293770Y-15543508D02*
X12303294Y-15553031D01*
X12303294Y-15553031D02*
X12312818Y-15572079D01*
X12312818Y-15572079D02*
X12322341Y-15610174D01*
X12322341Y-15610174D02*
X12322341Y-15657793D01*
X12322341Y-15657793D02*
X12312818Y-15695888D01*
X12312818Y-15695888D02*
X12303294Y-15714936D01*
X12303294Y-15714936D02*
X12293770Y-15724460D01*
X12293770Y-15724460D02*
X12274722Y-15733984D01*
X12274722Y-15733984D02*
X12255675Y-15733984D01*
X12255675Y-15733984D02*
X12236627Y-15724460D01*
X12236627Y-15724460D02*
X12227103Y-15714936D01*
X12227103Y-15714936D02*
X12217579Y-15695888D01*
X12217579Y-15695888D02*
X12208056Y-15657793D01*
X12208056Y-15657793D02*
X12208056Y-15610174D01*
X12208056Y-15610174D02*
X12217579Y-15572079D01*
X12217579Y-15572079D02*
X12227103Y-15553031D01*
X12227103Y-15553031D02*
X12236627Y-15543508D01*
X12236627Y-15543508D02*
X12255675Y-15533984D01*
X12408056Y-15714936D02*
X12417579Y-15724460D01*
X12417579Y-15724460D02*
X12408056Y-15733984D01*
X12408056Y-15733984D02*
X12398532Y-15724460D01*
X12398532Y-15724460D02*
X12408056Y-15714936D01*
X12408056Y-15714936D02*
X12408056Y-15733984D01*
X12541389Y-15533984D02*
X12560437Y-15533984D01*
X12560437Y-15533984D02*
X12579484Y-15543508D01*
X12579484Y-15543508D02*
X12589008Y-15553031D01*
X12589008Y-15553031D02*
X12598532Y-15572079D01*
X12598532Y-15572079D02*
X12608056Y-15610174D01*
X12608056Y-15610174D02*
X12608056Y-15657793D01*
X12608056Y-15657793D02*
X12598532Y-15695888D01*
X12598532Y-15695888D02*
X12589008Y-15714936D01*
X12589008Y-15714936D02*
X12579484Y-15724460D01*
X12579484Y-15724460D02*
X12560437Y-15733984D01*
X12560437Y-15733984D02*
X12541389Y-15733984D01*
X12541389Y-15733984D02*
X12522341Y-15724460D01*
X12522341Y-15724460D02*
X12512818Y-15714936D01*
X12512818Y-15714936D02*
X12503294Y-15695888D01*
X12503294Y-15695888D02*
X12493770Y-15657793D01*
X12493770Y-15657793D02*
X12493770Y-15610174D01*
X12493770Y-15610174D02*
X12503294Y-15572079D01*
X12503294Y-15572079D02*
X12512818Y-15553031D01*
X12512818Y-15553031D02*
X12522341Y-15543508D01*
X12522341Y-15543508D02*
X12541389Y-15533984D01*
X12684246Y-15553031D02*
X12693770Y-15543508D01*
X12693770Y-15543508D02*
X12712818Y-15533984D01*
X12712818Y-15533984D02*
X12760437Y-15533984D01*
X12760437Y-15533984D02*
X12779484Y-15543508D01*
X12779484Y-15543508D02*
X12789008Y-15553031D01*
X12789008Y-15553031D02*
X12798532Y-15572079D01*
X12798532Y-15572079D02*
X12798532Y-15591127D01*
X12798532Y-15591127D02*
X12789008Y-15619698D01*
X12789008Y-15619698D02*
X12674722Y-15733984D01*
X12674722Y-15733984D02*
X12798532Y-15733984D01*
X12865199Y-15533984D02*
X12998532Y-15533984D01*
X12998532Y-15533984D02*
X12912818Y-15733984D01*
X13160437Y-15533984D02*
X13122341Y-15533984D01*
X13122341Y-15533984D02*
X13103294Y-15543508D01*
X13103294Y-15543508D02*
X13093770Y-15553031D01*
X13093770Y-15553031D02*
X13074722Y-15581603D01*
X13074722Y-15581603D02*
X13065199Y-15619698D01*
X13065199Y-15619698D02*
X13065199Y-15695888D01*
X13065199Y-15695888D02*
X13074722Y-15714936D01*
X13074722Y-15714936D02*
X13084246Y-15724460D01*
X13084246Y-15724460D02*
X13103294Y-15733984D01*
X13103294Y-15733984D02*
X13141389Y-15733984D01*
X13141389Y-15733984D02*
X13160437Y-15724460D01*
X13160437Y-15724460D02*
X13169960Y-15714936D01*
X13169960Y-15714936D02*
X13179484Y-15695888D01*
X13179484Y-15695888D02*
X13179484Y-15648269D01*
X13179484Y-15648269D02*
X13169960Y-15629222D01*
X13169960Y-15629222D02*
X13160437Y-15619698D01*
X13160437Y-15619698D02*
X13141389Y-15610174D01*
X13141389Y-15610174D02*
X13103294Y-15610174D01*
X13103294Y-15610174D02*
X13084246Y-15619698D01*
X13084246Y-15619698D02*
X13074722Y-15629222D01*
X13074722Y-15629222D02*
X13065199Y-15648269D01*
X13255675Y-15533984D02*
X13255675Y-15572079D01*
X13331865Y-15533984D02*
X13331865Y-15572079D01*
X13627103Y-15810174D02*
X13617580Y-15800650D01*
X13617580Y-15800650D02*
X13598532Y-15772079D01*
X13598532Y-15772079D02*
X13589008Y-15753031D01*
X13589008Y-15753031D02*
X13579484Y-15724460D01*
X13579484Y-15724460D02*
X13569961Y-15676841D01*
X13569961Y-15676841D02*
X13569961Y-15638746D01*
X13569961Y-15638746D02*
X13579484Y-15591127D01*
X13579484Y-15591127D02*
X13589008Y-15562555D01*
X13589008Y-15562555D02*
X13598532Y-15543508D01*
X13598532Y-15543508D02*
X13617580Y-15514936D01*
X13617580Y-15514936D02*
X13627103Y-15505412D01*
X13789008Y-15600650D02*
X13789008Y-15733984D01*
X13741389Y-15524460D02*
X13693770Y-15667317D01*
X13693770Y-15667317D02*
X13817580Y-15667317D01*
X14046151Y-15733984D02*
X14046151Y-15533984D01*
X14131865Y-15733984D02*
X14131865Y-15629222D01*
X14131865Y-15629222D02*
X14122342Y-15610174D01*
X14122342Y-15610174D02*
X14103294Y-15600650D01*
X14103294Y-15600650D02*
X14074722Y-15600650D01*
X14074722Y-15600650D02*
X14055675Y-15610174D01*
X14055675Y-15610174D02*
X14046151Y-15619698D01*
X14255675Y-15733984D02*
X14236627Y-15724460D01*
X14236627Y-15724460D02*
X14227103Y-15714936D01*
X14227103Y-15714936D02*
X14217580Y-15695888D01*
X14217580Y-15695888D02*
X14217580Y-15638746D01*
X14217580Y-15638746D02*
X14227103Y-15619698D01*
X14227103Y-15619698D02*
X14236627Y-15610174D01*
X14236627Y-15610174D02*
X14255675Y-15600650D01*
X14255675Y-15600650D02*
X14284246Y-15600650D01*
X14284246Y-15600650D02*
X14303294Y-15610174D01*
X14303294Y-15610174D02*
X14312818Y-15619698D01*
X14312818Y-15619698D02*
X14322342Y-15638746D01*
X14322342Y-15638746D02*
X14322342Y-15695888D01*
X14322342Y-15695888D02*
X14312818Y-15714936D01*
X14312818Y-15714936D02*
X14303294Y-15724460D01*
X14303294Y-15724460D02*
X14284246Y-15733984D01*
X14284246Y-15733984D02*
X14255675Y-15733984D01*
X14436627Y-15733984D02*
X14417580Y-15724460D01*
X14417580Y-15724460D02*
X14408056Y-15705412D01*
X14408056Y-15705412D02*
X14408056Y-15533984D01*
X14589008Y-15724460D02*
X14569961Y-15733984D01*
X14569961Y-15733984D02*
X14531865Y-15733984D01*
X14531865Y-15733984D02*
X14512818Y-15724460D01*
X14512818Y-15724460D02*
X14503294Y-15705412D01*
X14503294Y-15705412D02*
X14503294Y-15629222D01*
X14503294Y-15629222D02*
X14512818Y-15610174D01*
X14512818Y-15610174D02*
X14531865Y-15600650D01*
X14531865Y-15600650D02*
X14569961Y-15600650D01*
X14569961Y-15600650D02*
X14589008Y-15610174D01*
X14589008Y-15610174D02*
X14598532Y-15629222D01*
X14598532Y-15629222D02*
X14598532Y-15648269D01*
X14598532Y-15648269D02*
X14503294Y-15667317D01*
X14674723Y-15724460D02*
X14693770Y-15733984D01*
X14693770Y-15733984D02*
X14731865Y-15733984D01*
X14731865Y-15733984D02*
X14750913Y-15724460D01*
X14750913Y-15724460D02*
X14760437Y-15705412D01*
X14760437Y-15705412D02*
X14760437Y-15695888D01*
X14760437Y-15695888D02*
X14750913Y-15676841D01*
X14750913Y-15676841D02*
X14731865Y-15667317D01*
X14731865Y-15667317D02*
X14703294Y-15667317D01*
X14703294Y-15667317D02*
X14684246Y-15657793D01*
X14684246Y-15657793D02*
X14674723Y-15638746D01*
X14674723Y-15638746D02*
X14674723Y-15629222D01*
X14674723Y-15629222D02*
X14684246Y-15610174D01*
X14684246Y-15610174D02*
X14703294Y-15600650D01*
X14703294Y-15600650D02*
X14731865Y-15600650D01*
X14731865Y-15600650D02*
X14750913Y-15610174D01*
X14827104Y-15810174D02*
X14836627Y-15800650D01*
X14836627Y-15800650D02*
X14855675Y-15772079D01*
X14855675Y-15772079D02*
X14865199Y-15753031D01*
X14865199Y-15753031D02*
X14874723Y-15724460D01*
X14874723Y-15724460D02*
X14884246Y-15676841D01*
X14884246Y-15676841D02*
X14884246Y-15638746D01*
X14884246Y-15638746D02*
X14874723Y-15591127D01*
X14874723Y-15591127D02*
X14865199Y-15562555D01*
X14865199Y-15562555D02*
X14855675Y-15543508D01*
X14855675Y-15543508D02*
X14836627Y-15514936D01*
X14836627Y-15514936D02*
X14827104Y-15505412D01*
D12*
X10052041Y-15906500D02*
G75*
G02*
X9972041Y-15906500I-40000J0D01*
G01*
X9972041Y-15906500D02*
G75*
G02*
X10052041Y-15906500I40000J0D01*
G01*
D11*
X10350913Y-15797984D02*
X10369960Y-15797984D01*
X10369960Y-15797984D02*
X10389008Y-15807508D01*
X10389008Y-15807508D02*
X10398532Y-15817031D01*
X10398532Y-15817031D02*
X10408056Y-15836079D01*
X10408056Y-15836079D02*
X10417579Y-15874174D01*
X10417579Y-15874174D02*
X10417579Y-15921793D01*
X10417579Y-15921793D02*
X10408056Y-15959888D01*
X10408056Y-15959888D02*
X10398532Y-15978936D01*
X10398532Y-15978936D02*
X10389008Y-15988460D01*
X10389008Y-15988460D02*
X10369960Y-15997984D01*
X10369960Y-15997984D02*
X10350913Y-15997984D01*
X10350913Y-15997984D02*
X10331865Y-15988460D01*
X10331865Y-15988460D02*
X10322341Y-15978936D01*
X10322341Y-15978936D02*
X10312817Y-15959888D01*
X10312817Y-15959888D02*
X10303294Y-15921793D01*
X10303294Y-15921793D02*
X10303294Y-15874174D01*
X10303294Y-15874174D02*
X10312817Y-15836079D01*
X10312817Y-15836079D02*
X10322341Y-15817031D01*
X10322341Y-15817031D02*
X10331865Y-15807508D01*
X10331865Y-15807508D02*
X10350913Y-15797984D01*
X10503294Y-15978936D02*
X10512817Y-15988460D01*
X10512817Y-15988460D02*
X10503294Y-15997984D01*
X10503294Y-15997984D02*
X10493770Y-15988460D01*
X10493770Y-15988460D02*
X10503294Y-15978936D01*
X10503294Y-15978936D02*
X10503294Y-15997984D01*
X10627103Y-15883698D02*
X10608056Y-15874174D01*
X10608056Y-15874174D02*
X10598532Y-15864650D01*
X10598532Y-15864650D02*
X10589008Y-15845603D01*
X10589008Y-15845603D02*
X10589008Y-15836079D01*
X10589008Y-15836079D02*
X10598532Y-15817031D01*
X10598532Y-15817031D02*
X10608056Y-15807508D01*
X10608056Y-15807508D02*
X10627103Y-15797984D01*
X10627103Y-15797984D02*
X10665198Y-15797984D01*
X10665198Y-15797984D02*
X10684246Y-15807508D01*
X10684246Y-15807508D02*
X10693770Y-15817031D01*
X10693770Y-15817031D02*
X10703294Y-15836079D01*
X10703294Y-15836079D02*
X10703294Y-15845603D01*
X10703294Y-15845603D02*
X10693770Y-15864650D01*
X10693770Y-15864650D02*
X10684246Y-15874174D01*
X10684246Y-15874174D02*
X10665198Y-15883698D01*
X10665198Y-15883698D02*
X10627103Y-15883698D01*
X10627103Y-15883698D02*
X10608056Y-15893222D01*
X10608056Y-15893222D02*
X10598532Y-15902746D01*
X10598532Y-15902746D02*
X10589008Y-15921793D01*
X10589008Y-15921793D02*
X10589008Y-15959888D01*
X10589008Y-15959888D02*
X10598532Y-15978936D01*
X10598532Y-15978936D02*
X10608056Y-15988460D01*
X10608056Y-15988460D02*
X10627103Y-15997984D01*
X10627103Y-15997984D02*
X10665198Y-15997984D01*
X10665198Y-15997984D02*
X10684246Y-15988460D01*
X10684246Y-15988460D02*
X10693770Y-15978936D01*
X10693770Y-15978936D02*
X10703294Y-15959888D01*
X10703294Y-15959888D02*
X10703294Y-15921793D01*
X10703294Y-15921793D02*
X10693770Y-15902746D01*
X10693770Y-15902746D02*
X10684246Y-15893222D01*
X10684246Y-15893222D02*
X10665198Y-15883698D01*
X10827103Y-15797984D02*
X10846151Y-15797984D01*
X10846151Y-15797984D02*
X10865198Y-15807508D01*
X10865198Y-15807508D02*
X10874722Y-15817031D01*
X10874722Y-15817031D02*
X10884246Y-15836079D01*
X10884246Y-15836079D02*
X10893770Y-15874174D01*
X10893770Y-15874174D02*
X10893770Y-15921793D01*
X10893770Y-15921793D02*
X10884246Y-15959888D01*
X10884246Y-15959888D02*
X10874722Y-15978936D01*
X10874722Y-15978936D02*
X10865198Y-15988460D01*
X10865198Y-15988460D02*
X10846151Y-15997984D01*
X10846151Y-15997984D02*
X10827103Y-15997984D01*
X10827103Y-15997984D02*
X10808056Y-15988460D01*
X10808056Y-15988460D02*
X10798532Y-15978936D01*
X10798532Y-15978936D02*
X10789008Y-15959888D01*
X10789008Y-15959888D02*
X10779484Y-15921793D01*
X10779484Y-15921793D02*
X10779484Y-15874174D01*
X10779484Y-15874174D02*
X10789008Y-15836079D01*
X10789008Y-15836079D02*
X10798532Y-15817031D01*
X10798532Y-15817031D02*
X10808056Y-15807508D01*
X10808056Y-15807508D02*
X10827103Y-15797984D01*
X11017579Y-15797984D02*
X11036627Y-15797984D01*
X11036627Y-15797984D02*
X11055675Y-15807508D01*
X11055675Y-15807508D02*
X11065198Y-15817031D01*
X11065198Y-15817031D02*
X11074722Y-15836079D01*
X11074722Y-15836079D02*
X11084246Y-15874174D01*
X11084246Y-15874174D02*
X11084246Y-15921793D01*
X11084246Y-15921793D02*
X11074722Y-15959888D01*
X11074722Y-15959888D02*
X11065198Y-15978936D01*
X11065198Y-15978936D02*
X11055675Y-15988460D01*
X11055675Y-15988460D02*
X11036627Y-15997984D01*
X11036627Y-15997984D02*
X11017579Y-15997984D01*
X11017579Y-15997984D02*
X10998532Y-15988460D01*
X10998532Y-15988460D02*
X10989008Y-15978936D01*
X10989008Y-15978936D02*
X10979484Y-15959888D01*
X10979484Y-15959888D02*
X10969960Y-15921793D01*
X10969960Y-15921793D02*
X10969960Y-15874174D01*
X10969960Y-15874174D02*
X10979484Y-15836079D01*
X10979484Y-15836079D02*
X10989008Y-15817031D01*
X10989008Y-15817031D02*
X10998532Y-15807508D01*
X10998532Y-15807508D02*
X11017579Y-15797984D01*
X11169960Y-15997984D02*
X11169960Y-15864650D01*
X11169960Y-15883698D02*
X11179484Y-15874174D01*
X11179484Y-15874174D02*
X11198532Y-15864650D01*
X11198532Y-15864650D02*
X11227103Y-15864650D01*
X11227103Y-15864650D02*
X11246151Y-15874174D01*
X11246151Y-15874174D02*
X11255675Y-15893222D01*
X11255675Y-15893222D02*
X11255675Y-15997984D01*
X11255675Y-15893222D02*
X11265198Y-15874174D01*
X11265198Y-15874174D02*
X11284246Y-15864650D01*
X11284246Y-15864650D02*
X11312817Y-15864650D01*
X11312817Y-15864650D02*
X11331865Y-15874174D01*
X11331865Y-15874174D02*
X11341389Y-15893222D01*
X11341389Y-15893222D02*
X11341389Y-15997984D01*
X11436627Y-15997984D02*
X11436627Y-15864650D01*
X11436627Y-15883698D02*
X11446151Y-15874174D01*
X11446151Y-15874174D02*
X11465198Y-15864650D01*
X11465198Y-15864650D02*
X11493770Y-15864650D01*
X11493770Y-15864650D02*
X11512817Y-15874174D01*
X11512817Y-15874174D02*
X11522341Y-15893222D01*
X11522341Y-15893222D02*
X11522341Y-15997984D01*
X11522341Y-15893222D02*
X11531865Y-15874174D01*
X11531865Y-15874174D02*
X11550913Y-15864650D01*
X11550913Y-15864650D02*
X11579484Y-15864650D01*
X11579484Y-15864650D02*
X11598532Y-15874174D01*
X11598532Y-15874174D02*
X11608056Y-15893222D01*
X11608056Y-15893222D02*
X11608056Y-15997984D01*
X11998532Y-15788460D02*
X11827103Y-16045603D01*
X12255675Y-15797984D02*
X12274722Y-15797984D01*
X12274722Y-15797984D02*
X12293770Y-15807508D01*
X12293770Y-15807508D02*
X12303294Y-15817031D01*
X12303294Y-15817031D02*
X12312818Y-15836079D01*
X12312818Y-15836079D02*
X12322341Y-15874174D01*
X12322341Y-15874174D02*
X12322341Y-15921793D01*
X12322341Y-15921793D02*
X12312818Y-15959888D01*
X12312818Y-15959888D02*
X12303294Y-15978936D01*
X12303294Y-15978936D02*
X12293770Y-15988460D01*
X12293770Y-15988460D02*
X12274722Y-15997984D01*
X12274722Y-15997984D02*
X12255675Y-15997984D01*
X12255675Y-15997984D02*
X12236627Y-15988460D01*
X12236627Y-15988460D02*
X12227103Y-15978936D01*
X12227103Y-15978936D02*
X12217579Y-15959888D01*
X12217579Y-15959888D02*
X12208056Y-15921793D01*
X12208056Y-15921793D02*
X12208056Y-15874174D01*
X12208056Y-15874174D02*
X12217579Y-15836079D01*
X12217579Y-15836079D02*
X12227103Y-15817031D01*
X12227103Y-15817031D02*
X12236627Y-15807508D01*
X12236627Y-15807508D02*
X12255675Y-15797984D01*
X12408056Y-15978936D02*
X12417579Y-15988460D01*
X12417579Y-15988460D02*
X12408056Y-15997984D01*
X12408056Y-15997984D02*
X12398532Y-15988460D01*
X12398532Y-15988460D02*
X12408056Y-15978936D01*
X12408056Y-15978936D02*
X12408056Y-15997984D01*
X12541389Y-15797984D02*
X12560437Y-15797984D01*
X12560437Y-15797984D02*
X12579484Y-15807508D01*
X12579484Y-15807508D02*
X12589008Y-15817031D01*
X12589008Y-15817031D02*
X12598532Y-15836079D01*
X12598532Y-15836079D02*
X12608056Y-15874174D01*
X12608056Y-15874174D02*
X12608056Y-15921793D01*
X12608056Y-15921793D02*
X12598532Y-15959888D01*
X12598532Y-15959888D02*
X12589008Y-15978936D01*
X12589008Y-15978936D02*
X12579484Y-15988460D01*
X12579484Y-15988460D02*
X12560437Y-15997984D01*
X12560437Y-15997984D02*
X12541389Y-15997984D01*
X12541389Y-15997984D02*
X12522341Y-15988460D01*
X12522341Y-15988460D02*
X12512818Y-15978936D01*
X12512818Y-15978936D02*
X12503294Y-15959888D01*
X12503294Y-15959888D02*
X12493770Y-15921793D01*
X12493770Y-15921793D02*
X12493770Y-15874174D01*
X12493770Y-15874174D02*
X12503294Y-15836079D01*
X12503294Y-15836079D02*
X12512818Y-15817031D01*
X12512818Y-15817031D02*
X12522341Y-15807508D01*
X12522341Y-15807508D02*
X12541389Y-15797984D01*
X12674722Y-15797984D02*
X12798532Y-15797984D01*
X12798532Y-15797984D02*
X12731865Y-15874174D01*
X12731865Y-15874174D02*
X12760437Y-15874174D01*
X12760437Y-15874174D02*
X12779484Y-15883698D01*
X12779484Y-15883698D02*
X12789008Y-15893222D01*
X12789008Y-15893222D02*
X12798532Y-15912269D01*
X12798532Y-15912269D02*
X12798532Y-15959888D01*
X12798532Y-15959888D02*
X12789008Y-15978936D01*
X12789008Y-15978936D02*
X12779484Y-15988460D01*
X12779484Y-15988460D02*
X12760437Y-15997984D01*
X12760437Y-15997984D02*
X12703294Y-15997984D01*
X12703294Y-15997984D02*
X12684246Y-15988460D01*
X12684246Y-15988460D02*
X12674722Y-15978936D01*
X12989008Y-15997984D02*
X12874722Y-15997984D01*
X12931865Y-15997984D02*
X12931865Y-15797984D01*
X12931865Y-15797984D02*
X12912818Y-15826555D01*
X12912818Y-15826555D02*
X12893770Y-15845603D01*
X12893770Y-15845603D02*
X12874722Y-15855127D01*
X13169960Y-15797984D02*
X13074722Y-15797984D01*
X13074722Y-15797984D02*
X13065199Y-15893222D01*
X13065199Y-15893222D02*
X13074722Y-15883698D01*
X13074722Y-15883698D02*
X13093770Y-15874174D01*
X13093770Y-15874174D02*
X13141389Y-15874174D01*
X13141389Y-15874174D02*
X13160437Y-15883698D01*
X13160437Y-15883698D02*
X13169960Y-15893222D01*
X13169960Y-15893222D02*
X13179484Y-15912269D01*
X13179484Y-15912269D02*
X13179484Y-15959888D01*
X13179484Y-15959888D02*
X13169960Y-15978936D01*
X13169960Y-15978936D02*
X13160437Y-15988460D01*
X13160437Y-15988460D02*
X13141389Y-15997984D01*
X13141389Y-15997984D02*
X13093770Y-15997984D01*
X13093770Y-15997984D02*
X13074722Y-15988460D01*
X13074722Y-15988460D02*
X13065199Y-15978936D01*
X13255675Y-15797984D02*
X13255675Y-15836079D01*
X13331865Y-15797984D02*
X13331865Y-15836079D01*
X13627103Y-16074174D02*
X13617580Y-16064650D01*
X13617580Y-16064650D02*
X13598532Y-16036079D01*
X13598532Y-16036079D02*
X13589008Y-16017031D01*
X13589008Y-16017031D02*
X13579484Y-15988460D01*
X13579484Y-15988460D02*
X13569961Y-15940841D01*
X13569961Y-15940841D02*
X13569961Y-15902746D01*
X13569961Y-15902746D02*
X13579484Y-15855127D01*
X13579484Y-15855127D02*
X13589008Y-15826555D01*
X13589008Y-15826555D02*
X13598532Y-15807508D01*
X13598532Y-15807508D02*
X13617580Y-15778936D01*
X13617580Y-15778936D02*
X13627103Y-15769412D01*
X13808056Y-15997984D02*
X13693770Y-15997984D01*
X13750913Y-15997984D02*
X13750913Y-15797984D01*
X13750913Y-15797984D02*
X13731865Y-15826555D01*
X13731865Y-15826555D02*
X13712818Y-15845603D01*
X13712818Y-15845603D02*
X13693770Y-15855127D01*
X13922341Y-15883698D02*
X13903294Y-15874174D01*
X13903294Y-15874174D02*
X13893770Y-15864650D01*
X13893770Y-15864650D02*
X13884246Y-15845603D01*
X13884246Y-15845603D02*
X13884246Y-15836079D01*
X13884246Y-15836079D02*
X13893770Y-15817031D01*
X13893770Y-15817031D02*
X13903294Y-15807508D01*
X13903294Y-15807508D02*
X13922341Y-15797984D01*
X13922341Y-15797984D02*
X13960437Y-15797984D01*
X13960437Y-15797984D02*
X13979484Y-15807508D01*
X13979484Y-15807508D02*
X13989008Y-15817031D01*
X13989008Y-15817031D02*
X13998532Y-15836079D01*
X13998532Y-15836079D02*
X13998532Y-15845603D01*
X13998532Y-15845603D02*
X13989008Y-15864650D01*
X13989008Y-15864650D02*
X13979484Y-15874174D01*
X13979484Y-15874174D02*
X13960437Y-15883698D01*
X13960437Y-15883698D02*
X13922341Y-15883698D01*
X13922341Y-15883698D02*
X13903294Y-15893222D01*
X13903294Y-15893222D02*
X13893770Y-15902746D01*
X13893770Y-15902746D02*
X13884246Y-15921793D01*
X13884246Y-15921793D02*
X13884246Y-15959888D01*
X13884246Y-15959888D02*
X13893770Y-15978936D01*
X13893770Y-15978936D02*
X13903294Y-15988460D01*
X13903294Y-15988460D02*
X13922341Y-15997984D01*
X13922341Y-15997984D02*
X13960437Y-15997984D01*
X13960437Y-15997984D02*
X13979484Y-15988460D01*
X13979484Y-15988460D02*
X13989008Y-15978936D01*
X13989008Y-15978936D02*
X13998532Y-15959888D01*
X13998532Y-15959888D02*
X13998532Y-15921793D01*
X13998532Y-15921793D02*
X13989008Y-15902746D01*
X13989008Y-15902746D02*
X13979484Y-15893222D01*
X13979484Y-15893222D02*
X13960437Y-15883698D01*
X14236627Y-15997984D02*
X14236627Y-15797984D01*
X14322342Y-15997984D02*
X14322342Y-15893222D01*
X14322342Y-15893222D02*
X14312818Y-15874174D01*
X14312818Y-15874174D02*
X14293770Y-15864650D01*
X14293770Y-15864650D02*
X14265199Y-15864650D01*
X14265199Y-15864650D02*
X14246151Y-15874174D01*
X14246151Y-15874174D02*
X14236627Y-15883698D01*
X14446151Y-15997984D02*
X14427103Y-15988460D01*
X14427103Y-15988460D02*
X14417580Y-15978936D01*
X14417580Y-15978936D02*
X14408056Y-15959888D01*
X14408056Y-15959888D02*
X14408056Y-15902746D01*
X14408056Y-15902746D02*
X14417580Y-15883698D01*
X14417580Y-15883698D02*
X14427103Y-15874174D01*
X14427103Y-15874174D02*
X14446151Y-15864650D01*
X14446151Y-15864650D02*
X14474723Y-15864650D01*
X14474723Y-15864650D02*
X14493770Y-15874174D01*
X14493770Y-15874174D02*
X14503294Y-15883698D01*
X14503294Y-15883698D02*
X14512818Y-15902746D01*
X14512818Y-15902746D02*
X14512818Y-15959888D01*
X14512818Y-15959888D02*
X14503294Y-15978936D01*
X14503294Y-15978936D02*
X14493770Y-15988460D01*
X14493770Y-15988460D02*
X14474723Y-15997984D01*
X14474723Y-15997984D02*
X14446151Y-15997984D01*
X14627103Y-15997984D02*
X14608056Y-15988460D01*
X14608056Y-15988460D02*
X14598532Y-15969412D01*
X14598532Y-15969412D02*
X14598532Y-15797984D01*
X14779484Y-15988460D02*
X14760437Y-15997984D01*
X14760437Y-15997984D02*
X14722342Y-15997984D01*
X14722342Y-15997984D02*
X14703294Y-15988460D01*
X14703294Y-15988460D02*
X14693770Y-15969412D01*
X14693770Y-15969412D02*
X14693770Y-15893222D01*
X14693770Y-15893222D02*
X14703294Y-15874174D01*
X14703294Y-15874174D02*
X14722342Y-15864650D01*
X14722342Y-15864650D02*
X14760437Y-15864650D01*
X14760437Y-15864650D02*
X14779484Y-15874174D01*
X14779484Y-15874174D02*
X14789008Y-15893222D01*
X14789008Y-15893222D02*
X14789008Y-15912269D01*
X14789008Y-15912269D02*
X14693770Y-15931317D01*
X14865199Y-15988460D02*
X14884246Y-15997984D01*
X14884246Y-15997984D02*
X14922342Y-15997984D01*
X14922342Y-15997984D02*
X14941389Y-15988460D01*
X14941389Y-15988460D02*
X14950913Y-15969412D01*
X14950913Y-15969412D02*
X14950913Y-15959888D01*
X14950913Y-15959888D02*
X14941389Y-15940841D01*
X14941389Y-15940841D02*
X14922342Y-15931317D01*
X14922342Y-15931317D02*
X14893770Y-15931317D01*
X14893770Y-15931317D02*
X14874723Y-15921793D01*
X14874723Y-15921793D02*
X14865199Y-15902746D01*
X14865199Y-15902746D02*
X14865199Y-15893222D01*
X14865199Y-15893222D02*
X14874723Y-15874174D01*
X14874723Y-15874174D02*
X14893770Y-15864650D01*
X14893770Y-15864650D02*
X14922342Y-15864650D01*
X14922342Y-15864650D02*
X14941389Y-15874174D01*
X15017580Y-16074174D02*
X15027104Y-16064650D01*
X15027104Y-16064650D02*
X15046151Y-16036079D01*
X15046151Y-16036079D02*
X15055675Y-16017031D01*
X15055675Y-16017031D02*
X15065199Y-15988460D01*
X15065199Y-15988460D02*
X15074723Y-15940841D01*
X15074723Y-15940841D02*
X15074723Y-15902746D01*
X15074723Y-15902746D02*
X15065199Y-15855127D01*
X15065199Y-15855127D02*
X15055675Y-15826555D01*
X15055675Y-15826555D02*
X15046151Y-15807508D01*
X15046151Y-15807508D02*
X15027104Y-15778936D01*
X15027104Y-15778936D02*
X15017580Y-15769412D01*
D12*
X10007041Y-16125500D02*
X10007041Y-16215500D01*
X9962041Y-16170500D02*
X10052041Y-16170500D01*
D11*
X10350913Y-16061984D02*
X10369960Y-16061984D01*
X10369960Y-16061984D02*
X10389008Y-16071508D01*
X10389008Y-16071508D02*
X10398532Y-16081031D01*
X10398532Y-16081031D02*
X10408056Y-16100079D01*
X10408056Y-16100079D02*
X10417579Y-16138174D01*
X10417579Y-16138174D02*
X10417579Y-16185793D01*
X10417579Y-16185793D02*
X10408056Y-16223888D01*
X10408056Y-16223888D02*
X10398532Y-16242936D01*
X10398532Y-16242936D02*
X10389008Y-16252460D01*
X10389008Y-16252460D02*
X10369960Y-16261984D01*
X10369960Y-16261984D02*
X10350913Y-16261984D01*
X10350913Y-16261984D02*
X10331865Y-16252460D01*
X10331865Y-16252460D02*
X10322341Y-16242936D01*
X10322341Y-16242936D02*
X10312817Y-16223888D01*
X10312817Y-16223888D02*
X10303294Y-16185793D01*
X10303294Y-16185793D02*
X10303294Y-16138174D01*
X10303294Y-16138174D02*
X10312817Y-16100079D01*
X10312817Y-16100079D02*
X10322341Y-16081031D01*
X10322341Y-16081031D02*
X10331865Y-16071508D01*
X10331865Y-16071508D02*
X10350913Y-16061984D01*
X10503294Y-16242936D02*
X10512817Y-16252460D01*
X10512817Y-16252460D02*
X10503294Y-16261984D01*
X10503294Y-16261984D02*
X10493770Y-16252460D01*
X10493770Y-16252460D02*
X10503294Y-16242936D01*
X10503294Y-16242936D02*
X10503294Y-16261984D01*
X10608056Y-16261984D02*
X10646151Y-16261984D01*
X10646151Y-16261984D02*
X10665198Y-16252460D01*
X10665198Y-16252460D02*
X10674722Y-16242936D01*
X10674722Y-16242936D02*
X10693770Y-16214365D01*
X10693770Y-16214365D02*
X10703294Y-16176269D01*
X10703294Y-16176269D02*
X10703294Y-16100079D01*
X10703294Y-16100079D02*
X10693770Y-16081031D01*
X10693770Y-16081031D02*
X10684246Y-16071508D01*
X10684246Y-16071508D02*
X10665198Y-16061984D01*
X10665198Y-16061984D02*
X10627103Y-16061984D01*
X10627103Y-16061984D02*
X10608056Y-16071508D01*
X10608056Y-16071508D02*
X10598532Y-16081031D01*
X10598532Y-16081031D02*
X10589008Y-16100079D01*
X10589008Y-16100079D02*
X10589008Y-16147698D01*
X10589008Y-16147698D02*
X10598532Y-16166746D01*
X10598532Y-16166746D02*
X10608056Y-16176269D01*
X10608056Y-16176269D02*
X10627103Y-16185793D01*
X10627103Y-16185793D02*
X10665198Y-16185793D01*
X10665198Y-16185793D02*
X10684246Y-16176269D01*
X10684246Y-16176269D02*
X10693770Y-16166746D01*
X10693770Y-16166746D02*
X10703294Y-16147698D01*
X10827103Y-16061984D02*
X10846151Y-16061984D01*
X10846151Y-16061984D02*
X10865198Y-16071508D01*
X10865198Y-16071508D02*
X10874722Y-16081031D01*
X10874722Y-16081031D02*
X10884246Y-16100079D01*
X10884246Y-16100079D02*
X10893770Y-16138174D01*
X10893770Y-16138174D02*
X10893770Y-16185793D01*
X10893770Y-16185793D02*
X10884246Y-16223888D01*
X10884246Y-16223888D02*
X10874722Y-16242936D01*
X10874722Y-16242936D02*
X10865198Y-16252460D01*
X10865198Y-16252460D02*
X10846151Y-16261984D01*
X10846151Y-16261984D02*
X10827103Y-16261984D01*
X10827103Y-16261984D02*
X10808056Y-16252460D01*
X10808056Y-16252460D02*
X10798532Y-16242936D01*
X10798532Y-16242936D02*
X10789008Y-16223888D01*
X10789008Y-16223888D02*
X10779484Y-16185793D01*
X10779484Y-16185793D02*
X10779484Y-16138174D01*
X10779484Y-16138174D02*
X10789008Y-16100079D01*
X10789008Y-16100079D02*
X10798532Y-16081031D01*
X10798532Y-16081031D02*
X10808056Y-16071508D01*
X10808056Y-16071508D02*
X10827103Y-16061984D01*
X11017579Y-16061984D02*
X11036627Y-16061984D01*
X11036627Y-16061984D02*
X11055675Y-16071508D01*
X11055675Y-16071508D02*
X11065198Y-16081031D01*
X11065198Y-16081031D02*
X11074722Y-16100079D01*
X11074722Y-16100079D02*
X11084246Y-16138174D01*
X11084246Y-16138174D02*
X11084246Y-16185793D01*
X11084246Y-16185793D02*
X11074722Y-16223888D01*
X11074722Y-16223888D02*
X11065198Y-16242936D01*
X11065198Y-16242936D02*
X11055675Y-16252460D01*
X11055675Y-16252460D02*
X11036627Y-16261984D01*
X11036627Y-16261984D02*
X11017579Y-16261984D01*
X11017579Y-16261984D02*
X10998532Y-16252460D01*
X10998532Y-16252460D02*
X10989008Y-16242936D01*
X10989008Y-16242936D02*
X10979484Y-16223888D01*
X10979484Y-16223888D02*
X10969960Y-16185793D01*
X10969960Y-16185793D02*
X10969960Y-16138174D01*
X10969960Y-16138174D02*
X10979484Y-16100079D01*
X10979484Y-16100079D02*
X10989008Y-16081031D01*
X10989008Y-16081031D02*
X10998532Y-16071508D01*
X10998532Y-16071508D02*
X11017579Y-16061984D01*
X11169960Y-16261984D02*
X11169960Y-16128650D01*
X11169960Y-16147698D02*
X11179484Y-16138174D01*
X11179484Y-16138174D02*
X11198532Y-16128650D01*
X11198532Y-16128650D02*
X11227103Y-16128650D01*
X11227103Y-16128650D02*
X11246151Y-16138174D01*
X11246151Y-16138174D02*
X11255675Y-16157222D01*
X11255675Y-16157222D02*
X11255675Y-16261984D01*
X11255675Y-16157222D02*
X11265198Y-16138174D01*
X11265198Y-16138174D02*
X11284246Y-16128650D01*
X11284246Y-16128650D02*
X11312817Y-16128650D01*
X11312817Y-16128650D02*
X11331865Y-16138174D01*
X11331865Y-16138174D02*
X11341389Y-16157222D01*
X11341389Y-16157222D02*
X11341389Y-16261984D01*
X11436627Y-16261984D02*
X11436627Y-16128650D01*
X11436627Y-16147698D02*
X11446151Y-16138174D01*
X11446151Y-16138174D02*
X11465198Y-16128650D01*
X11465198Y-16128650D02*
X11493770Y-16128650D01*
X11493770Y-16128650D02*
X11512817Y-16138174D01*
X11512817Y-16138174D02*
X11522341Y-16157222D01*
X11522341Y-16157222D02*
X11522341Y-16261984D01*
X11522341Y-16157222D02*
X11531865Y-16138174D01*
X11531865Y-16138174D02*
X11550913Y-16128650D01*
X11550913Y-16128650D02*
X11579484Y-16128650D01*
X11579484Y-16128650D02*
X11598532Y-16138174D01*
X11598532Y-16138174D02*
X11608056Y-16157222D01*
X11608056Y-16157222D02*
X11608056Y-16261984D01*
X11998532Y-16052460D02*
X11827103Y-16309603D01*
X12255675Y-16061984D02*
X12274722Y-16061984D01*
X12274722Y-16061984D02*
X12293770Y-16071508D01*
X12293770Y-16071508D02*
X12303294Y-16081031D01*
X12303294Y-16081031D02*
X12312818Y-16100079D01*
X12312818Y-16100079D02*
X12322341Y-16138174D01*
X12322341Y-16138174D02*
X12322341Y-16185793D01*
X12322341Y-16185793D02*
X12312818Y-16223888D01*
X12312818Y-16223888D02*
X12303294Y-16242936D01*
X12303294Y-16242936D02*
X12293770Y-16252460D01*
X12293770Y-16252460D02*
X12274722Y-16261984D01*
X12274722Y-16261984D02*
X12255675Y-16261984D01*
X12255675Y-16261984D02*
X12236627Y-16252460D01*
X12236627Y-16252460D02*
X12227103Y-16242936D01*
X12227103Y-16242936D02*
X12217579Y-16223888D01*
X12217579Y-16223888D02*
X12208056Y-16185793D01*
X12208056Y-16185793D02*
X12208056Y-16138174D01*
X12208056Y-16138174D02*
X12217579Y-16100079D01*
X12217579Y-16100079D02*
X12227103Y-16081031D01*
X12227103Y-16081031D02*
X12236627Y-16071508D01*
X12236627Y-16071508D02*
X12255675Y-16061984D01*
X12408056Y-16242936D02*
X12417579Y-16252460D01*
X12417579Y-16252460D02*
X12408056Y-16261984D01*
X12408056Y-16261984D02*
X12398532Y-16252460D01*
X12398532Y-16252460D02*
X12408056Y-16242936D01*
X12408056Y-16242936D02*
X12408056Y-16261984D01*
X12541389Y-16061984D02*
X12560437Y-16061984D01*
X12560437Y-16061984D02*
X12579484Y-16071508D01*
X12579484Y-16071508D02*
X12589008Y-16081031D01*
X12589008Y-16081031D02*
X12598532Y-16100079D01*
X12598532Y-16100079D02*
X12608056Y-16138174D01*
X12608056Y-16138174D02*
X12608056Y-16185793D01*
X12608056Y-16185793D02*
X12598532Y-16223888D01*
X12598532Y-16223888D02*
X12589008Y-16242936D01*
X12589008Y-16242936D02*
X12579484Y-16252460D01*
X12579484Y-16252460D02*
X12560437Y-16261984D01*
X12560437Y-16261984D02*
X12541389Y-16261984D01*
X12541389Y-16261984D02*
X12522341Y-16252460D01*
X12522341Y-16252460D02*
X12512818Y-16242936D01*
X12512818Y-16242936D02*
X12503294Y-16223888D01*
X12503294Y-16223888D02*
X12493770Y-16185793D01*
X12493770Y-16185793D02*
X12493770Y-16138174D01*
X12493770Y-16138174D02*
X12503294Y-16100079D01*
X12503294Y-16100079D02*
X12512818Y-16081031D01*
X12512818Y-16081031D02*
X12522341Y-16071508D01*
X12522341Y-16071508D02*
X12541389Y-16061984D01*
X12674722Y-16061984D02*
X12798532Y-16061984D01*
X12798532Y-16061984D02*
X12731865Y-16138174D01*
X12731865Y-16138174D02*
X12760437Y-16138174D01*
X12760437Y-16138174D02*
X12779484Y-16147698D01*
X12779484Y-16147698D02*
X12789008Y-16157222D01*
X12789008Y-16157222D02*
X12798532Y-16176269D01*
X12798532Y-16176269D02*
X12798532Y-16223888D01*
X12798532Y-16223888D02*
X12789008Y-16242936D01*
X12789008Y-16242936D02*
X12779484Y-16252460D01*
X12779484Y-16252460D02*
X12760437Y-16261984D01*
X12760437Y-16261984D02*
X12703294Y-16261984D01*
X12703294Y-16261984D02*
X12684246Y-16252460D01*
X12684246Y-16252460D02*
X12674722Y-16242936D01*
X12979484Y-16061984D02*
X12884246Y-16061984D01*
X12884246Y-16061984D02*
X12874722Y-16157222D01*
X12874722Y-16157222D02*
X12884246Y-16147698D01*
X12884246Y-16147698D02*
X12903294Y-16138174D01*
X12903294Y-16138174D02*
X12950913Y-16138174D01*
X12950913Y-16138174D02*
X12969960Y-16147698D01*
X12969960Y-16147698D02*
X12979484Y-16157222D01*
X12979484Y-16157222D02*
X12989008Y-16176269D01*
X12989008Y-16176269D02*
X12989008Y-16223888D01*
X12989008Y-16223888D02*
X12979484Y-16242936D01*
X12979484Y-16242936D02*
X12969960Y-16252460D01*
X12969960Y-16252460D02*
X12950913Y-16261984D01*
X12950913Y-16261984D02*
X12903294Y-16261984D01*
X12903294Y-16261984D02*
X12884246Y-16252460D01*
X12884246Y-16252460D02*
X12874722Y-16242936D01*
X13160437Y-16128650D02*
X13160437Y-16261984D01*
X13112818Y-16052460D02*
X13065199Y-16195317D01*
X13065199Y-16195317D02*
X13189008Y-16195317D01*
X13255675Y-16061984D02*
X13255675Y-16100079D01*
X13331865Y-16061984D02*
X13331865Y-16100079D01*
X13627103Y-16338174D02*
X13617580Y-16328650D01*
X13617580Y-16328650D02*
X13598532Y-16300079D01*
X13598532Y-16300079D02*
X13589008Y-16281031D01*
X13589008Y-16281031D02*
X13579484Y-16252460D01*
X13579484Y-16252460D02*
X13569961Y-16204841D01*
X13569961Y-16204841D02*
X13569961Y-16166746D01*
X13569961Y-16166746D02*
X13579484Y-16119127D01*
X13579484Y-16119127D02*
X13589008Y-16090555D01*
X13589008Y-16090555D02*
X13598532Y-16071508D01*
X13598532Y-16071508D02*
X13617580Y-16042936D01*
X13617580Y-16042936D02*
X13627103Y-16033412D01*
X13693770Y-16081031D02*
X13703294Y-16071508D01*
X13703294Y-16071508D02*
X13722341Y-16061984D01*
X13722341Y-16061984D02*
X13769961Y-16061984D01*
X13769961Y-16061984D02*
X13789008Y-16071508D01*
X13789008Y-16071508D02*
X13798532Y-16081031D01*
X13798532Y-16081031D02*
X13808056Y-16100079D01*
X13808056Y-16100079D02*
X13808056Y-16119127D01*
X13808056Y-16119127D02*
X13798532Y-16147698D01*
X13798532Y-16147698D02*
X13684246Y-16261984D01*
X13684246Y-16261984D02*
X13808056Y-16261984D01*
X14046151Y-16261984D02*
X14046151Y-16061984D01*
X14131865Y-16261984D02*
X14131865Y-16157222D01*
X14131865Y-16157222D02*
X14122342Y-16138174D01*
X14122342Y-16138174D02*
X14103294Y-16128650D01*
X14103294Y-16128650D02*
X14074722Y-16128650D01*
X14074722Y-16128650D02*
X14055675Y-16138174D01*
X14055675Y-16138174D02*
X14046151Y-16147698D01*
X14255675Y-16261984D02*
X14236627Y-16252460D01*
X14236627Y-16252460D02*
X14227103Y-16242936D01*
X14227103Y-16242936D02*
X14217580Y-16223888D01*
X14217580Y-16223888D02*
X14217580Y-16166746D01*
X14217580Y-16166746D02*
X14227103Y-16147698D01*
X14227103Y-16147698D02*
X14236627Y-16138174D01*
X14236627Y-16138174D02*
X14255675Y-16128650D01*
X14255675Y-16128650D02*
X14284246Y-16128650D01*
X14284246Y-16128650D02*
X14303294Y-16138174D01*
X14303294Y-16138174D02*
X14312818Y-16147698D01*
X14312818Y-16147698D02*
X14322342Y-16166746D01*
X14322342Y-16166746D02*
X14322342Y-16223888D01*
X14322342Y-16223888D02*
X14312818Y-16242936D01*
X14312818Y-16242936D02*
X14303294Y-16252460D01*
X14303294Y-16252460D02*
X14284246Y-16261984D01*
X14284246Y-16261984D02*
X14255675Y-16261984D01*
X14436627Y-16261984D02*
X14417580Y-16252460D01*
X14417580Y-16252460D02*
X14408056Y-16233412D01*
X14408056Y-16233412D02*
X14408056Y-16061984D01*
X14589008Y-16252460D02*
X14569961Y-16261984D01*
X14569961Y-16261984D02*
X14531865Y-16261984D01*
X14531865Y-16261984D02*
X14512818Y-16252460D01*
X14512818Y-16252460D02*
X14503294Y-16233412D01*
X14503294Y-16233412D02*
X14503294Y-16157222D01*
X14503294Y-16157222D02*
X14512818Y-16138174D01*
X14512818Y-16138174D02*
X14531865Y-16128650D01*
X14531865Y-16128650D02*
X14569961Y-16128650D01*
X14569961Y-16128650D02*
X14589008Y-16138174D01*
X14589008Y-16138174D02*
X14598532Y-16157222D01*
X14598532Y-16157222D02*
X14598532Y-16176269D01*
X14598532Y-16176269D02*
X14503294Y-16195317D01*
X14674723Y-16252460D02*
X14693770Y-16261984D01*
X14693770Y-16261984D02*
X14731865Y-16261984D01*
X14731865Y-16261984D02*
X14750913Y-16252460D01*
X14750913Y-16252460D02*
X14760437Y-16233412D01*
X14760437Y-16233412D02*
X14760437Y-16223888D01*
X14760437Y-16223888D02*
X14750913Y-16204841D01*
X14750913Y-16204841D02*
X14731865Y-16195317D01*
X14731865Y-16195317D02*
X14703294Y-16195317D01*
X14703294Y-16195317D02*
X14684246Y-16185793D01*
X14684246Y-16185793D02*
X14674723Y-16166746D01*
X14674723Y-16166746D02*
X14674723Y-16157222D01*
X14674723Y-16157222D02*
X14684246Y-16138174D01*
X14684246Y-16138174D02*
X14703294Y-16128650D01*
X14703294Y-16128650D02*
X14731865Y-16128650D01*
X14731865Y-16128650D02*
X14750913Y-16138174D01*
X14827104Y-16338174D02*
X14836627Y-16328650D01*
X14836627Y-16328650D02*
X14855675Y-16300079D01*
X14855675Y-16300079D02*
X14865199Y-16281031D01*
X14865199Y-16281031D02*
X14874723Y-16252460D01*
X14874723Y-16252460D02*
X14884246Y-16204841D01*
X14884246Y-16204841D02*
X14884246Y-16166746D01*
X14884246Y-16166746D02*
X14874723Y-16119127D01*
X14874723Y-16119127D02*
X14865199Y-16090555D01*
X14865199Y-16090555D02*
X14855675Y-16071508D01*
X14855675Y-16071508D02*
X14836627Y-16042936D01*
X14836627Y-16042936D02*
X14827104Y-16033412D01*
D12*
X10037396Y-16469856D02*
X10037396Y-16399144D01*
X9966685Y-16399144D01*
X9966685Y-16469856D01*
X10037396Y-16469856D01*
D11*
X10417579Y-16525984D02*
X10303294Y-16525984D01*
X10360436Y-16525984D02*
X10360436Y-16325984D01*
X10360436Y-16325984D02*
X10341389Y-16354555D01*
X10341389Y-16354555D02*
X10322341Y-16373603D01*
X10322341Y-16373603D02*
X10303294Y-16383127D01*
X10503294Y-16506936D02*
X10512817Y-16516460D01*
X10512817Y-16516460D02*
X10503294Y-16525984D01*
X10503294Y-16525984D02*
X10493770Y-16516460D01*
X10493770Y-16516460D02*
X10503294Y-16506936D01*
X10503294Y-16506936D02*
X10503294Y-16525984D01*
X10636627Y-16325984D02*
X10655675Y-16325984D01*
X10655675Y-16325984D02*
X10674722Y-16335508D01*
X10674722Y-16335508D02*
X10684246Y-16345031D01*
X10684246Y-16345031D02*
X10693770Y-16364079D01*
X10693770Y-16364079D02*
X10703294Y-16402174D01*
X10703294Y-16402174D02*
X10703294Y-16449793D01*
X10703294Y-16449793D02*
X10693770Y-16487888D01*
X10693770Y-16487888D02*
X10684246Y-16506936D01*
X10684246Y-16506936D02*
X10674722Y-16516460D01*
X10674722Y-16516460D02*
X10655675Y-16525984D01*
X10655675Y-16525984D02*
X10636627Y-16525984D01*
X10636627Y-16525984D02*
X10617579Y-16516460D01*
X10617579Y-16516460D02*
X10608056Y-16506936D01*
X10608056Y-16506936D02*
X10598532Y-16487888D01*
X10598532Y-16487888D02*
X10589008Y-16449793D01*
X10589008Y-16449793D02*
X10589008Y-16402174D01*
X10589008Y-16402174D02*
X10598532Y-16364079D01*
X10598532Y-16364079D02*
X10608056Y-16345031D01*
X10608056Y-16345031D02*
X10617579Y-16335508D01*
X10617579Y-16335508D02*
X10636627Y-16325984D01*
X10827103Y-16325984D02*
X10846151Y-16325984D01*
X10846151Y-16325984D02*
X10865198Y-16335508D01*
X10865198Y-16335508D02*
X10874722Y-16345031D01*
X10874722Y-16345031D02*
X10884246Y-16364079D01*
X10884246Y-16364079D02*
X10893770Y-16402174D01*
X10893770Y-16402174D02*
X10893770Y-16449793D01*
X10893770Y-16449793D02*
X10884246Y-16487888D01*
X10884246Y-16487888D02*
X10874722Y-16506936D01*
X10874722Y-16506936D02*
X10865198Y-16516460D01*
X10865198Y-16516460D02*
X10846151Y-16525984D01*
X10846151Y-16525984D02*
X10827103Y-16525984D01*
X10827103Y-16525984D02*
X10808056Y-16516460D01*
X10808056Y-16516460D02*
X10798532Y-16506936D01*
X10798532Y-16506936D02*
X10789008Y-16487888D01*
X10789008Y-16487888D02*
X10779484Y-16449793D01*
X10779484Y-16449793D02*
X10779484Y-16402174D01*
X10779484Y-16402174D02*
X10789008Y-16364079D01*
X10789008Y-16364079D02*
X10798532Y-16345031D01*
X10798532Y-16345031D02*
X10808056Y-16335508D01*
X10808056Y-16335508D02*
X10827103Y-16325984D01*
X11017579Y-16325984D02*
X11036627Y-16325984D01*
X11036627Y-16325984D02*
X11055675Y-16335508D01*
X11055675Y-16335508D02*
X11065198Y-16345031D01*
X11065198Y-16345031D02*
X11074722Y-16364079D01*
X11074722Y-16364079D02*
X11084246Y-16402174D01*
X11084246Y-16402174D02*
X11084246Y-16449793D01*
X11084246Y-16449793D02*
X11074722Y-16487888D01*
X11074722Y-16487888D02*
X11065198Y-16506936D01*
X11065198Y-16506936D02*
X11055675Y-16516460D01*
X11055675Y-16516460D02*
X11036627Y-16525984D01*
X11036627Y-16525984D02*
X11017579Y-16525984D01*
X11017579Y-16525984D02*
X10998532Y-16516460D01*
X10998532Y-16516460D02*
X10989008Y-16506936D01*
X10989008Y-16506936D02*
X10979484Y-16487888D01*
X10979484Y-16487888D02*
X10969960Y-16449793D01*
X10969960Y-16449793D02*
X10969960Y-16402174D01*
X10969960Y-16402174D02*
X10979484Y-16364079D01*
X10979484Y-16364079D02*
X10989008Y-16345031D01*
X10989008Y-16345031D02*
X10998532Y-16335508D01*
X10998532Y-16335508D02*
X11017579Y-16325984D01*
X11169960Y-16525984D02*
X11169960Y-16392650D01*
X11169960Y-16411698D02*
X11179484Y-16402174D01*
X11179484Y-16402174D02*
X11198532Y-16392650D01*
X11198532Y-16392650D02*
X11227103Y-16392650D01*
X11227103Y-16392650D02*
X11246151Y-16402174D01*
X11246151Y-16402174D02*
X11255675Y-16421222D01*
X11255675Y-16421222D02*
X11255675Y-16525984D01*
X11255675Y-16421222D02*
X11265198Y-16402174D01*
X11265198Y-16402174D02*
X11284246Y-16392650D01*
X11284246Y-16392650D02*
X11312817Y-16392650D01*
X11312817Y-16392650D02*
X11331865Y-16402174D01*
X11331865Y-16402174D02*
X11341389Y-16421222D01*
X11341389Y-16421222D02*
X11341389Y-16525984D01*
X11436627Y-16525984D02*
X11436627Y-16392650D01*
X11436627Y-16411698D02*
X11446151Y-16402174D01*
X11446151Y-16402174D02*
X11465198Y-16392650D01*
X11465198Y-16392650D02*
X11493770Y-16392650D01*
X11493770Y-16392650D02*
X11512817Y-16402174D01*
X11512817Y-16402174D02*
X11522341Y-16421222D01*
X11522341Y-16421222D02*
X11522341Y-16525984D01*
X11522341Y-16421222D02*
X11531865Y-16402174D01*
X11531865Y-16402174D02*
X11550913Y-16392650D01*
X11550913Y-16392650D02*
X11579484Y-16392650D01*
X11579484Y-16392650D02*
X11598532Y-16402174D01*
X11598532Y-16402174D02*
X11608056Y-16421222D01*
X11608056Y-16421222D02*
X11608056Y-16525984D01*
X11998532Y-16316460D02*
X11827103Y-16573603D01*
X12255675Y-16325984D02*
X12274722Y-16325984D01*
X12274722Y-16325984D02*
X12293770Y-16335508D01*
X12293770Y-16335508D02*
X12303294Y-16345031D01*
X12303294Y-16345031D02*
X12312818Y-16364079D01*
X12312818Y-16364079D02*
X12322341Y-16402174D01*
X12322341Y-16402174D02*
X12322341Y-16449793D01*
X12322341Y-16449793D02*
X12312818Y-16487888D01*
X12312818Y-16487888D02*
X12303294Y-16506936D01*
X12303294Y-16506936D02*
X12293770Y-16516460D01*
X12293770Y-16516460D02*
X12274722Y-16525984D01*
X12274722Y-16525984D02*
X12255675Y-16525984D01*
X12255675Y-16525984D02*
X12236627Y-16516460D01*
X12236627Y-16516460D02*
X12227103Y-16506936D01*
X12227103Y-16506936D02*
X12217579Y-16487888D01*
X12217579Y-16487888D02*
X12208056Y-16449793D01*
X12208056Y-16449793D02*
X12208056Y-16402174D01*
X12208056Y-16402174D02*
X12217579Y-16364079D01*
X12217579Y-16364079D02*
X12227103Y-16345031D01*
X12227103Y-16345031D02*
X12236627Y-16335508D01*
X12236627Y-16335508D02*
X12255675Y-16325984D01*
X12408056Y-16506936D02*
X12417579Y-16516460D01*
X12417579Y-16516460D02*
X12408056Y-16525984D01*
X12408056Y-16525984D02*
X12398532Y-16516460D01*
X12398532Y-16516460D02*
X12408056Y-16506936D01*
X12408056Y-16506936D02*
X12408056Y-16525984D01*
X12541389Y-16325984D02*
X12560437Y-16325984D01*
X12560437Y-16325984D02*
X12579484Y-16335508D01*
X12579484Y-16335508D02*
X12589008Y-16345031D01*
X12589008Y-16345031D02*
X12598532Y-16364079D01*
X12598532Y-16364079D02*
X12608056Y-16402174D01*
X12608056Y-16402174D02*
X12608056Y-16449793D01*
X12608056Y-16449793D02*
X12598532Y-16487888D01*
X12598532Y-16487888D02*
X12589008Y-16506936D01*
X12589008Y-16506936D02*
X12579484Y-16516460D01*
X12579484Y-16516460D02*
X12560437Y-16525984D01*
X12560437Y-16525984D02*
X12541389Y-16525984D01*
X12541389Y-16525984D02*
X12522341Y-16516460D01*
X12522341Y-16516460D02*
X12512818Y-16506936D01*
X12512818Y-16506936D02*
X12503294Y-16487888D01*
X12503294Y-16487888D02*
X12493770Y-16449793D01*
X12493770Y-16449793D02*
X12493770Y-16402174D01*
X12493770Y-16402174D02*
X12503294Y-16364079D01*
X12503294Y-16364079D02*
X12512818Y-16345031D01*
X12512818Y-16345031D02*
X12522341Y-16335508D01*
X12522341Y-16335508D02*
X12541389Y-16325984D01*
X12674722Y-16325984D02*
X12798532Y-16325984D01*
X12798532Y-16325984D02*
X12731865Y-16402174D01*
X12731865Y-16402174D02*
X12760437Y-16402174D01*
X12760437Y-16402174D02*
X12779484Y-16411698D01*
X12779484Y-16411698D02*
X12789008Y-16421222D01*
X12789008Y-16421222D02*
X12798532Y-16440269D01*
X12798532Y-16440269D02*
X12798532Y-16487888D01*
X12798532Y-16487888D02*
X12789008Y-16506936D01*
X12789008Y-16506936D02*
X12779484Y-16516460D01*
X12779484Y-16516460D02*
X12760437Y-16525984D01*
X12760437Y-16525984D02*
X12703294Y-16525984D01*
X12703294Y-16525984D02*
X12684246Y-16516460D01*
X12684246Y-16516460D02*
X12674722Y-16506936D01*
X12893770Y-16525984D02*
X12931865Y-16525984D01*
X12931865Y-16525984D02*
X12950913Y-16516460D01*
X12950913Y-16516460D02*
X12960437Y-16506936D01*
X12960437Y-16506936D02*
X12979484Y-16478365D01*
X12979484Y-16478365D02*
X12989008Y-16440269D01*
X12989008Y-16440269D02*
X12989008Y-16364079D01*
X12989008Y-16364079D02*
X12979484Y-16345031D01*
X12979484Y-16345031D02*
X12969960Y-16335508D01*
X12969960Y-16335508D02*
X12950913Y-16325984D01*
X12950913Y-16325984D02*
X12912818Y-16325984D01*
X12912818Y-16325984D02*
X12893770Y-16335508D01*
X12893770Y-16335508D02*
X12884246Y-16345031D01*
X12884246Y-16345031D02*
X12874722Y-16364079D01*
X12874722Y-16364079D02*
X12874722Y-16411698D01*
X12874722Y-16411698D02*
X12884246Y-16430746D01*
X12884246Y-16430746D02*
X12893770Y-16440269D01*
X12893770Y-16440269D02*
X12912818Y-16449793D01*
X12912818Y-16449793D02*
X12950913Y-16449793D01*
X12950913Y-16449793D02*
X12969960Y-16440269D01*
X12969960Y-16440269D02*
X12979484Y-16430746D01*
X12979484Y-16430746D02*
X12989008Y-16411698D01*
X13160437Y-16392650D02*
X13160437Y-16525984D01*
X13112818Y-16316460D02*
X13065199Y-16459317D01*
X13065199Y-16459317D02*
X13189008Y-16459317D01*
X13255675Y-16325984D02*
X13255675Y-16364079D01*
X13331865Y-16325984D02*
X13331865Y-16364079D01*
X13627103Y-16602174D02*
X13617580Y-16592650D01*
X13617580Y-16592650D02*
X13598532Y-16564079D01*
X13598532Y-16564079D02*
X13589008Y-16545031D01*
X13589008Y-16545031D02*
X13579484Y-16516460D01*
X13579484Y-16516460D02*
X13569961Y-16468841D01*
X13569961Y-16468841D02*
X13569961Y-16430746D01*
X13569961Y-16430746D02*
X13579484Y-16383127D01*
X13579484Y-16383127D02*
X13589008Y-16354555D01*
X13589008Y-16354555D02*
X13598532Y-16335508D01*
X13598532Y-16335508D02*
X13617580Y-16306936D01*
X13617580Y-16306936D02*
X13627103Y-16297412D01*
X13684246Y-16325984D02*
X13808056Y-16325984D01*
X13808056Y-16325984D02*
X13741389Y-16402174D01*
X13741389Y-16402174D02*
X13769961Y-16402174D01*
X13769961Y-16402174D02*
X13789008Y-16411698D01*
X13789008Y-16411698D02*
X13798532Y-16421222D01*
X13798532Y-16421222D02*
X13808056Y-16440269D01*
X13808056Y-16440269D02*
X13808056Y-16487888D01*
X13808056Y-16487888D02*
X13798532Y-16506936D01*
X13798532Y-16506936D02*
X13789008Y-16516460D01*
X13789008Y-16516460D02*
X13769961Y-16525984D01*
X13769961Y-16525984D02*
X13712818Y-16525984D01*
X13712818Y-16525984D02*
X13693770Y-16516460D01*
X13693770Y-16516460D02*
X13684246Y-16506936D01*
X14046151Y-16525984D02*
X14046151Y-16325984D01*
X14131865Y-16525984D02*
X14131865Y-16421222D01*
X14131865Y-16421222D02*
X14122342Y-16402174D01*
X14122342Y-16402174D02*
X14103294Y-16392650D01*
X14103294Y-16392650D02*
X14074722Y-16392650D01*
X14074722Y-16392650D02*
X14055675Y-16402174D01*
X14055675Y-16402174D02*
X14046151Y-16411698D01*
X14255675Y-16525984D02*
X14236627Y-16516460D01*
X14236627Y-16516460D02*
X14227103Y-16506936D01*
X14227103Y-16506936D02*
X14217580Y-16487888D01*
X14217580Y-16487888D02*
X14217580Y-16430746D01*
X14217580Y-16430746D02*
X14227103Y-16411698D01*
X14227103Y-16411698D02*
X14236627Y-16402174D01*
X14236627Y-16402174D02*
X14255675Y-16392650D01*
X14255675Y-16392650D02*
X14284246Y-16392650D01*
X14284246Y-16392650D02*
X14303294Y-16402174D01*
X14303294Y-16402174D02*
X14312818Y-16411698D01*
X14312818Y-16411698D02*
X14322342Y-16430746D01*
X14322342Y-16430746D02*
X14322342Y-16487888D01*
X14322342Y-16487888D02*
X14312818Y-16506936D01*
X14312818Y-16506936D02*
X14303294Y-16516460D01*
X14303294Y-16516460D02*
X14284246Y-16525984D01*
X14284246Y-16525984D02*
X14255675Y-16525984D01*
X14436627Y-16525984D02*
X14417580Y-16516460D01*
X14417580Y-16516460D02*
X14408056Y-16497412D01*
X14408056Y-16497412D02*
X14408056Y-16325984D01*
X14589008Y-16516460D02*
X14569961Y-16525984D01*
X14569961Y-16525984D02*
X14531865Y-16525984D01*
X14531865Y-16525984D02*
X14512818Y-16516460D01*
X14512818Y-16516460D02*
X14503294Y-16497412D01*
X14503294Y-16497412D02*
X14503294Y-16421222D01*
X14503294Y-16421222D02*
X14512818Y-16402174D01*
X14512818Y-16402174D02*
X14531865Y-16392650D01*
X14531865Y-16392650D02*
X14569961Y-16392650D01*
X14569961Y-16392650D02*
X14589008Y-16402174D01*
X14589008Y-16402174D02*
X14598532Y-16421222D01*
X14598532Y-16421222D02*
X14598532Y-16440269D01*
X14598532Y-16440269D02*
X14503294Y-16459317D01*
X14674723Y-16516460D02*
X14693770Y-16525984D01*
X14693770Y-16525984D02*
X14731865Y-16525984D01*
X14731865Y-16525984D02*
X14750913Y-16516460D01*
X14750913Y-16516460D02*
X14760437Y-16497412D01*
X14760437Y-16497412D02*
X14760437Y-16487888D01*
X14760437Y-16487888D02*
X14750913Y-16468841D01*
X14750913Y-16468841D02*
X14731865Y-16459317D01*
X14731865Y-16459317D02*
X14703294Y-16459317D01*
X14703294Y-16459317D02*
X14684246Y-16449793D01*
X14684246Y-16449793D02*
X14674723Y-16430746D01*
X14674723Y-16430746D02*
X14674723Y-16421222D01*
X14674723Y-16421222D02*
X14684246Y-16402174D01*
X14684246Y-16402174D02*
X14703294Y-16392650D01*
X14703294Y-16392650D02*
X14731865Y-16392650D01*
X14731865Y-16392650D02*
X14750913Y-16402174D01*
X14827104Y-16602174D02*
X14836627Y-16592650D01*
X14836627Y-16592650D02*
X14855675Y-16564079D01*
X14855675Y-16564079D02*
X14865199Y-16545031D01*
X14865199Y-16545031D02*
X14874723Y-16516460D01*
X14874723Y-16516460D02*
X14884246Y-16468841D01*
X14884246Y-16468841D02*
X14884246Y-16430746D01*
X14884246Y-16430746D02*
X14874723Y-16383127D01*
X14874723Y-16383127D02*
X14865199Y-16354555D01*
X14865199Y-16354555D02*
X14855675Y-16335508D01*
X14855675Y-16335508D02*
X14836627Y-16306936D01*
X14836627Y-16306936D02*
X14827104Y-16297412D01*
D13*
X10001041Y-16749500D02*
X10052041Y-16698500D01*
X10001041Y-16647500D01*
X9950041Y-16698500D01*
X10001041Y-16749500D01*
D11*
X10417579Y-16789984D02*
X10303294Y-16789984D01*
X10360436Y-16789984D02*
X10360436Y-16589984D01*
X10360436Y-16589984D02*
X10341389Y-16618555D01*
X10341389Y-16618555D02*
X10322341Y-16637603D01*
X10322341Y-16637603D02*
X10303294Y-16647127D01*
X10503294Y-16770936D02*
X10512817Y-16780460D01*
X10512817Y-16780460D02*
X10503294Y-16789984D01*
X10503294Y-16789984D02*
X10493770Y-16780460D01*
X10493770Y-16780460D02*
X10503294Y-16770936D01*
X10503294Y-16770936D02*
X10503294Y-16789984D01*
X10636627Y-16589984D02*
X10655675Y-16589984D01*
X10655675Y-16589984D02*
X10674722Y-16599508D01*
X10674722Y-16599508D02*
X10684246Y-16609031D01*
X10684246Y-16609031D02*
X10693770Y-16628079D01*
X10693770Y-16628079D02*
X10703294Y-16666174D01*
X10703294Y-16666174D02*
X10703294Y-16713793D01*
X10703294Y-16713793D02*
X10693770Y-16751888D01*
X10693770Y-16751888D02*
X10684246Y-16770936D01*
X10684246Y-16770936D02*
X10674722Y-16780460D01*
X10674722Y-16780460D02*
X10655675Y-16789984D01*
X10655675Y-16789984D02*
X10636627Y-16789984D01*
X10636627Y-16789984D02*
X10617579Y-16780460D01*
X10617579Y-16780460D02*
X10608056Y-16770936D01*
X10608056Y-16770936D02*
X10598532Y-16751888D01*
X10598532Y-16751888D02*
X10589008Y-16713793D01*
X10589008Y-16713793D02*
X10589008Y-16666174D01*
X10589008Y-16666174D02*
X10598532Y-16628079D01*
X10598532Y-16628079D02*
X10608056Y-16609031D01*
X10608056Y-16609031D02*
X10617579Y-16599508D01*
X10617579Y-16599508D02*
X10636627Y-16589984D01*
X10779484Y-16609031D02*
X10789008Y-16599508D01*
X10789008Y-16599508D02*
X10808056Y-16589984D01*
X10808056Y-16589984D02*
X10855675Y-16589984D01*
X10855675Y-16589984D02*
X10874722Y-16599508D01*
X10874722Y-16599508D02*
X10884246Y-16609031D01*
X10884246Y-16609031D02*
X10893770Y-16628079D01*
X10893770Y-16628079D02*
X10893770Y-16647127D01*
X10893770Y-16647127D02*
X10884246Y-16675698D01*
X10884246Y-16675698D02*
X10769960Y-16789984D01*
X10769960Y-16789984D02*
X10893770Y-16789984D01*
X11017579Y-16589984D02*
X11036627Y-16589984D01*
X11036627Y-16589984D02*
X11055675Y-16599508D01*
X11055675Y-16599508D02*
X11065198Y-16609031D01*
X11065198Y-16609031D02*
X11074722Y-16628079D01*
X11074722Y-16628079D02*
X11084246Y-16666174D01*
X11084246Y-16666174D02*
X11084246Y-16713793D01*
X11084246Y-16713793D02*
X11074722Y-16751888D01*
X11074722Y-16751888D02*
X11065198Y-16770936D01*
X11065198Y-16770936D02*
X11055675Y-16780460D01*
X11055675Y-16780460D02*
X11036627Y-16789984D01*
X11036627Y-16789984D02*
X11017579Y-16789984D01*
X11017579Y-16789984D02*
X10998532Y-16780460D01*
X10998532Y-16780460D02*
X10989008Y-16770936D01*
X10989008Y-16770936D02*
X10979484Y-16751888D01*
X10979484Y-16751888D02*
X10969960Y-16713793D01*
X10969960Y-16713793D02*
X10969960Y-16666174D01*
X10969960Y-16666174D02*
X10979484Y-16628079D01*
X10979484Y-16628079D02*
X10989008Y-16609031D01*
X10989008Y-16609031D02*
X10998532Y-16599508D01*
X10998532Y-16599508D02*
X11017579Y-16589984D01*
X11169960Y-16789984D02*
X11169960Y-16656650D01*
X11169960Y-16675698D02*
X11179484Y-16666174D01*
X11179484Y-16666174D02*
X11198532Y-16656650D01*
X11198532Y-16656650D02*
X11227103Y-16656650D01*
X11227103Y-16656650D02*
X11246151Y-16666174D01*
X11246151Y-16666174D02*
X11255675Y-16685222D01*
X11255675Y-16685222D02*
X11255675Y-16789984D01*
X11255675Y-16685222D02*
X11265198Y-16666174D01*
X11265198Y-16666174D02*
X11284246Y-16656650D01*
X11284246Y-16656650D02*
X11312817Y-16656650D01*
X11312817Y-16656650D02*
X11331865Y-16666174D01*
X11331865Y-16666174D02*
X11341389Y-16685222D01*
X11341389Y-16685222D02*
X11341389Y-16789984D01*
X11436627Y-16789984D02*
X11436627Y-16656650D01*
X11436627Y-16675698D02*
X11446151Y-16666174D01*
X11446151Y-16666174D02*
X11465198Y-16656650D01*
X11465198Y-16656650D02*
X11493770Y-16656650D01*
X11493770Y-16656650D02*
X11512817Y-16666174D01*
X11512817Y-16666174D02*
X11522341Y-16685222D01*
X11522341Y-16685222D02*
X11522341Y-16789984D01*
X11522341Y-16685222D02*
X11531865Y-16666174D01*
X11531865Y-16666174D02*
X11550913Y-16656650D01*
X11550913Y-16656650D02*
X11579484Y-16656650D01*
X11579484Y-16656650D02*
X11598532Y-16666174D01*
X11598532Y-16666174D02*
X11608056Y-16685222D01*
X11608056Y-16685222D02*
X11608056Y-16789984D01*
X11998532Y-16580460D02*
X11827103Y-16837603D01*
X12255675Y-16589984D02*
X12274722Y-16589984D01*
X12274722Y-16589984D02*
X12293770Y-16599508D01*
X12293770Y-16599508D02*
X12303294Y-16609031D01*
X12303294Y-16609031D02*
X12312818Y-16628079D01*
X12312818Y-16628079D02*
X12322341Y-16666174D01*
X12322341Y-16666174D02*
X12322341Y-16713793D01*
X12322341Y-16713793D02*
X12312818Y-16751888D01*
X12312818Y-16751888D02*
X12303294Y-16770936D01*
X12303294Y-16770936D02*
X12293770Y-16780460D01*
X12293770Y-16780460D02*
X12274722Y-16789984D01*
X12274722Y-16789984D02*
X12255675Y-16789984D01*
X12255675Y-16789984D02*
X12236627Y-16780460D01*
X12236627Y-16780460D02*
X12227103Y-16770936D01*
X12227103Y-16770936D02*
X12217579Y-16751888D01*
X12217579Y-16751888D02*
X12208056Y-16713793D01*
X12208056Y-16713793D02*
X12208056Y-16666174D01*
X12208056Y-16666174D02*
X12217579Y-16628079D01*
X12217579Y-16628079D02*
X12227103Y-16609031D01*
X12227103Y-16609031D02*
X12236627Y-16599508D01*
X12236627Y-16599508D02*
X12255675Y-16589984D01*
X12408056Y-16770936D02*
X12417579Y-16780460D01*
X12417579Y-16780460D02*
X12408056Y-16789984D01*
X12408056Y-16789984D02*
X12398532Y-16780460D01*
X12398532Y-16780460D02*
X12408056Y-16770936D01*
X12408056Y-16770936D02*
X12408056Y-16789984D01*
X12541389Y-16589984D02*
X12560437Y-16589984D01*
X12560437Y-16589984D02*
X12579484Y-16599508D01*
X12579484Y-16599508D02*
X12589008Y-16609031D01*
X12589008Y-16609031D02*
X12598532Y-16628079D01*
X12598532Y-16628079D02*
X12608056Y-16666174D01*
X12608056Y-16666174D02*
X12608056Y-16713793D01*
X12608056Y-16713793D02*
X12598532Y-16751888D01*
X12598532Y-16751888D02*
X12589008Y-16770936D01*
X12589008Y-16770936D02*
X12579484Y-16780460D01*
X12579484Y-16780460D02*
X12560437Y-16789984D01*
X12560437Y-16789984D02*
X12541389Y-16789984D01*
X12541389Y-16789984D02*
X12522341Y-16780460D01*
X12522341Y-16780460D02*
X12512818Y-16770936D01*
X12512818Y-16770936D02*
X12503294Y-16751888D01*
X12503294Y-16751888D02*
X12493770Y-16713793D01*
X12493770Y-16713793D02*
X12493770Y-16666174D01*
X12493770Y-16666174D02*
X12503294Y-16628079D01*
X12503294Y-16628079D02*
X12512818Y-16609031D01*
X12512818Y-16609031D02*
X12522341Y-16599508D01*
X12522341Y-16599508D02*
X12541389Y-16589984D01*
X12779484Y-16656650D02*
X12779484Y-16789984D01*
X12731865Y-16580460D02*
X12684246Y-16723317D01*
X12684246Y-16723317D02*
X12808056Y-16723317D01*
X12922341Y-16589984D02*
X12941389Y-16589984D01*
X12941389Y-16589984D02*
X12960437Y-16599508D01*
X12960437Y-16599508D02*
X12969960Y-16609031D01*
X12969960Y-16609031D02*
X12979484Y-16628079D01*
X12979484Y-16628079D02*
X12989008Y-16666174D01*
X12989008Y-16666174D02*
X12989008Y-16713793D01*
X12989008Y-16713793D02*
X12979484Y-16751888D01*
X12979484Y-16751888D02*
X12969960Y-16770936D01*
X12969960Y-16770936D02*
X12960437Y-16780460D01*
X12960437Y-16780460D02*
X12941389Y-16789984D01*
X12941389Y-16789984D02*
X12922341Y-16789984D01*
X12922341Y-16789984D02*
X12903294Y-16780460D01*
X12903294Y-16780460D02*
X12893770Y-16770936D01*
X12893770Y-16770936D02*
X12884246Y-16751888D01*
X12884246Y-16751888D02*
X12874722Y-16713793D01*
X12874722Y-16713793D02*
X12874722Y-16666174D01*
X12874722Y-16666174D02*
X12884246Y-16628079D01*
X12884246Y-16628079D02*
X12893770Y-16609031D01*
X12893770Y-16609031D02*
X12903294Y-16599508D01*
X12903294Y-16599508D02*
X12922341Y-16589984D01*
X13065199Y-16609031D02*
X13074722Y-16599508D01*
X13074722Y-16599508D02*
X13093770Y-16589984D01*
X13093770Y-16589984D02*
X13141389Y-16589984D01*
X13141389Y-16589984D02*
X13160437Y-16599508D01*
X13160437Y-16599508D02*
X13169960Y-16609031D01*
X13169960Y-16609031D02*
X13179484Y-16628079D01*
X13179484Y-16628079D02*
X13179484Y-16647127D01*
X13179484Y-16647127D02*
X13169960Y-16675698D01*
X13169960Y-16675698D02*
X13055675Y-16789984D01*
X13055675Y-16789984D02*
X13179484Y-16789984D01*
X13255675Y-16589984D02*
X13255675Y-16628079D01*
X13331865Y-16589984D02*
X13331865Y-16628079D01*
X13627103Y-16866174D02*
X13617580Y-16856650D01*
X13617580Y-16856650D02*
X13598532Y-16828079D01*
X13598532Y-16828079D02*
X13589008Y-16809031D01*
X13589008Y-16809031D02*
X13579484Y-16780460D01*
X13579484Y-16780460D02*
X13569961Y-16732841D01*
X13569961Y-16732841D02*
X13569961Y-16694746D01*
X13569961Y-16694746D02*
X13579484Y-16647127D01*
X13579484Y-16647127D02*
X13589008Y-16618555D01*
X13589008Y-16618555D02*
X13598532Y-16599508D01*
X13598532Y-16599508D02*
X13617580Y-16570936D01*
X13617580Y-16570936D02*
X13627103Y-16561412D01*
X13684246Y-16589984D02*
X13808056Y-16589984D01*
X13808056Y-16589984D02*
X13741389Y-16666174D01*
X13741389Y-16666174D02*
X13769961Y-16666174D01*
X13769961Y-16666174D02*
X13789008Y-16675698D01*
X13789008Y-16675698D02*
X13798532Y-16685222D01*
X13798532Y-16685222D02*
X13808056Y-16704269D01*
X13808056Y-16704269D02*
X13808056Y-16751888D01*
X13808056Y-16751888D02*
X13798532Y-16770936D01*
X13798532Y-16770936D02*
X13789008Y-16780460D01*
X13789008Y-16780460D02*
X13769961Y-16789984D01*
X13769961Y-16789984D02*
X13712818Y-16789984D01*
X13712818Y-16789984D02*
X13693770Y-16780460D01*
X13693770Y-16780460D02*
X13684246Y-16770936D01*
X13931865Y-16589984D02*
X13950913Y-16589984D01*
X13950913Y-16589984D02*
X13969961Y-16599508D01*
X13969961Y-16599508D02*
X13979484Y-16609031D01*
X13979484Y-16609031D02*
X13989008Y-16628079D01*
X13989008Y-16628079D02*
X13998532Y-16666174D01*
X13998532Y-16666174D02*
X13998532Y-16713793D01*
X13998532Y-16713793D02*
X13989008Y-16751888D01*
X13989008Y-16751888D02*
X13979484Y-16770936D01*
X13979484Y-16770936D02*
X13969961Y-16780460D01*
X13969961Y-16780460D02*
X13950913Y-16789984D01*
X13950913Y-16789984D02*
X13931865Y-16789984D01*
X13931865Y-16789984D02*
X13912818Y-16780460D01*
X13912818Y-16780460D02*
X13903294Y-16770936D01*
X13903294Y-16770936D02*
X13893770Y-16751888D01*
X13893770Y-16751888D02*
X13884246Y-16713793D01*
X13884246Y-16713793D02*
X13884246Y-16666174D01*
X13884246Y-16666174D02*
X13893770Y-16628079D01*
X13893770Y-16628079D02*
X13903294Y-16609031D01*
X13903294Y-16609031D02*
X13912818Y-16599508D01*
X13912818Y-16599508D02*
X13931865Y-16589984D01*
X14236627Y-16789984D02*
X14236627Y-16589984D01*
X14322342Y-16789984D02*
X14322342Y-16685222D01*
X14322342Y-16685222D02*
X14312818Y-16666174D01*
X14312818Y-16666174D02*
X14293770Y-16656650D01*
X14293770Y-16656650D02*
X14265199Y-16656650D01*
X14265199Y-16656650D02*
X14246151Y-16666174D01*
X14246151Y-16666174D02*
X14236627Y-16675698D01*
X14446151Y-16789984D02*
X14427103Y-16780460D01*
X14427103Y-16780460D02*
X14417580Y-16770936D01*
X14417580Y-16770936D02*
X14408056Y-16751888D01*
X14408056Y-16751888D02*
X14408056Y-16694746D01*
X14408056Y-16694746D02*
X14417580Y-16675698D01*
X14417580Y-16675698D02*
X14427103Y-16666174D01*
X14427103Y-16666174D02*
X14446151Y-16656650D01*
X14446151Y-16656650D02*
X14474723Y-16656650D01*
X14474723Y-16656650D02*
X14493770Y-16666174D01*
X14493770Y-16666174D02*
X14503294Y-16675698D01*
X14503294Y-16675698D02*
X14512818Y-16694746D01*
X14512818Y-16694746D02*
X14512818Y-16751888D01*
X14512818Y-16751888D02*
X14503294Y-16770936D01*
X14503294Y-16770936D02*
X14493770Y-16780460D01*
X14493770Y-16780460D02*
X14474723Y-16789984D01*
X14474723Y-16789984D02*
X14446151Y-16789984D01*
X14627103Y-16789984D02*
X14608056Y-16780460D01*
X14608056Y-16780460D02*
X14598532Y-16761412D01*
X14598532Y-16761412D02*
X14598532Y-16589984D01*
X14779484Y-16780460D02*
X14760437Y-16789984D01*
X14760437Y-16789984D02*
X14722342Y-16789984D01*
X14722342Y-16789984D02*
X14703294Y-16780460D01*
X14703294Y-16780460D02*
X14693770Y-16761412D01*
X14693770Y-16761412D02*
X14693770Y-16685222D01*
X14693770Y-16685222D02*
X14703294Y-16666174D01*
X14703294Y-16666174D02*
X14722342Y-16656650D01*
X14722342Y-16656650D02*
X14760437Y-16656650D01*
X14760437Y-16656650D02*
X14779484Y-16666174D01*
X14779484Y-16666174D02*
X14789008Y-16685222D01*
X14789008Y-16685222D02*
X14789008Y-16704269D01*
X14789008Y-16704269D02*
X14693770Y-16723317D01*
X14865199Y-16780460D02*
X14884246Y-16789984D01*
X14884246Y-16789984D02*
X14922342Y-16789984D01*
X14922342Y-16789984D02*
X14941389Y-16780460D01*
X14941389Y-16780460D02*
X14950913Y-16761412D01*
X14950913Y-16761412D02*
X14950913Y-16751888D01*
X14950913Y-16751888D02*
X14941389Y-16732841D01*
X14941389Y-16732841D02*
X14922342Y-16723317D01*
X14922342Y-16723317D02*
X14893770Y-16723317D01*
X14893770Y-16723317D02*
X14874723Y-16713793D01*
X14874723Y-16713793D02*
X14865199Y-16694746D01*
X14865199Y-16694746D02*
X14865199Y-16685222D01*
X14865199Y-16685222D02*
X14874723Y-16666174D01*
X14874723Y-16666174D02*
X14893770Y-16656650D01*
X14893770Y-16656650D02*
X14922342Y-16656650D01*
X14922342Y-16656650D02*
X14941389Y-16666174D01*
X15017580Y-16866174D02*
X15027104Y-16856650D01*
X15027104Y-16856650D02*
X15046151Y-16828079D01*
X15046151Y-16828079D02*
X15055675Y-16809031D01*
X15055675Y-16809031D02*
X15065199Y-16780460D01*
X15065199Y-16780460D02*
X15074723Y-16732841D01*
X15074723Y-16732841D02*
X15074723Y-16694746D01*
X15074723Y-16694746D02*
X15065199Y-16647127D01*
X15065199Y-16647127D02*
X15055675Y-16618555D01*
X15055675Y-16618555D02*
X15046151Y-16599508D01*
X15046151Y-16599508D02*
X15027104Y-16570936D01*
X15027104Y-16570936D02*
X15017580Y-16561412D01*
D14*
X9942041Y-16907500D02*
X10052041Y-17017500D01*
X10052041Y-16907500D02*
X9942041Y-17017500D01*
X10052041Y-16962500D02*
G75*
G02*
X9942041Y-16962500I-55000J0D01*
G01*
X9942041Y-16962500D02*
G75*
G02*
X10052041Y-16962500I55000J0D01*
G01*
D11*
X10417579Y-17053984D02*
X10303294Y-17053984D01*
X10360436Y-17053984D02*
X10360436Y-16853984D01*
X10360436Y-16853984D02*
X10341389Y-16882555D01*
X10341389Y-16882555D02*
X10322341Y-16901603D01*
X10322341Y-16901603D02*
X10303294Y-16911127D01*
X10503294Y-17034936D02*
X10512817Y-17044460D01*
X10512817Y-17044460D02*
X10503294Y-17053984D01*
X10503294Y-17053984D02*
X10493770Y-17044460D01*
X10493770Y-17044460D02*
X10503294Y-17034936D01*
X10503294Y-17034936D02*
X10503294Y-17053984D01*
X10703294Y-17053984D02*
X10589008Y-17053984D01*
X10646151Y-17053984D02*
X10646151Y-16853984D01*
X10646151Y-16853984D02*
X10627103Y-16882555D01*
X10627103Y-16882555D02*
X10608056Y-16901603D01*
X10608056Y-16901603D02*
X10589008Y-16911127D01*
X10827103Y-16853984D02*
X10846151Y-16853984D01*
X10846151Y-16853984D02*
X10865198Y-16863508D01*
X10865198Y-16863508D02*
X10874722Y-16873031D01*
X10874722Y-16873031D02*
X10884246Y-16892079D01*
X10884246Y-16892079D02*
X10893770Y-16930174D01*
X10893770Y-16930174D02*
X10893770Y-16977793D01*
X10893770Y-16977793D02*
X10884246Y-17015889D01*
X10884246Y-17015889D02*
X10874722Y-17034936D01*
X10874722Y-17034936D02*
X10865198Y-17044460D01*
X10865198Y-17044460D02*
X10846151Y-17053984D01*
X10846151Y-17053984D02*
X10827103Y-17053984D01*
X10827103Y-17053984D02*
X10808056Y-17044460D01*
X10808056Y-17044460D02*
X10798532Y-17034936D01*
X10798532Y-17034936D02*
X10789008Y-17015889D01*
X10789008Y-17015889D02*
X10779484Y-16977793D01*
X10779484Y-16977793D02*
X10779484Y-16930174D01*
X10779484Y-16930174D02*
X10789008Y-16892079D01*
X10789008Y-16892079D02*
X10798532Y-16873031D01*
X10798532Y-16873031D02*
X10808056Y-16863508D01*
X10808056Y-16863508D02*
X10827103Y-16853984D01*
X11017579Y-16853984D02*
X11036627Y-16853984D01*
X11036627Y-16853984D02*
X11055675Y-16863508D01*
X11055675Y-16863508D02*
X11065198Y-16873031D01*
X11065198Y-16873031D02*
X11074722Y-16892079D01*
X11074722Y-16892079D02*
X11084246Y-16930174D01*
X11084246Y-16930174D02*
X11084246Y-16977793D01*
X11084246Y-16977793D02*
X11074722Y-17015889D01*
X11074722Y-17015889D02*
X11065198Y-17034936D01*
X11065198Y-17034936D02*
X11055675Y-17044460D01*
X11055675Y-17044460D02*
X11036627Y-17053984D01*
X11036627Y-17053984D02*
X11017579Y-17053984D01*
X11017579Y-17053984D02*
X10998532Y-17044460D01*
X10998532Y-17044460D02*
X10989008Y-17034936D01*
X10989008Y-17034936D02*
X10979484Y-17015889D01*
X10979484Y-17015889D02*
X10969960Y-16977793D01*
X10969960Y-16977793D02*
X10969960Y-16930174D01*
X10969960Y-16930174D02*
X10979484Y-16892079D01*
X10979484Y-16892079D02*
X10989008Y-16873031D01*
X10989008Y-16873031D02*
X10998532Y-16863508D01*
X10998532Y-16863508D02*
X11017579Y-16853984D01*
X11169960Y-17053984D02*
X11169960Y-16920650D01*
X11169960Y-16939698D02*
X11179484Y-16930174D01*
X11179484Y-16930174D02*
X11198532Y-16920650D01*
X11198532Y-16920650D02*
X11227103Y-16920650D01*
X11227103Y-16920650D02*
X11246151Y-16930174D01*
X11246151Y-16930174D02*
X11255675Y-16949222D01*
X11255675Y-16949222D02*
X11255675Y-17053984D01*
X11255675Y-16949222D02*
X11265198Y-16930174D01*
X11265198Y-16930174D02*
X11284246Y-16920650D01*
X11284246Y-16920650D02*
X11312817Y-16920650D01*
X11312817Y-16920650D02*
X11331865Y-16930174D01*
X11331865Y-16930174D02*
X11341389Y-16949222D01*
X11341389Y-16949222D02*
X11341389Y-17053984D01*
X11436627Y-17053984D02*
X11436627Y-16920650D01*
X11436627Y-16939698D02*
X11446151Y-16930174D01*
X11446151Y-16930174D02*
X11465198Y-16920650D01*
X11465198Y-16920650D02*
X11493770Y-16920650D01*
X11493770Y-16920650D02*
X11512817Y-16930174D01*
X11512817Y-16930174D02*
X11522341Y-16949222D01*
X11522341Y-16949222D02*
X11522341Y-17053984D01*
X11522341Y-16949222D02*
X11531865Y-16930174D01*
X11531865Y-16930174D02*
X11550913Y-16920650D01*
X11550913Y-16920650D02*
X11579484Y-16920650D01*
X11579484Y-16920650D02*
X11598532Y-16930174D01*
X11598532Y-16930174D02*
X11608056Y-16949222D01*
X11608056Y-16949222D02*
X11608056Y-17053984D01*
X11998532Y-16844460D02*
X11827103Y-17101603D01*
X12255675Y-16853984D02*
X12274722Y-16853984D01*
X12274722Y-16853984D02*
X12293770Y-16863508D01*
X12293770Y-16863508D02*
X12303294Y-16873031D01*
X12303294Y-16873031D02*
X12312818Y-16892079D01*
X12312818Y-16892079D02*
X12322341Y-16930174D01*
X12322341Y-16930174D02*
X12322341Y-16977793D01*
X12322341Y-16977793D02*
X12312818Y-17015889D01*
X12312818Y-17015889D02*
X12303294Y-17034936D01*
X12303294Y-17034936D02*
X12293770Y-17044460D01*
X12293770Y-17044460D02*
X12274722Y-17053984D01*
X12274722Y-17053984D02*
X12255675Y-17053984D01*
X12255675Y-17053984D02*
X12236627Y-17044460D01*
X12236627Y-17044460D02*
X12227103Y-17034936D01*
X12227103Y-17034936D02*
X12217579Y-17015889D01*
X12217579Y-17015889D02*
X12208056Y-16977793D01*
X12208056Y-16977793D02*
X12208056Y-16930174D01*
X12208056Y-16930174D02*
X12217579Y-16892079D01*
X12217579Y-16892079D02*
X12227103Y-16873031D01*
X12227103Y-16873031D02*
X12236627Y-16863508D01*
X12236627Y-16863508D02*
X12255675Y-16853984D01*
X12408056Y-17034936D02*
X12417579Y-17044460D01*
X12417579Y-17044460D02*
X12408056Y-17053984D01*
X12408056Y-17053984D02*
X12398532Y-17044460D01*
X12398532Y-17044460D02*
X12408056Y-17034936D01*
X12408056Y-17034936D02*
X12408056Y-17053984D01*
X12541389Y-16853984D02*
X12560437Y-16853984D01*
X12560437Y-16853984D02*
X12579484Y-16863508D01*
X12579484Y-16863508D02*
X12589008Y-16873031D01*
X12589008Y-16873031D02*
X12598532Y-16892079D01*
X12598532Y-16892079D02*
X12608056Y-16930174D01*
X12608056Y-16930174D02*
X12608056Y-16977793D01*
X12608056Y-16977793D02*
X12598532Y-17015889D01*
X12598532Y-17015889D02*
X12589008Y-17034936D01*
X12589008Y-17034936D02*
X12579484Y-17044460D01*
X12579484Y-17044460D02*
X12560437Y-17053984D01*
X12560437Y-17053984D02*
X12541389Y-17053984D01*
X12541389Y-17053984D02*
X12522341Y-17044460D01*
X12522341Y-17044460D02*
X12512818Y-17034936D01*
X12512818Y-17034936D02*
X12503294Y-17015889D01*
X12503294Y-17015889D02*
X12493770Y-16977793D01*
X12493770Y-16977793D02*
X12493770Y-16930174D01*
X12493770Y-16930174D02*
X12503294Y-16892079D01*
X12503294Y-16892079D02*
X12512818Y-16873031D01*
X12512818Y-16873031D02*
X12522341Y-16863508D01*
X12522341Y-16863508D02*
X12541389Y-16853984D01*
X12779484Y-16920650D02*
X12779484Y-17053984D01*
X12731865Y-16844460D02*
X12684246Y-16987317D01*
X12684246Y-16987317D02*
X12808056Y-16987317D01*
X12865199Y-16853984D02*
X12989008Y-16853984D01*
X12989008Y-16853984D02*
X12922341Y-16930174D01*
X12922341Y-16930174D02*
X12950913Y-16930174D01*
X12950913Y-16930174D02*
X12969960Y-16939698D01*
X12969960Y-16939698D02*
X12979484Y-16949222D01*
X12979484Y-16949222D02*
X12989008Y-16968270D01*
X12989008Y-16968270D02*
X12989008Y-17015889D01*
X12989008Y-17015889D02*
X12979484Y-17034936D01*
X12979484Y-17034936D02*
X12969960Y-17044460D01*
X12969960Y-17044460D02*
X12950913Y-17053984D01*
X12950913Y-17053984D02*
X12893770Y-17053984D01*
X12893770Y-17053984D02*
X12874722Y-17044460D01*
X12874722Y-17044460D02*
X12865199Y-17034936D01*
X13055675Y-16853984D02*
X13179484Y-16853984D01*
X13179484Y-16853984D02*
X13112818Y-16930174D01*
X13112818Y-16930174D02*
X13141389Y-16930174D01*
X13141389Y-16930174D02*
X13160437Y-16939698D01*
X13160437Y-16939698D02*
X13169960Y-16949222D01*
X13169960Y-16949222D02*
X13179484Y-16968270D01*
X13179484Y-16968270D02*
X13179484Y-17015889D01*
X13179484Y-17015889D02*
X13169960Y-17034936D01*
X13169960Y-17034936D02*
X13160437Y-17044460D01*
X13160437Y-17044460D02*
X13141389Y-17053984D01*
X13141389Y-17053984D02*
X13084246Y-17053984D01*
X13084246Y-17053984D02*
X13065199Y-17044460D01*
X13065199Y-17044460D02*
X13055675Y-17034936D01*
X13255675Y-16853984D02*
X13255675Y-16892079D01*
X13331865Y-16853984D02*
X13331865Y-16892079D01*
X13627103Y-17130174D02*
X13617580Y-17120650D01*
X13617580Y-17120650D02*
X13598532Y-17092079D01*
X13598532Y-17092079D02*
X13589008Y-17073031D01*
X13589008Y-17073031D02*
X13579484Y-17044460D01*
X13579484Y-17044460D02*
X13569961Y-16996841D01*
X13569961Y-16996841D02*
X13569961Y-16958746D01*
X13569961Y-16958746D02*
X13579484Y-16911127D01*
X13579484Y-16911127D02*
X13589008Y-16882555D01*
X13589008Y-16882555D02*
X13598532Y-16863508D01*
X13598532Y-16863508D02*
X13617580Y-16834936D01*
X13617580Y-16834936D02*
X13627103Y-16825412D01*
X13693770Y-16873031D02*
X13703294Y-16863508D01*
X13703294Y-16863508D02*
X13722341Y-16853984D01*
X13722341Y-16853984D02*
X13769961Y-16853984D01*
X13769961Y-16853984D02*
X13789008Y-16863508D01*
X13789008Y-16863508D02*
X13798532Y-16873031D01*
X13798532Y-16873031D02*
X13808056Y-16892079D01*
X13808056Y-16892079D02*
X13808056Y-16911127D01*
X13808056Y-16911127D02*
X13798532Y-16939698D01*
X13798532Y-16939698D02*
X13684246Y-17053984D01*
X13684246Y-17053984D02*
X13808056Y-17053984D01*
X14046151Y-17053984D02*
X14046151Y-16853984D01*
X14131865Y-17053984D02*
X14131865Y-16949222D01*
X14131865Y-16949222D02*
X14122342Y-16930174D01*
X14122342Y-16930174D02*
X14103294Y-16920650D01*
X14103294Y-16920650D02*
X14074722Y-16920650D01*
X14074722Y-16920650D02*
X14055675Y-16930174D01*
X14055675Y-16930174D02*
X14046151Y-16939698D01*
X14255675Y-17053984D02*
X14236627Y-17044460D01*
X14236627Y-17044460D02*
X14227103Y-17034936D01*
X14227103Y-17034936D02*
X14217580Y-17015889D01*
X14217580Y-17015889D02*
X14217580Y-16958746D01*
X14217580Y-16958746D02*
X14227103Y-16939698D01*
X14227103Y-16939698D02*
X14236627Y-16930174D01*
X14236627Y-16930174D02*
X14255675Y-16920650D01*
X14255675Y-16920650D02*
X14284246Y-16920650D01*
X14284246Y-16920650D02*
X14303294Y-16930174D01*
X14303294Y-16930174D02*
X14312818Y-16939698D01*
X14312818Y-16939698D02*
X14322342Y-16958746D01*
X14322342Y-16958746D02*
X14322342Y-17015889D01*
X14322342Y-17015889D02*
X14312818Y-17034936D01*
X14312818Y-17034936D02*
X14303294Y-17044460D01*
X14303294Y-17044460D02*
X14284246Y-17053984D01*
X14284246Y-17053984D02*
X14255675Y-17053984D01*
X14436627Y-17053984D02*
X14417580Y-17044460D01*
X14417580Y-17044460D02*
X14408056Y-17025412D01*
X14408056Y-17025412D02*
X14408056Y-16853984D01*
X14589008Y-17044460D02*
X14569961Y-17053984D01*
X14569961Y-17053984D02*
X14531865Y-17053984D01*
X14531865Y-17053984D02*
X14512818Y-17044460D01*
X14512818Y-17044460D02*
X14503294Y-17025412D01*
X14503294Y-17025412D02*
X14503294Y-16949222D01*
X14503294Y-16949222D02*
X14512818Y-16930174D01*
X14512818Y-16930174D02*
X14531865Y-16920650D01*
X14531865Y-16920650D02*
X14569961Y-16920650D01*
X14569961Y-16920650D02*
X14589008Y-16930174D01*
X14589008Y-16930174D02*
X14598532Y-16949222D01*
X14598532Y-16949222D02*
X14598532Y-16968270D01*
X14598532Y-16968270D02*
X14503294Y-16987317D01*
X14674723Y-17044460D02*
X14693770Y-17053984D01*
X14693770Y-17053984D02*
X14731865Y-17053984D01*
X14731865Y-17053984D02*
X14750913Y-17044460D01*
X14750913Y-17044460D02*
X14760437Y-17025412D01*
X14760437Y-17025412D02*
X14760437Y-17015889D01*
X14760437Y-17015889D02*
X14750913Y-16996841D01*
X14750913Y-16996841D02*
X14731865Y-16987317D01*
X14731865Y-16987317D02*
X14703294Y-16987317D01*
X14703294Y-16987317D02*
X14684246Y-16977793D01*
X14684246Y-16977793D02*
X14674723Y-16958746D01*
X14674723Y-16958746D02*
X14674723Y-16949222D01*
X14674723Y-16949222D02*
X14684246Y-16930174D01*
X14684246Y-16930174D02*
X14703294Y-16920650D01*
X14703294Y-16920650D02*
X14731865Y-16920650D01*
X14731865Y-16920650D02*
X14750913Y-16930174D01*
X14827104Y-17130174D02*
X14836627Y-17120650D01*
X14836627Y-17120650D02*
X14855675Y-17092079D01*
X14855675Y-17092079D02*
X14865199Y-17073031D01*
X14865199Y-17073031D02*
X14874723Y-17044460D01*
X14874723Y-17044460D02*
X14884246Y-16996841D01*
X14884246Y-16996841D02*
X14884246Y-16958746D01*
X14884246Y-16958746D02*
X14874723Y-16911127D01*
X14874723Y-16911127D02*
X14865199Y-16882555D01*
X14865199Y-16882555D02*
X14855675Y-16863508D01*
X14855675Y-16863508D02*
X14836627Y-16834936D01*
X14836627Y-16834936D02*
X14827104Y-16825412D01*
D15*
X9940281Y-17170620D02*
X10052041Y-17282380D01*
X10052041Y-17170620D02*
X9940281Y-17282380D01*
X9996161Y-17170620D02*
X9996161Y-17282380D01*
X9940281Y-17226500D02*
X10052041Y-17226500D01*
D11*
X10417579Y-17317984D02*
X10303294Y-17317984D01*
X10360436Y-17317984D02*
X10360436Y-17117984D01*
X10360436Y-17117984D02*
X10341389Y-17146555D01*
X10341389Y-17146555D02*
X10322341Y-17165603D01*
X10322341Y-17165603D02*
X10303294Y-17175127D01*
X10503294Y-17298936D02*
X10512817Y-17308460D01*
X10512817Y-17308460D02*
X10503294Y-17317984D01*
X10503294Y-17317984D02*
X10493770Y-17308460D01*
X10493770Y-17308460D02*
X10503294Y-17298936D01*
X10503294Y-17298936D02*
X10503294Y-17317984D01*
X10703294Y-17317984D02*
X10589008Y-17317984D01*
X10646151Y-17317984D02*
X10646151Y-17117984D01*
X10646151Y-17117984D02*
X10627103Y-17146555D01*
X10627103Y-17146555D02*
X10608056Y-17165603D01*
X10608056Y-17165603D02*
X10589008Y-17175127D01*
X10893770Y-17317984D02*
X10779484Y-17317984D01*
X10836627Y-17317984D02*
X10836627Y-17117984D01*
X10836627Y-17117984D02*
X10817579Y-17146555D01*
X10817579Y-17146555D02*
X10798532Y-17165603D01*
X10798532Y-17165603D02*
X10779484Y-17175127D01*
X11008056Y-17203698D02*
X10989008Y-17194174D01*
X10989008Y-17194174D02*
X10979484Y-17184650D01*
X10979484Y-17184650D02*
X10969960Y-17165603D01*
X10969960Y-17165603D02*
X10969960Y-17156079D01*
X10969960Y-17156079D02*
X10979484Y-17137031D01*
X10979484Y-17137031D02*
X10989008Y-17127508D01*
X10989008Y-17127508D02*
X11008056Y-17117984D01*
X11008056Y-17117984D02*
X11046151Y-17117984D01*
X11046151Y-17117984D02*
X11065198Y-17127508D01*
X11065198Y-17127508D02*
X11074722Y-17137031D01*
X11074722Y-17137031D02*
X11084246Y-17156079D01*
X11084246Y-17156079D02*
X11084246Y-17165603D01*
X11084246Y-17165603D02*
X11074722Y-17184650D01*
X11074722Y-17184650D02*
X11065198Y-17194174D01*
X11065198Y-17194174D02*
X11046151Y-17203698D01*
X11046151Y-17203698D02*
X11008056Y-17203698D01*
X11008056Y-17203698D02*
X10989008Y-17213222D01*
X10989008Y-17213222D02*
X10979484Y-17222746D01*
X10979484Y-17222746D02*
X10969960Y-17241793D01*
X10969960Y-17241793D02*
X10969960Y-17279889D01*
X10969960Y-17279889D02*
X10979484Y-17298936D01*
X10979484Y-17298936D02*
X10989008Y-17308460D01*
X10989008Y-17308460D02*
X11008056Y-17317984D01*
X11008056Y-17317984D02*
X11046151Y-17317984D01*
X11046151Y-17317984D02*
X11065198Y-17308460D01*
X11065198Y-17308460D02*
X11074722Y-17298936D01*
X11074722Y-17298936D02*
X11084246Y-17279889D01*
X11084246Y-17279889D02*
X11084246Y-17241793D01*
X11084246Y-17241793D02*
X11074722Y-17222746D01*
X11074722Y-17222746D02*
X11065198Y-17213222D01*
X11065198Y-17213222D02*
X11046151Y-17203698D01*
X11169960Y-17317984D02*
X11169960Y-17184650D01*
X11169960Y-17203698D02*
X11179484Y-17194174D01*
X11179484Y-17194174D02*
X11198532Y-17184650D01*
X11198532Y-17184650D02*
X11227103Y-17184650D01*
X11227103Y-17184650D02*
X11246151Y-17194174D01*
X11246151Y-17194174D02*
X11255675Y-17213222D01*
X11255675Y-17213222D02*
X11255675Y-17317984D01*
X11255675Y-17213222D02*
X11265198Y-17194174D01*
X11265198Y-17194174D02*
X11284246Y-17184650D01*
X11284246Y-17184650D02*
X11312817Y-17184650D01*
X11312817Y-17184650D02*
X11331865Y-17194174D01*
X11331865Y-17194174D02*
X11341389Y-17213222D01*
X11341389Y-17213222D02*
X11341389Y-17317984D01*
X11436627Y-17317984D02*
X11436627Y-17184650D01*
X11436627Y-17203698D02*
X11446151Y-17194174D01*
X11446151Y-17194174D02*
X11465198Y-17184650D01*
X11465198Y-17184650D02*
X11493770Y-17184650D01*
X11493770Y-17184650D02*
X11512817Y-17194174D01*
X11512817Y-17194174D02*
X11522341Y-17213222D01*
X11522341Y-17213222D02*
X11522341Y-17317984D01*
X11522341Y-17213222D02*
X11531865Y-17194174D01*
X11531865Y-17194174D02*
X11550913Y-17184650D01*
X11550913Y-17184650D02*
X11579484Y-17184650D01*
X11579484Y-17184650D02*
X11598532Y-17194174D01*
X11598532Y-17194174D02*
X11608056Y-17213222D01*
X11608056Y-17213222D02*
X11608056Y-17317984D01*
X11998532Y-17108460D02*
X11827103Y-17365603D01*
X12255675Y-17117984D02*
X12274722Y-17117984D01*
X12274722Y-17117984D02*
X12293770Y-17127508D01*
X12293770Y-17127508D02*
X12303294Y-17137031D01*
X12303294Y-17137031D02*
X12312818Y-17156079D01*
X12312818Y-17156079D02*
X12322341Y-17194174D01*
X12322341Y-17194174D02*
X12322341Y-17241793D01*
X12322341Y-17241793D02*
X12312818Y-17279889D01*
X12312818Y-17279889D02*
X12303294Y-17298936D01*
X12303294Y-17298936D02*
X12293770Y-17308460D01*
X12293770Y-17308460D02*
X12274722Y-17317984D01*
X12274722Y-17317984D02*
X12255675Y-17317984D01*
X12255675Y-17317984D02*
X12236627Y-17308460D01*
X12236627Y-17308460D02*
X12227103Y-17298936D01*
X12227103Y-17298936D02*
X12217579Y-17279889D01*
X12217579Y-17279889D02*
X12208056Y-17241793D01*
X12208056Y-17241793D02*
X12208056Y-17194174D01*
X12208056Y-17194174D02*
X12217579Y-17156079D01*
X12217579Y-17156079D02*
X12227103Y-17137031D01*
X12227103Y-17137031D02*
X12236627Y-17127508D01*
X12236627Y-17127508D02*
X12255675Y-17117984D01*
X12408056Y-17298936D02*
X12417579Y-17308460D01*
X12417579Y-17308460D02*
X12408056Y-17317984D01*
X12408056Y-17317984D02*
X12398532Y-17308460D01*
X12398532Y-17308460D02*
X12408056Y-17298936D01*
X12408056Y-17298936D02*
X12408056Y-17317984D01*
X12541389Y-17117984D02*
X12560437Y-17117984D01*
X12560437Y-17117984D02*
X12579484Y-17127508D01*
X12579484Y-17127508D02*
X12589008Y-17137031D01*
X12589008Y-17137031D02*
X12598532Y-17156079D01*
X12598532Y-17156079D02*
X12608056Y-17194174D01*
X12608056Y-17194174D02*
X12608056Y-17241793D01*
X12608056Y-17241793D02*
X12598532Y-17279889D01*
X12598532Y-17279889D02*
X12589008Y-17298936D01*
X12589008Y-17298936D02*
X12579484Y-17308460D01*
X12579484Y-17308460D02*
X12560437Y-17317984D01*
X12560437Y-17317984D02*
X12541389Y-17317984D01*
X12541389Y-17317984D02*
X12522341Y-17308460D01*
X12522341Y-17308460D02*
X12512818Y-17298936D01*
X12512818Y-17298936D02*
X12503294Y-17279889D01*
X12503294Y-17279889D02*
X12493770Y-17241793D01*
X12493770Y-17241793D02*
X12493770Y-17194174D01*
X12493770Y-17194174D02*
X12503294Y-17156079D01*
X12503294Y-17156079D02*
X12512818Y-17137031D01*
X12512818Y-17137031D02*
X12522341Y-17127508D01*
X12522341Y-17127508D02*
X12541389Y-17117984D01*
X12779484Y-17184650D02*
X12779484Y-17317984D01*
X12731865Y-17108460D02*
X12684246Y-17251317D01*
X12684246Y-17251317D02*
X12808056Y-17251317D01*
X12969960Y-17184650D02*
X12969960Y-17317984D01*
X12922341Y-17108460D02*
X12874722Y-17251317D01*
X12874722Y-17251317D02*
X12998532Y-17251317D01*
X13112818Y-17117984D02*
X13131865Y-17117984D01*
X13131865Y-17117984D02*
X13150913Y-17127508D01*
X13150913Y-17127508D02*
X13160437Y-17137031D01*
X13160437Y-17137031D02*
X13169960Y-17156079D01*
X13169960Y-17156079D02*
X13179484Y-17194174D01*
X13179484Y-17194174D02*
X13179484Y-17241793D01*
X13179484Y-17241793D02*
X13169960Y-17279889D01*
X13169960Y-17279889D02*
X13160437Y-17298936D01*
X13160437Y-17298936D02*
X13150913Y-17308460D01*
X13150913Y-17308460D02*
X13131865Y-17317984D01*
X13131865Y-17317984D02*
X13112818Y-17317984D01*
X13112818Y-17317984D02*
X13093770Y-17308460D01*
X13093770Y-17308460D02*
X13084246Y-17298936D01*
X13084246Y-17298936D02*
X13074722Y-17279889D01*
X13074722Y-17279889D02*
X13065199Y-17241793D01*
X13065199Y-17241793D02*
X13065199Y-17194174D01*
X13065199Y-17194174D02*
X13074722Y-17156079D01*
X13074722Y-17156079D02*
X13084246Y-17137031D01*
X13084246Y-17137031D02*
X13093770Y-17127508D01*
X13093770Y-17127508D02*
X13112818Y-17117984D01*
X13255675Y-17117984D02*
X13255675Y-17156079D01*
X13331865Y-17117984D02*
X13331865Y-17156079D01*
X13627103Y-17394174D02*
X13617580Y-17384650D01*
X13617580Y-17384650D02*
X13598532Y-17356079D01*
X13598532Y-17356079D02*
X13589008Y-17337031D01*
X13589008Y-17337031D02*
X13579484Y-17308460D01*
X13579484Y-17308460D02*
X13569961Y-17260841D01*
X13569961Y-17260841D02*
X13569961Y-17222746D01*
X13569961Y-17222746D02*
X13579484Y-17175127D01*
X13579484Y-17175127D02*
X13589008Y-17146555D01*
X13589008Y-17146555D02*
X13598532Y-17127508D01*
X13598532Y-17127508D02*
X13617580Y-17098936D01*
X13617580Y-17098936D02*
X13627103Y-17089412D01*
X13684246Y-17117984D02*
X13808056Y-17117984D01*
X13808056Y-17117984D02*
X13741389Y-17194174D01*
X13741389Y-17194174D02*
X13769961Y-17194174D01*
X13769961Y-17194174D02*
X13789008Y-17203698D01*
X13789008Y-17203698D02*
X13798532Y-17213222D01*
X13798532Y-17213222D02*
X13808056Y-17232270D01*
X13808056Y-17232270D02*
X13808056Y-17279889D01*
X13808056Y-17279889D02*
X13798532Y-17298936D01*
X13798532Y-17298936D02*
X13789008Y-17308460D01*
X13789008Y-17308460D02*
X13769961Y-17317984D01*
X13769961Y-17317984D02*
X13712818Y-17317984D01*
X13712818Y-17317984D02*
X13693770Y-17308460D01*
X13693770Y-17308460D02*
X13684246Y-17298936D01*
X13884246Y-17137031D02*
X13893770Y-17127508D01*
X13893770Y-17127508D02*
X13912818Y-17117984D01*
X13912818Y-17117984D02*
X13960437Y-17117984D01*
X13960437Y-17117984D02*
X13979484Y-17127508D01*
X13979484Y-17127508D02*
X13989008Y-17137031D01*
X13989008Y-17137031D02*
X13998532Y-17156079D01*
X13998532Y-17156079D02*
X13998532Y-17175127D01*
X13998532Y-17175127D02*
X13989008Y-17203698D01*
X13989008Y-17203698D02*
X13874722Y-17317984D01*
X13874722Y-17317984D02*
X13998532Y-17317984D01*
X14236627Y-17317984D02*
X14236627Y-17117984D01*
X14322342Y-17317984D02*
X14322342Y-17213222D01*
X14322342Y-17213222D02*
X14312818Y-17194174D01*
X14312818Y-17194174D02*
X14293770Y-17184650D01*
X14293770Y-17184650D02*
X14265199Y-17184650D01*
X14265199Y-17184650D02*
X14246151Y-17194174D01*
X14246151Y-17194174D02*
X14236627Y-17203698D01*
X14446151Y-17317984D02*
X14427103Y-17308460D01*
X14427103Y-17308460D02*
X14417580Y-17298936D01*
X14417580Y-17298936D02*
X14408056Y-17279889D01*
X14408056Y-17279889D02*
X14408056Y-17222746D01*
X14408056Y-17222746D02*
X14417580Y-17203698D01*
X14417580Y-17203698D02*
X14427103Y-17194174D01*
X14427103Y-17194174D02*
X14446151Y-17184650D01*
X14446151Y-17184650D02*
X14474723Y-17184650D01*
X14474723Y-17184650D02*
X14493770Y-17194174D01*
X14493770Y-17194174D02*
X14503294Y-17203698D01*
X14503294Y-17203698D02*
X14512818Y-17222746D01*
X14512818Y-17222746D02*
X14512818Y-17279889D01*
X14512818Y-17279889D02*
X14503294Y-17298936D01*
X14503294Y-17298936D02*
X14493770Y-17308460D01*
X14493770Y-17308460D02*
X14474723Y-17317984D01*
X14474723Y-17317984D02*
X14446151Y-17317984D01*
X14627103Y-17317984D02*
X14608056Y-17308460D01*
X14608056Y-17308460D02*
X14598532Y-17289412D01*
X14598532Y-17289412D02*
X14598532Y-17117984D01*
X14779484Y-17308460D02*
X14760437Y-17317984D01*
X14760437Y-17317984D02*
X14722342Y-17317984D01*
X14722342Y-17317984D02*
X14703294Y-17308460D01*
X14703294Y-17308460D02*
X14693770Y-17289412D01*
X14693770Y-17289412D02*
X14693770Y-17213222D01*
X14693770Y-17213222D02*
X14703294Y-17194174D01*
X14703294Y-17194174D02*
X14722342Y-17184650D01*
X14722342Y-17184650D02*
X14760437Y-17184650D01*
X14760437Y-17184650D02*
X14779484Y-17194174D01*
X14779484Y-17194174D02*
X14789008Y-17213222D01*
X14789008Y-17213222D02*
X14789008Y-17232270D01*
X14789008Y-17232270D02*
X14693770Y-17251317D01*
X14865199Y-17308460D02*
X14884246Y-17317984D01*
X14884246Y-17317984D02*
X14922342Y-17317984D01*
X14922342Y-17317984D02*
X14941389Y-17308460D01*
X14941389Y-17308460D02*
X14950913Y-17289412D01*
X14950913Y-17289412D02*
X14950913Y-17279889D01*
X14950913Y-17279889D02*
X14941389Y-17260841D01*
X14941389Y-17260841D02*
X14922342Y-17251317D01*
X14922342Y-17251317D02*
X14893770Y-17251317D01*
X14893770Y-17251317D02*
X14874723Y-17241793D01*
X14874723Y-17241793D02*
X14865199Y-17222746D01*
X14865199Y-17222746D02*
X14865199Y-17213222D01*
X14865199Y-17213222D02*
X14874723Y-17194174D01*
X14874723Y-17194174D02*
X14893770Y-17184650D01*
X14893770Y-17184650D02*
X14922342Y-17184650D01*
X14922342Y-17184650D02*
X14941389Y-17194174D01*
X15017580Y-17394174D02*
X15027104Y-17384650D01*
X15027104Y-17384650D02*
X15046151Y-17356079D01*
X15046151Y-17356079D02*
X15055675Y-17337031D01*
X15055675Y-17337031D02*
X15065199Y-17308460D01*
X15065199Y-17308460D02*
X15074723Y-17260841D01*
X15074723Y-17260841D02*
X15074723Y-17222746D01*
X15074723Y-17222746D02*
X15065199Y-17175127D01*
X15065199Y-17175127D02*
X15055675Y-17146555D01*
X15055675Y-17146555D02*
X15046151Y-17127508D01*
X15046151Y-17127508D02*
X15027104Y-17098936D01*
X15027104Y-17098936D02*
X15017580Y-17089412D01*
D16*
X9925041Y-17427000D02*
X10052041Y-17554000D01*
X10052041Y-17427000D02*
X9925041Y-17554000D01*
X10033442Y-17535402D02*
X10033442Y-17445598D01*
X9943639Y-17445598D01*
X9943639Y-17535402D01*
X10033442Y-17535402D01*
D11*
X10417579Y-17581984D02*
X10303294Y-17581984D01*
X10360436Y-17581984D02*
X10360436Y-17381984D01*
X10360436Y-17381984D02*
X10341389Y-17410555D01*
X10341389Y-17410555D02*
X10322341Y-17429603D01*
X10322341Y-17429603D02*
X10303294Y-17439127D01*
X10503294Y-17562936D02*
X10512817Y-17572460D01*
X10512817Y-17572460D02*
X10503294Y-17581984D01*
X10503294Y-17581984D02*
X10493770Y-17572460D01*
X10493770Y-17572460D02*
X10503294Y-17562936D01*
X10503294Y-17562936D02*
X10503294Y-17581984D01*
X10589008Y-17401031D02*
X10598532Y-17391508D01*
X10598532Y-17391508D02*
X10617579Y-17381984D01*
X10617579Y-17381984D02*
X10665198Y-17381984D01*
X10665198Y-17381984D02*
X10684246Y-17391508D01*
X10684246Y-17391508D02*
X10693770Y-17401031D01*
X10693770Y-17401031D02*
X10703294Y-17420079D01*
X10703294Y-17420079D02*
X10703294Y-17439127D01*
X10703294Y-17439127D02*
X10693770Y-17467698D01*
X10693770Y-17467698D02*
X10579484Y-17581984D01*
X10579484Y-17581984D02*
X10703294Y-17581984D01*
X10769960Y-17381984D02*
X10903294Y-17381984D01*
X10903294Y-17381984D02*
X10817579Y-17581984D01*
X11017579Y-17381984D02*
X11036627Y-17381984D01*
X11036627Y-17381984D02*
X11055675Y-17391508D01*
X11055675Y-17391508D02*
X11065198Y-17401031D01*
X11065198Y-17401031D02*
X11074722Y-17420079D01*
X11074722Y-17420079D02*
X11084246Y-17458174D01*
X11084246Y-17458174D02*
X11084246Y-17505793D01*
X11084246Y-17505793D02*
X11074722Y-17543889D01*
X11074722Y-17543889D02*
X11065198Y-17562936D01*
X11065198Y-17562936D02*
X11055675Y-17572460D01*
X11055675Y-17572460D02*
X11036627Y-17581984D01*
X11036627Y-17581984D02*
X11017579Y-17581984D01*
X11017579Y-17581984D02*
X10998532Y-17572460D01*
X10998532Y-17572460D02*
X10989008Y-17562936D01*
X10989008Y-17562936D02*
X10979484Y-17543889D01*
X10979484Y-17543889D02*
X10969960Y-17505793D01*
X10969960Y-17505793D02*
X10969960Y-17458174D01*
X10969960Y-17458174D02*
X10979484Y-17420079D01*
X10979484Y-17420079D02*
X10989008Y-17401031D01*
X10989008Y-17401031D02*
X10998532Y-17391508D01*
X10998532Y-17391508D02*
X11017579Y-17381984D01*
X11169960Y-17581984D02*
X11169960Y-17448650D01*
X11169960Y-17467698D02*
X11179484Y-17458174D01*
X11179484Y-17458174D02*
X11198532Y-17448650D01*
X11198532Y-17448650D02*
X11227103Y-17448650D01*
X11227103Y-17448650D02*
X11246151Y-17458174D01*
X11246151Y-17458174D02*
X11255675Y-17477222D01*
X11255675Y-17477222D02*
X11255675Y-17581984D01*
X11255675Y-17477222D02*
X11265198Y-17458174D01*
X11265198Y-17458174D02*
X11284246Y-17448650D01*
X11284246Y-17448650D02*
X11312817Y-17448650D01*
X11312817Y-17448650D02*
X11331865Y-17458174D01*
X11331865Y-17458174D02*
X11341389Y-17477222D01*
X11341389Y-17477222D02*
X11341389Y-17581984D01*
X11436627Y-17581984D02*
X11436627Y-17448650D01*
X11436627Y-17467698D02*
X11446151Y-17458174D01*
X11446151Y-17458174D02*
X11465198Y-17448650D01*
X11465198Y-17448650D02*
X11493770Y-17448650D01*
X11493770Y-17448650D02*
X11512817Y-17458174D01*
X11512817Y-17458174D02*
X11522341Y-17477222D01*
X11522341Y-17477222D02*
X11522341Y-17581984D01*
X11522341Y-17477222D02*
X11531865Y-17458174D01*
X11531865Y-17458174D02*
X11550913Y-17448650D01*
X11550913Y-17448650D02*
X11579484Y-17448650D01*
X11579484Y-17448650D02*
X11598532Y-17458174D01*
X11598532Y-17458174D02*
X11608056Y-17477222D01*
X11608056Y-17477222D02*
X11608056Y-17581984D01*
X11998532Y-17372460D02*
X11827103Y-17629603D01*
X12255675Y-17381984D02*
X12274722Y-17381984D01*
X12274722Y-17381984D02*
X12293770Y-17391508D01*
X12293770Y-17391508D02*
X12303294Y-17401031D01*
X12303294Y-17401031D02*
X12312818Y-17420079D01*
X12312818Y-17420079D02*
X12322341Y-17458174D01*
X12322341Y-17458174D02*
X12322341Y-17505793D01*
X12322341Y-17505793D02*
X12312818Y-17543889D01*
X12312818Y-17543889D02*
X12303294Y-17562936D01*
X12303294Y-17562936D02*
X12293770Y-17572460D01*
X12293770Y-17572460D02*
X12274722Y-17581984D01*
X12274722Y-17581984D02*
X12255675Y-17581984D01*
X12255675Y-17581984D02*
X12236627Y-17572460D01*
X12236627Y-17572460D02*
X12227103Y-17562936D01*
X12227103Y-17562936D02*
X12217579Y-17543889D01*
X12217579Y-17543889D02*
X12208056Y-17505793D01*
X12208056Y-17505793D02*
X12208056Y-17458174D01*
X12208056Y-17458174D02*
X12217579Y-17420079D01*
X12217579Y-17420079D02*
X12227103Y-17401031D01*
X12227103Y-17401031D02*
X12236627Y-17391508D01*
X12236627Y-17391508D02*
X12255675Y-17381984D01*
X12408056Y-17562936D02*
X12417579Y-17572460D01*
X12417579Y-17572460D02*
X12408056Y-17581984D01*
X12408056Y-17581984D02*
X12398532Y-17572460D01*
X12398532Y-17572460D02*
X12408056Y-17562936D01*
X12408056Y-17562936D02*
X12408056Y-17581984D01*
X12541389Y-17381984D02*
X12560437Y-17381984D01*
X12560437Y-17381984D02*
X12579484Y-17391508D01*
X12579484Y-17391508D02*
X12589008Y-17401031D01*
X12589008Y-17401031D02*
X12598532Y-17420079D01*
X12598532Y-17420079D02*
X12608056Y-17458174D01*
X12608056Y-17458174D02*
X12608056Y-17505793D01*
X12608056Y-17505793D02*
X12598532Y-17543889D01*
X12598532Y-17543889D02*
X12589008Y-17562936D01*
X12589008Y-17562936D02*
X12579484Y-17572460D01*
X12579484Y-17572460D02*
X12560437Y-17581984D01*
X12560437Y-17581984D02*
X12541389Y-17581984D01*
X12541389Y-17581984D02*
X12522341Y-17572460D01*
X12522341Y-17572460D02*
X12512818Y-17562936D01*
X12512818Y-17562936D02*
X12503294Y-17543889D01*
X12503294Y-17543889D02*
X12493770Y-17505793D01*
X12493770Y-17505793D02*
X12493770Y-17458174D01*
X12493770Y-17458174D02*
X12503294Y-17420079D01*
X12503294Y-17420079D02*
X12512818Y-17401031D01*
X12512818Y-17401031D02*
X12522341Y-17391508D01*
X12522341Y-17391508D02*
X12541389Y-17381984D01*
X12789008Y-17381984D02*
X12693770Y-17381984D01*
X12693770Y-17381984D02*
X12684246Y-17477222D01*
X12684246Y-17477222D02*
X12693770Y-17467698D01*
X12693770Y-17467698D02*
X12712818Y-17458174D01*
X12712818Y-17458174D02*
X12760437Y-17458174D01*
X12760437Y-17458174D02*
X12779484Y-17467698D01*
X12779484Y-17467698D02*
X12789008Y-17477222D01*
X12789008Y-17477222D02*
X12798532Y-17496270D01*
X12798532Y-17496270D02*
X12798532Y-17543889D01*
X12798532Y-17543889D02*
X12789008Y-17562936D01*
X12789008Y-17562936D02*
X12779484Y-17572460D01*
X12779484Y-17572460D02*
X12760437Y-17581984D01*
X12760437Y-17581984D02*
X12712818Y-17581984D01*
X12712818Y-17581984D02*
X12693770Y-17572460D01*
X12693770Y-17572460D02*
X12684246Y-17562936D01*
X12922341Y-17381984D02*
X12941389Y-17381984D01*
X12941389Y-17381984D02*
X12960437Y-17391508D01*
X12960437Y-17391508D02*
X12969960Y-17401031D01*
X12969960Y-17401031D02*
X12979484Y-17420079D01*
X12979484Y-17420079D02*
X12989008Y-17458174D01*
X12989008Y-17458174D02*
X12989008Y-17505793D01*
X12989008Y-17505793D02*
X12979484Y-17543889D01*
X12979484Y-17543889D02*
X12969960Y-17562936D01*
X12969960Y-17562936D02*
X12960437Y-17572460D01*
X12960437Y-17572460D02*
X12941389Y-17581984D01*
X12941389Y-17581984D02*
X12922341Y-17581984D01*
X12922341Y-17581984D02*
X12903294Y-17572460D01*
X12903294Y-17572460D02*
X12893770Y-17562936D01*
X12893770Y-17562936D02*
X12884246Y-17543889D01*
X12884246Y-17543889D02*
X12874722Y-17505793D01*
X12874722Y-17505793D02*
X12874722Y-17458174D01*
X12874722Y-17458174D02*
X12884246Y-17420079D01*
X12884246Y-17420079D02*
X12893770Y-17401031D01*
X12893770Y-17401031D02*
X12903294Y-17391508D01*
X12903294Y-17391508D02*
X12922341Y-17381984D01*
X13112818Y-17381984D02*
X13131865Y-17381984D01*
X13131865Y-17381984D02*
X13150913Y-17391508D01*
X13150913Y-17391508D02*
X13160437Y-17401031D01*
X13160437Y-17401031D02*
X13169960Y-17420079D01*
X13169960Y-17420079D02*
X13179484Y-17458174D01*
X13179484Y-17458174D02*
X13179484Y-17505793D01*
X13179484Y-17505793D02*
X13169960Y-17543889D01*
X13169960Y-17543889D02*
X13160437Y-17562936D01*
X13160437Y-17562936D02*
X13150913Y-17572460D01*
X13150913Y-17572460D02*
X13131865Y-17581984D01*
X13131865Y-17581984D02*
X13112818Y-17581984D01*
X13112818Y-17581984D02*
X13093770Y-17572460D01*
X13093770Y-17572460D02*
X13084246Y-17562936D01*
X13084246Y-17562936D02*
X13074722Y-17543889D01*
X13074722Y-17543889D02*
X13065199Y-17505793D01*
X13065199Y-17505793D02*
X13065199Y-17458174D01*
X13065199Y-17458174D02*
X13074722Y-17420079D01*
X13074722Y-17420079D02*
X13084246Y-17401031D01*
X13084246Y-17401031D02*
X13093770Y-17391508D01*
X13093770Y-17391508D02*
X13112818Y-17381984D01*
X13255675Y-17381984D02*
X13255675Y-17420079D01*
X13331865Y-17381984D02*
X13331865Y-17420079D01*
X13627103Y-17658174D02*
X13617580Y-17648650D01*
X13617580Y-17648650D02*
X13598532Y-17620079D01*
X13598532Y-17620079D02*
X13589008Y-17601031D01*
X13589008Y-17601031D02*
X13579484Y-17572460D01*
X13579484Y-17572460D02*
X13569961Y-17524841D01*
X13569961Y-17524841D02*
X13569961Y-17486746D01*
X13569961Y-17486746D02*
X13579484Y-17439127D01*
X13579484Y-17439127D02*
X13589008Y-17410555D01*
X13589008Y-17410555D02*
X13598532Y-17391508D01*
X13598532Y-17391508D02*
X13617580Y-17362936D01*
X13617580Y-17362936D02*
X13627103Y-17353412D01*
X13684246Y-17381984D02*
X13808056Y-17381984D01*
X13808056Y-17381984D02*
X13741389Y-17458174D01*
X13741389Y-17458174D02*
X13769961Y-17458174D01*
X13769961Y-17458174D02*
X13789008Y-17467698D01*
X13789008Y-17467698D02*
X13798532Y-17477222D01*
X13798532Y-17477222D02*
X13808056Y-17496270D01*
X13808056Y-17496270D02*
X13808056Y-17543889D01*
X13808056Y-17543889D02*
X13798532Y-17562936D01*
X13798532Y-17562936D02*
X13789008Y-17572460D01*
X13789008Y-17572460D02*
X13769961Y-17581984D01*
X13769961Y-17581984D02*
X13712818Y-17581984D01*
X13712818Y-17581984D02*
X13693770Y-17572460D01*
X13693770Y-17572460D02*
X13684246Y-17562936D01*
X14046151Y-17581984D02*
X14046151Y-17381984D01*
X14131865Y-17581984D02*
X14131865Y-17477222D01*
X14131865Y-17477222D02*
X14122342Y-17458174D01*
X14122342Y-17458174D02*
X14103294Y-17448650D01*
X14103294Y-17448650D02*
X14074722Y-17448650D01*
X14074722Y-17448650D02*
X14055675Y-17458174D01*
X14055675Y-17458174D02*
X14046151Y-17467698D01*
X14255675Y-17581984D02*
X14236627Y-17572460D01*
X14236627Y-17572460D02*
X14227103Y-17562936D01*
X14227103Y-17562936D02*
X14217580Y-17543889D01*
X14217580Y-17543889D02*
X14217580Y-17486746D01*
X14217580Y-17486746D02*
X14227103Y-17467698D01*
X14227103Y-17467698D02*
X14236627Y-17458174D01*
X14236627Y-17458174D02*
X14255675Y-17448650D01*
X14255675Y-17448650D02*
X14284246Y-17448650D01*
X14284246Y-17448650D02*
X14303294Y-17458174D01*
X14303294Y-17458174D02*
X14312818Y-17467698D01*
X14312818Y-17467698D02*
X14322342Y-17486746D01*
X14322342Y-17486746D02*
X14322342Y-17543889D01*
X14322342Y-17543889D02*
X14312818Y-17562936D01*
X14312818Y-17562936D02*
X14303294Y-17572460D01*
X14303294Y-17572460D02*
X14284246Y-17581984D01*
X14284246Y-17581984D02*
X14255675Y-17581984D01*
X14436627Y-17581984D02*
X14417580Y-17572460D01*
X14417580Y-17572460D02*
X14408056Y-17553412D01*
X14408056Y-17553412D02*
X14408056Y-17381984D01*
X14589008Y-17572460D02*
X14569961Y-17581984D01*
X14569961Y-17581984D02*
X14531865Y-17581984D01*
X14531865Y-17581984D02*
X14512818Y-17572460D01*
X14512818Y-17572460D02*
X14503294Y-17553412D01*
X14503294Y-17553412D02*
X14503294Y-17477222D01*
X14503294Y-17477222D02*
X14512818Y-17458174D01*
X14512818Y-17458174D02*
X14531865Y-17448650D01*
X14531865Y-17448650D02*
X14569961Y-17448650D01*
X14569961Y-17448650D02*
X14589008Y-17458174D01*
X14589008Y-17458174D02*
X14598532Y-17477222D01*
X14598532Y-17477222D02*
X14598532Y-17496270D01*
X14598532Y-17496270D02*
X14503294Y-17515317D01*
X14674723Y-17572460D02*
X14693770Y-17581984D01*
X14693770Y-17581984D02*
X14731865Y-17581984D01*
X14731865Y-17581984D02*
X14750913Y-17572460D01*
X14750913Y-17572460D02*
X14760437Y-17553412D01*
X14760437Y-17553412D02*
X14760437Y-17543889D01*
X14760437Y-17543889D02*
X14750913Y-17524841D01*
X14750913Y-17524841D02*
X14731865Y-17515317D01*
X14731865Y-17515317D02*
X14703294Y-17515317D01*
X14703294Y-17515317D02*
X14684246Y-17505793D01*
X14684246Y-17505793D02*
X14674723Y-17486746D01*
X14674723Y-17486746D02*
X14674723Y-17477222D01*
X14674723Y-17477222D02*
X14684246Y-17458174D01*
X14684246Y-17458174D02*
X14703294Y-17448650D01*
X14703294Y-17448650D02*
X14731865Y-17448650D01*
X14731865Y-17448650D02*
X14750913Y-17458174D01*
X14827104Y-17658174D02*
X14836627Y-17648650D01*
X14836627Y-17648650D02*
X14855675Y-17620079D01*
X14855675Y-17620079D02*
X14865199Y-17601031D01*
X14865199Y-17601031D02*
X14874723Y-17572460D01*
X14874723Y-17572460D02*
X14884246Y-17524841D01*
X14884246Y-17524841D02*
X14884246Y-17486746D01*
X14884246Y-17486746D02*
X14874723Y-17439127D01*
X14874723Y-17439127D02*
X14865199Y-17410555D01*
X14865199Y-17410555D02*
X14855675Y-17391508D01*
X14855675Y-17391508D02*
X14836627Y-17362936D01*
X14836627Y-17362936D02*
X14827104Y-17353412D01*
D17*
X9897041Y-17677000D02*
X10052041Y-17832000D01*
X10052041Y-17677000D02*
X9897041Y-17832000D01*
X9974541Y-17832000D02*
X10052041Y-17754500D01*
X9974541Y-17677000D01*
X9897041Y-17754500D01*
X9974541Y-17832000D01*
D11*
X10417579Y-17845984D02*
X10303294Y-17845984D01*
X10360436Y-17845984D02*
X10360436Y-17645984D01*
X10360436Y-17645984D02*
X10341389Y-17674555D01*
X10341389Y-17674555D02*
X10322341Y-17693603D01*
X10322341Y-17693603D02*
X10303294Y-17703127D01*
X10503294Y-17826936D02*
X10512817Y-17836460D01*
X10512817Y-17836460D02*
X10503294Y-17845984D01*
X10503294Y-17845984D02*
X10493770Y-17836460D01*
X10493770Y-17836460D02*
X10503294Y-17826936D01*
X10503294Y-17826936D02*
X10503294Y-17845984D01*
X10693770Y-17645984D02*
X10598532Y-17645984D01*
X10598532Y-17645984D02*
X10589008Y-17741222D01*
X10589008Y-17741222D02*
X10598532Y-17731698D01*
X10598532Y-17731698D02*
X10617579Y-17722174D01*
X10617579Y-17722174D02*
X10665198Y-17722174D01*
X10665198Y-17722174D02*
X10684246Y-17731698D01*
X10684246Y-17731698D02*
X10693770Y-17741222D01*
X10693770Y-17741222D02*
X10703294Y-17760270D01*
X10703294Y-17760270D02*
X10703294Y-17807889D01*
X10703294Y-17807889D02*
X10693770Y-17826936D01*
X10693770Y-17826936D02*
X10684246Y-17836460D01*
X10684246Y-17836460D02*
X10665198Y-17845984D01*
X10665198Y-17845984D02*
X10617579Y-17845984D01*
X10617579Y-17845984D02*
X10598532Y-17836460D01*
X10598532Y-17836460D02*
X10589008Y-17826936D01*
X10884246Y-17645984D02*
X10789008Y-17645984D01*
X10789008Y-17645984D02*
X10779484Y-17741222D01*
X10779484Y-17741222D02*
X10789008Y-17731698D01*
X10789008Y-17731698D02*
X10808056Y-17722174D01*
X10808056Y-17722174D02*
X10855675Y-17722174D01*
X10855675Y-17722174D02*
X10874722Y-17731698D01*
X10874722Y-17731698D02*
X10884246Y-17741222D01*
X10884246Y-17741222D02*
X10893770Y-17760270D01*
X10893770Y-17760270D02*
X10893770Y-17807889D01*
X10893770Y-17807889D02*
X10884246Y-17826936D01*
X10884246Y-17826936D02*
X10874722Y-17836460D01*
X10874722Y-17836460D02*
X10855675Y-17845984D01*
X10855675Y-17845984D02*
X10808056Y-17845984D01*
X10808056Y-17845984D02*
X10789008Y-17836460D01*
X10789008Y-17836460D02*
X10779484Y-17826936D01*
X11017579Y-17645984D02*
X11036627Y-17645984D01*
X11036627Y-17645984D02*
X11055675Y-17655508D01*
X11055675Y-17655508D02*
X11065198Y-17665031D01*
X11065198Y-17665031D02*
X11074722Y-17684079D01*
X11074722Y-17684079D02*
X11084246Y-17722174D01*
X11084246Y-17722174D02*
X11084246Y-17769793D01*
X11084246Y-17769793D02*
X11074722Y-17807889D01*
X11074722Y-17807889D02*
X11065198Y-17826936D01*
X11065198Y-17826936D02*
X11055675Y-17836460D01*
X11055675Y-17836460D02*
X11036627Y-17845984D01*
X11036627Y-17845984D02*
X11017579Y-17845984D01*
X11017579Y-17845984D02*
X10998532Y-17836460D01*
X10998532Y-17836460D02*
X10989008Y-17826936D01*
X10989008Y-17826936D02*
X10979484Y-17807889D01*
X10979484Y-17807889D02*
X10969960Y-17769793D01*
X10969960Y-17769793D02*
X10969960Y-17722174D01*
X10969960Y-17722174D02*
X10979484Y-17684079D01*
X10979484Y-17684079D02*
X10989008Y-17665031D01*
X10989008Y-17665031D02*
X10998532Y-17655508D01*
X10998532Y-17655508D02*
X11017579Y-17645984D01*
X11169960Y-17845984D02*
X11169960Y-17712650D01*
X11169960Y-17731698D02*
X11179484Y-17722174D01*
X11179484Y-17722174D02*
X11198532Y-17712650D01*
X11198532Y-17712650D02*
X11227103Y-17712650D01*
X11227103Y-17712650D02*
X11246151Y-17722174D01*
X11246151Y-17722174D02*
X11255675Y-17741222D01*
X11255675Y-17741222D02*
X11255675Y-17845984D01*
X11255675Y-17741222D02*
X11265198Y-17722174D01*
X11265198Y-17722174D02*
X11284246Y-17712650D01*
X11284246Y-17712650D02*
X11312817Y-17712650D01*
X11312817Y-17712650D02*
X11331865Y-17722174D01*
X11331865Y-17722174D02*
X11341389Y-17741222D01*
X11341389Y-17741222D02*
X11341389Y-17845984D01*
X11436627Y-17845984D02*
X11436627Y-17712650D01*
X11436627Y-17731698D02*
X11446151Y-17722174D01*
X11446151Y-17722174D02*
X11465198Y-17712650D01*
X11465198Y-17712650D02*
X11493770Y-17712650D01*
X11493770Y-17712650D02*
X11512817Y-17722174D01*
X11512817Y-17722174D02*
X11522341Y-17741222D01*
X11522341Y-17741222D02*
X11522341Y-17845984D01*
X11522341Y-17741222D02*
X11531865Y-17722174D01*
X11531865Y-17722174D02*
X11550913Y-17712650D01*
X11550913Y-17712650D02*
X11579484Y-17712650D01*
X11579484Y-17712650D02*
X11598532Y-17722174D01*
X11598532Y-17722174D02*
X11608056Y-17741222D01*
X11608056Y-17741222D02*
X11608056Y-17845984D01*
X11998532Y-17636460D02*
X11827103Y-17893603D01*
X12255675Y-17645984D02*
X12274722Y-17645984D01*
X12274722Y-17645984D02*
X12293770Y-17655508D01*
X12293770Y-17655508D02*
X12303294Y-17665031D01*
X12303294Y-17665031D02*
X12312818Y-17684079D01*
X12312818Y-17684079D02*
X12322341Y-17722174D01*
X12322341Y-17722174D02*
X12322341Y-17769793D01*
X12322341Y-17769793D02*
X12312818Y-17807889D01*
X12312818Y-17807889D02*
X12303294Y-17826936D01*
X12303294Y-17826936D02*
X12293770Y-17836460D01*
X12293770Y-17836460D02*
X12274722Y-17845984D01*
X12274722Y-17845984D02*
X12255675Y-17845984D01*
X12255675Y-17845984D02*
X12236627Y-17836460D01*
X12236627Y-17836460D02*
X12227103Y-17826936D01*
X12227103Y-17826936D02*
X12217579Y-17807889D01*
X12217579Y-17807889D02*
X12208056Y-17769793D01*
X12208056Y-17769793D02*
X12208056Y-17722174D01*
X12208056Y-17722174D02*
X12217579Y-17684079D01*
X12217579Y-17684079D02*
X12227103Y-17665031D01*
X12227103Y-17665031D02*
X12236627Y-17655508D01*
X12236627Y-17655508D02*
X12255675Y-17645984D01*
X12408056Y-17826936D02*
X12417579Y-17836460D01*
X12417579Y-17836460D02*
X12408056Y-17845984D01*
X12408056Y-17845984D02*
X12398532Y-17836460D01*
X12398532Y-17836460D02*
X12408056Y-17826936D01*
X12408056Y-17826936D02*
X12408056Y-17845984D01*
X12541389Y-17645984D02*
X12560437Y-17645984D01*
X12560437Y-17645984D02*
X12579484Y-17655508D01*
X12579484Y-17655508D02*
X12589008Y-17665031D01*
X12589008Y-17665031D02*
X12598532Y-17684079D01*
X12598532Y-17684079D02*
X12608056Y-17722174D01*
X12608056Y-17722174D02*
X12608056Y-17769793D01*
X12608056Y-17769793D02*
X12598532Y-17807889D01*
X12598532Y-17807889D02*
X12589008Y-17826936D01*
X12589008Y-17826936D02*
X12579484Y-17836460D01*
X12579484Y-17836460D02*
X12560437Y-17845984D01*
X12560437Y-17845984D02*
X12541389Y-17845984D01*
X12541389Y-17845984D02*
X12522341Y-17836460D01*
X12522341Y-17836460D02*
X12512818Y-17826936D01*
X12512818Y-17826936D02*
X12503294Y-17807889D01*
X12503294Y-17807889D02*
X12493770Y-17769793D01*
X12493770Y-17769793D02*
X12493770Y-17722174D01*
X12493770Y-17722174D02*
X12503294Y-17684079D01*
X12503294Y-17684079D02*
X12512818Y-17665031D01*
X12512818Y-17665031D02*
X12522341Y-17655508D01*
X12522341Y-17655508D02*
X12541389Y-17645984D01*
X12779484Y-17645984D02*
X12741389Y-17645984D01*
X12741389Y-17645984D02*
X12722341Y-17655508D01*
X12722341Y-17655508D02*
X12712818Y-17665031D01*
X12712818Y-17665031D02*
X12693770Y-17693603D01*
X12693770Y-17693603D02*
X12684246Y-17731698D01*
X12684246Y-17731698D02*
X12684246Y-17807889D01*
X12684246Y-17807889D02*
X12693770Y-17826936D01*
X12693770Y-17826936D02*
X12703294Y-17836460D01*
X12703294Y-17836460D02*
X12722341Y-17845984D01*
X12722341Y-17845984D02*
X12760437Y-17845984D01*
X12760437Y-17845984D02*
X12779484Y-17836460D01*
X12779484Y-17836460D02*
X12789008Y-17826936D01*
X12789008Y-17826936D02*
X12798532Y-17807889D01*
X12798532Y-17807889D02*
X12798532Y-17760270D01*
X12798532Y-17760270D02*
X12789008Y-17741222D01*
X12789008Y-17741222D02*
X12779484Y-17731698D01*
X12779484Y-17731698D02*
X12760437Y-17722174D01*
X12760437Y-17722174D02*
X12722341Y-17722174D01*
X12722341Y-17722174D02*
X12703294Y-17731698D01*
X12703294Y-17731698D02*
X12693770Y-17741222D01*
X12693770Y-17741222D02*
X12684246Y-17760270D01*
X12989008Y-17845984D02*
X12874722Y-17845984D01*
X12931865Y-17845984D02*
X12931865Y-17645984D01*
X12931865Y-17645984D02*
X12912818Y-17674555D01*
X12912818Y-17674555D02*
X12893770Y-17693603D01*
X12893770Y-17693603D02*
X12874722Y-17703127D01*
X13112818Y-17645984D02*
X13131865Y-17645984D01*
X13131865Y-17645984D02*
X13150913Y-17655508D01*
X13150913Y-17655508D02*
X13160437Y-17665031D01*
X13160437Y-17665031D02*
X13169960Y-17684079D01*
X13169960Y-17684079D02*
X13179484Y-17722174D01*
X13179484Y-17722174D02*
X13179484Y-17769793D01*
X13179484Y-17769793D02*
X13169960Y-17807889D01*
X13169960Y-17807889D02*
X13160437Y-17826936D01*
X13160437Y-17826936D02*
X13150913Y-17836460D01*
X13150913Y-17836460D02*
X13131865Y-17845984D01*
X13131865Y-17845984D02*
X13112818Y-17845984D01*
X13112818Y-17845984D02*
X13093770Y-17836460D01*
X13093770Y-17836460D02*
X13084246Y-17826936D01*
X13084246Y-17826936D02*
X13074722Y-17807889D01*
X13074722Y-17807889D02*
X13065199Y-17769793D01*
X13065199Y-17769793D02*
X13065199Y-17722174D01*
X13065199Y-17722174D02*
X13074722Y-17684079D01*
X13074722Y-17684079D02*
X13084246Y-17665031D01*
X13084246Y-17665031D02*
X13093770Y-17655508D01*
X13093770Y-17655508D02*
X13112818Y-17645984D01*
X13255675Y-17645984D02*
X13255675Y-17684079D01*
X13331865Y-17645984D02*
X13331865Y-17684079D01*
X13627103Y-17922174D02*
X13617580Y-17912650D01*
X13617580Y-17912650D02*
X13598532Y-17884079D01*
X13598532Y-17884079D02*
X13589008Y-17865031D01*
X13589008Y-17865031D02*
X13579484Y-17836460D01*
X13579484Y-17836460D02*
X13569961Y-17788841D01*
X13569961Y-17788841D02*
X13569961Y-17750746D01*
X13569961Y-17750746D02*
X13579484Y-17703127D01*
X13579484Y-17703127D02*
X13589008Y-17674555D01*
X13589008Y-17674555D02*
X13598532Y-17655508D01*
X13598532Y-17655508D02*
X13617580Y-17626936D01*
X13617580Y-17626936D02*
X13627103Y-17617412D01*
X13789008Y-17712650D02*
X13789008Y-17845984D01*
X13741389Y-17636460D02*
X13693770Y-17779317D01*
X13693770Y-17779317D02*
X13817580Y-17779317D01*
X14046151Y-17845984D02*
X14046151Y-17645984D01*
X14131865Y-17845984D02*
X14131865Y-17741222D01*
X14131865Y-17741222D02*
X14122342Y-17722174D01*
X14122342Y-17722174D02*
X14103294Y-17712650D01*
X14103294Y-17712650D02*
X14074722Y-17712650D01*
X14074722Y-17712650D02*
X14055675Y-17722174D01*
X14055675Y-17722174D02*
X14046151Y-17731698D01*
X14255675Y-17845984D02*
X14236627Y-17836460D01*
X14236627Y-17836460D02*
X14227103Y-17826936D01*
X14227103Y-17826936D02*
X14217580Y-17807889D01*
X14217580Y-17807889D02*
X14217580Y-17750746D01*
X14217580Y-17750746D02*
X14227103Y-17731698D01*
X14227103Y-17731698D02*
X14236627Y-17722174D01*
X14236627Y-17722174D02*
X14255675Y-17712650D01*
X14255675Y-17712650D02*
X14284246Y-17712650D01*
X14284246Y-17712650D02*
X14303294Y-17722174D01*
X14303294Y-17722174D02*
X14312818Y-17731698D01*
X14312818Y-17731698D02*
X14322342Y-17750746D01*
X14322342Y-17750746D02*
X14322342Y-17807889D01*
X14322342Y-17807889D02*
X14312818Y-17826936D01*
X14312818Y-17826936D02*
X14303294Y-17836460D01*
X14303294Y-17836460D02*
X14284246Y-17845984D01*
X14284246Y-17845984D02*
X14255675Y-17845984D01*
X14436627Y-17845984D02*
X14417580Y-17836460D01*
X14417580Y-17836460D02*
X14408056Y-17817412D01*
X14408056Y-17817412D02*
X14408056Y-17645984D01*
X14589008Y-17836460D02*
X14569961Y-17845984D01*
X14569961Y-17845984D02*
X14531865Y-17845984D01*
X14531865Y-17845984D02*
X14512818Y-17836460D01*
X14512818Y-17836460D02*
X14503294Y-17817412D01*
X14503294Y-17817412D02*
X14503294Y-17741222D01*
X14503294Y-17741222D02*
X14512818Y-17722174D01*
X14512818Y-17722174D02*
X14531865Y-17712650D01*
X14531865Y-17712650D02*
X14569961Y-17712650D01*
X14569961Y-17712650D02*
X14589008Y-17722174D01*
X14589008Y-17722174D02*
X14598532Y-17741222D01*
X14598532Y-17741222D02*
X14598532Y-17760270D01*
X14598532Y-17760270D02*
X14503294Y-17779317D01*
X14674723Y-17836460D02*
X14693770Y-17845984D01*
X14693770Y-17845984D02*
X14731865Y-17845984D01*
X14731865Y-17845984D02*
X14750913Y-17836460D01*
X14750913Y-17836460D02*
X14760437Y-17817412D01*
X14760437Y-17817412D02*
X14760437Y-17807889D01*
X14760437Y-17807889D02*
X14750913Y-17788841D01*
X14750913Y-17788841D02*
X14731865Y-17779317D01*
X14731865Y-17779317D02*
X14703294Y-17779317D01*
X14703294Y-17779317D02*
X14684246Y-17769793D01*
X14684246Y-17769793D02*
X14674723Y-17750746D01*
X14674723Y-17750746D02*
X14674723Y-17741222D01*
X14674723Y-17741222D02*
X14684246Y-17722174D01*
X14684246Y-17722174D02*
X14703294Y-17712650D01*
X14703294Y-17712650D02*
X14731865Y-17712650D01*
X14731865Y-17712650D02*
X14750913Y-17722174D01*
X14827104Y-17922174D02*
X14836627Y-17912650D01*
X14836627Y-17912650D02*
X14855675Y-17884079D01*
X14855675Y-17884079D02*
X14865199Y-17865031D01*
X14865199Y-17865031D02*
X14874723Y-17836460D01*
X14874723Y-17836460D02*
X14884246Y-17788841D01*
X14884246Y-17788841D02*
X14884246Y-17750746D01*
X14884246Y-17750746D02*
X14874723Y-17703127D01*
X14874723Y-17703127D02*
X14865199Y-17674555D01*
X14865199Y-17674555D02*
X14855675Y-17655508D01*
X14855675Y-17655508D02*
X14836627Y-17626936D01*
X14836627Y-17626936D02*
X14827104Y-17617412D01*
M02*
