%TF.GenerationSoftware,KiCad,Pcbnew,8.0.8*%
%TF.CreationDate,2025-02-24T10:44:51-05:00*%
%TF.ProjectId,filamento_3d,66696c61-6d65-46e7-946f-5f33642e6b69,rev?*%
%TF.SameCoordinates,Original*%
%TF.FileFunction,Soldermask,Top*%
%TF.FilePolarity,Negative*%
%FSLAX46Y46*%
G04 Gerber Fmt 4.6, Leading zero omitted, Abs format (unit mm)*
G04 Created by KiCad (PCBNEW 8.0.8) date 2025-02-24 10:44:51*
%MOMM*%
%LPD*%
G01*
G04 APERTURE LIST*
G04 Aperture macros list*
%AMRoundRect*
0 Rectangle with rounded corners*
0 $1 Rounding radius*
0 $2 $3 $4 $5 $6 $7 $8 $9 X,Y pos of 4 corners*
0 Add a 4 corners polygon primitive as box body*
4,1,4,$2,$3,$4,$5,$6,$7,$8,$9,$2,$3,0*
0 Add four circle primitives for the rounded corners*
1,1,$1+$1,$2,$3*
1,1,$1+$1,$4,$5*
1,1,$1+$1,$6,$7*
1,1,$1+$1,$8,$9*
0 Add four rect primitives between the rounded corners*
20,1,$1+$1,$2,$3,$4,$5,0*
20,1,$1+$1,$4,$5,$6,$7,0*
20,1,$1+$1,$6,$7,$8,$9,0*
20,1,$1+$1,$8,$9,$2,$3,0*%
G04 Aperture macros list end*
%ADD10C,1.400000*%
%ADD11O,1.400000X1.400000*%
%ADD12C,3.000000*%
%ADD13RoundRect,0.102000X1.000000X1.000000X-1.000000X1.000000X-1.000000X-1.000000X1.000000X-1.000000X0*%
%ADD14C,2.204000*%
%ADD15RoundRect,0.102000X0.955000X-0.955000X0.955000X0.955000X-0.955000X0.955000X-0.955000X-0.955000X0*%
%ADD16C,2.114000*%
%ADD17RoundRect,0.249999X-1.025001X-1.025001X1.025001X-1.025001X1.025001X1.025001X-1.025001X1.025001X0*%
%ADD18C,2.550000*%
%ADD19R,1.350000X1.350000*%
%ADD20O,1.350000X1.350000*%
%ADD21C,1.600000*%
%ADD22RoundRect,0.102000X0.838200X0.838200X-0.838200X0.838200X-0.838200X-0.838200X0.838200X-0.838200X0*%
%ADD23C,1.880400*%
%ADD24RoundRect,0.102000X-0.838200X-0.838200X0.838200X-0.838200X0.838200X0.838200X-0.838200X0.838200X0*%
%ADD25R,1.800000X1.800000*%
%ADD26C,1.800000*%
%ADD27RoundRect,0.102000X-0.825000X0.825000X-0.825000X-0.825000X0.825000X-0.825000X0.825000X0.825000X0*%
%ADD28C,1.854000*%
%ADD29R,1.700000X1.700000*%
%ADD30O,1.700000X1.700000*%
G04 APERTURE END LIST*
D10*
%TO.C,R1*%
X108825406Y-116650000D03*
D11*
X108825406Y-124270000D03*
%TD*%
D12*
%TO.C,U1*%
X157825406Y-117460000D03*
X157825406Y-70510000D03*
X133315406Y-117460000D03*
X133315406Y-70510000D03*
D13*
X158245406Y-109500000D03*
D14*
X158245406Y-106960000D03*
X158245406Y-104420000D03*
X158245406Y-101880000D03*
X158245406Y-99340000D03*
X158245406Y-96800000D03*
X158245406Y-94260000D03*
X158245406Y-91720000D03*
X158245406Y-89180000D03*
X158245406Y-86640000D03*
X158245406Y-84100000D03*
X158245406Y-81560000D03*
X158245406Y-79020000D03*
X158245406Y-76480000D03*
X158245406Y-73940000D03*
X132845406Y-73940000D03*
X132845406Y-76480000D03*
X132845406Y-79020000D03*
X132845406Y-81560000D03*
X132845406Y-84100000D03*
X132845406Y-86640000D03*
X132845406Y-89180000D03*
X132845406Y-91720000D03*
X132845406Y-94260000D03*
X132845406Y-96800000D03*
X132845406Y-99340000D03*
X132845406Y-101880000D03*
X132845406Y-104420000D03*
X132845406Y-106960000D03*
X132845406Y-109500000D03*
%TD*%
D15*
%TO.C,U2*%
X143505406Y-132500000D03*
D16*
X146045406Y-132500000D03*
X148585406Y-132500000D03*
%TD*%
D17*
%TO.C,SW1*%
X123745406Y-142500000D03*
D18*
X128545406Y-142500000D03*
%TD*%
D19*
%TO.C,J6*%
X172045406Y-73000000D03*
D20*
X174045406Y-73000000D03*
X176045406Y-73000000D03*
X178045406Y-73000000D03*
X180045406Y-73000000D03*
%TD*%
D21*
%TO.C,C3*%
X162000000Y-142000000D03*
X164500000Y-142000000D03*
%TD*%
D22*
%TO.C,D2*%
X118045406Y-100280000D03*
D23*
X118045406Y-97740000D03*
X118045406Y-95200000D03*
X118045406Y-92660000D03*
X118045406Y-90120000D03*
X118045406Y-87580000D03*
X118045406Y-85040000D03*
X118045406Y-82500000D03*
X110425406Y-82500000D03*
X110425406Y-85040000D03*
X110425406Y-87580000D03*
X110425406Y-90120000D03*
X110425406Y-92660000D03*
X110425406Y-95200000D03*
X110425406Y-97740000D03*
X110425406Y-100280000D03*
%TD*%
D10*
%TO.C,R2*%
X108825406Y-138770000D03*
D11*
X108825406Y-131150000D03*
%TD*%
D24*
%TO.C,D1*%
X172925406Y-82380000D03*
D23*
X172925406Y-84920000D03*
X172925406Y-87460000D03*
X172925406Y-90000000D03*
X172925406Y-92540000D03*
X172925406Y-95080000D03*
X172925406Y-97620000D03*
X172925406Y-100160000D03*
X180545406Y-100160000D03*
X180545406Y-97620000D03*
X180545406Y-95080000D03*
X180545406Y-92540000D03*
X180545406Y-90000000D03*
X180545406Y-87460000D03*
X180545406Y-84920000D03*
X180545406Y-82380000D03*
%TD*%
D21*
%TO.C,C2*%
X113295406Y-108000000D03*
X115795406Y-108000000D03*
%TD*%
%TO.C,C1*%
X175295406Y-107120000D03*
X177795406Y-107120000D03*
%TD*%
D25*
%TO.C,D3*%
X114000000Y-133500000D03*
D26*
X114000000Y-136040000D03*
%TD*%
D17*
%TO.C,J2*%
X143645406Y-142000000D03*
D18*
X148445406Y-142000000D03*
%TD*%
D27*
%TO.C,P1*%
X184500000Y-133420000D03*
D28*
X184500000Y-138500000D03*
%TD*%
D29*
%TO.C,J4*%
X114045406Y-118460000D03*
D30*
X114045406Y-121000000D03*
X114045406Y-123540000D03*
%TD*%
D19*
%TO.C,J5*%
X118545406Y-73500000D03*
D20*
X116545406Y-73500000D03*
X114545406Y-73500000D03*
X112545406Y-73500000D03*
X110545406Y-73500000D03*
%TD*%
D21*
%TO.C,C4*%
X169500000Y-130500000D03*
X172000000Y-130500000D03*
%TD*%
M02*
