%TF.GenerationSoftware,KiCad,Pcbnew,8.0.8*%
%TF.CreationDate,2025-02-24T10:44:51-05:00*%
%TF.ProjectId,filamento_3d,66696c61-6d65-46e7-946f-5f33642e6b69,rev?*%
%TF.SameCoordinates,Original*%
%TF.FileFunction,Copper,L2,Bot*%
%TF.FilePolarity,Positive*%
%FSLAX46Y46*%
G04 Gerber Fmt 4.6, Leading zero omitted, Abs format (unit mm)*
G04 Created by KiCad (PCBNEW 8.0.8) date 2025-02-24 10:44:51*
%MOMM*%
%LPD*%
G01*
G04 APERTURE LIST*
G04 Aperture macros list*
%AMRoundRect*
0 Rectangle with rounded corners*
0 $1 Rounding radius*
0 $2 $3 $4 $5 $6 $7 $8 $9 X,Y pos of 4 corners*
0 Add a 4 corners polygon primitive as box body*
4,1,4,$2,$3,$4,$5,$6,$7,$8,$9,$2,$3,0*
0 Add four circle primitives for the rounded corners*
1,1,$1+$1,$2,$3*
1,1,$1+$1,$4,$5*
1,1,$1+$1,$6,$7*
1,1,$1+$1,$8,$9*
0 Add four rect primitives between the rounded corners*
20,1,$1+$1,$2,$3,$4,$5,0*
20,1,$1+$1,$4,$5,$6,$7,0*
20,1,$1+$1,$6,$7,$8,$9,0*
20,1,$1+$1,$8,$9,$2,$3,0*%
G04 Aperture macros list end*
%TA.AperFunction,ComponentPad*%
%ADD10C,1.400000*%
%TD*%
%TA.AperFunction,ComponentPad*%
%ADD11O,1.400000X1.400000*%
%TD*%
%TA.AperFunction,ComponentPad*%
%ADD12R,2.000000X2.000000*%
%TD*%
%TA.AperFunction,ComponentPad*%
%ADD13C,2.000000*%
%TD*%
%TA.AperFunction,ComponentPad*%
%ADD14R,1.910000X1.910000*%
%TD*%
%TA.AperFunction,ComponentPad*%
%ADD15C,1.910000*%
%TD*%
%TA.AperFunction,ComponentPad*%
%ADD16RoundRect,0.249999X-1.025001X-1.025001X1.025001X-1.025001X1.025001X1.025001X-1.025001X1.025001X0*%
%TD*%
%TA.AperFunction,ComponentPad*%
%ADD17C,2.550000*%
%TD*%
%TA.AperFunction,ComponentPad*%
%ADD18R,1.350000X1.350000*%
%TD*%
%TA.AperFunction,ComponentPad*%
%ADD19O,1.350000X1.350000*%
%TD*%
%TA.AperFunction,ComponentPad*%
%ADD20C,1.600000*%
%TD*%
%TA.AperFunction,ComponentPad*%
%ADD21R,1.676400X1.676400*%
%TD*%
%TA.AperFunction,ComponentPad*%
%ADD22C,1.676400*%
%TD*%
%TA.AperFunction,ComponentPad*%
%ADD23R,1.800000X1.800000*%
%TD*%
%TA.AperFunction,ComponentPad*%
%ADD24C,1.800000*%
%TD*%
%TA.AperFunction,ComponentPad*%
%ADD25R,1.650000X1.650000*%
%TD*%
%TA.AperFunction,ComponentPad*%
%ADD26C,1.650000*%
%TD*%
%TA.AperFunction,ComponentPad*%
%ADD27R,1.700000X1.700000*%
%TD*%
%TA.AperFunction,ComponentPad*%
%ADD28O,1.700000X1.700000*%
%TD*%
%TA.AperFunction,Conductor*%
%ADD29C,1.000000*%
%TD*%
%TA.AperFunction,Conductor*%
%ADD30C,0.600000*%
%TD*%
G04 APERTURE END LIST*
D10*
%TO.P,R1,1*%
%TO.N,/sensor*%
X108825406Y-116650000D03*
D11*
%TO.P,R1,2*%
%TO.N,+5V*%
X108825406Y-124270000D03*
%TD*%
D12*
%TO.P,U1,1,3V3*%
%TO.N,unconnected-(U1-3V3-Pad1)*%
X158245406Y-109500000D03*
D13*
%TO.P,U1,2,GND*%
%TO.N,GND*%
X158245406Y-106960000D03*
%TO.P,U1,3,D15*%
%TO.N,unconnected-(U1-D15-Pad3)*%
X158245406Y-104420000D03*
%TO.P,U1,4,D2*%
%TO.N,unconnected-(U1-D2-Pad4)*%
X158245406Y-101880000D03*
%TO.P,U1,5,D4*%
%TO.N,unconnected-(U1-D4-Pad5)*%
X158245406Y-99340000D03*
%TO.P,U1,6,RX2*%
%TO.N,unconnected-(U1-RX2-Pad6)*%
X158245406Y-96800000D03*
%TO.P,U1,7,TX2*%
%TO.N,unconnected-(U1-TX2-Pad7)*%
X158245406Y-94260000D03*
%TO.P,U1,8,D5*%
%TO.N,/D1 in4*%
X158245406Y-91720000D03*
%TO.P,U1,9,D18*%
%TO.N,/D1 in3*%
X158245406Y-89180000D03*
%TO.P,U1,10,D19*%
%TO.N,/D1 in2*%
X158245406Y-86640000D03*
%TO.P,U1,11,D21*%
%TO.N,/D1 in1*%
X158245406Y-84100000D03*
%TO.P,U1,12,RX0*%
%TO.N,unconnected-(U1-RX0-Pad12)*%
X158245406Y-81560000D03*
%TO.P,U1,13,TX0*%
%TO.N,unconnected-(U1-TX0-Pad13)*%
X158245406Y-79020000D03*
%TO.P,U1,14,D22*%
%TO.N,unconnected-(U1-D22-Pad14)*%
X158245406Y-76480000D03*
%TO.P,U1,15,D23*%
%TO.N,unconnected-(U1-D23-Pad15)*%
X158245406Y-73940000D03*
%TO.P,U1,16,EN*%
%TO.N,unconnected-(U1-EN-Pad16)*%
X132845406Y-73940000D03*
%TO.P,U1,17,VP*%
%TO.N,unconnected-(U1-VP-Pad17)*%
X132845406Y-76480000D03*
%TO.P,U1,18,VN*%
%TO.N,unconnected-(U1-VN-Pad18)*%
X132845406Y-79020000D03*
%TO.P,U1,19,D34*%
%TO.N,unconnected-(U1-D34-Pad19)*%
X132845406Y-81560000D03*
%TO.P,U1,20,D35*%
%TO.N,unconnected-(U1-D35-Pad20)*%
X132845406Y-84100000D03*
%TO.P,U1,21,D32*%
%TO.N,/D2 in4*%
X132845406Y-86640000D03*
%TO.P,U1,22,D33*%
%TO.N,/D2 in3*%
X132845406Y-89180000D03*
%TO.P,U1,23,D25*%
%TO.N,/D2 in2*%
X132845406Y-91720000D03*
%TO.P,U1,24,D26*%
%TO.N,/D2 in1*%
X132845406Y-94260000D03*
%TO.P,U1,25,D27*%
%TO.N,unconnected-(U1-D27-Pad25)*%
X132845406Y-96800000D03*
%TO.P,U1,26,D14*%
%TO.N,unconnected-(U1-D14-Pad26)*%
X132845406Y-99340000D03*
%TO.P,U1,27,D12*%
%TO.N,/sensor*%
X132845406Y-101880000D03*
%TO.P,U1,28,D13*%
%TO.N,unconnected-(U1-D13-Pad28)*%
X132845406Y-104420000D03*
%TO.P,U1,29,GND*%
%TO.N,GND*%
X132845406Y-106960000D03*
%TO.P,U1,30,VIN*%
%TO.N,+5V*%
X132845406Y-109500000D03*
%TD*%
D14*
%TO.P,U2,1,IN*%
%TO.N,Net-(SW1-B)*%
X143505406Y-132500000D03*
D15*
%TO.P,U2,2,GND*%
%TO.N,GND*%
X146045406Y-132500000D03*
%TO.P,U2,3,OUT*%
%TO.N,+5V*%
X148585406Y-132500000D03*
%TD*%
D16*
%TO.P,SW1,1,A*%
%TO.N,+12V*%
X123745406Y-142500000D03*
D17*
%TO.P,SW1,2,B*%
%TO.N,Net-(SW1-B)*%
X128545406Y-142500000D03*
%TD*%
D18*
%TO.P,J6,1,Pin_1*%
%TO.N,+5V*%
X172045406Y-73000000D03*
D19*
%TO.P,J6,2,Pin_2*%
%TO.N,Net-(D1-OUT1)*%
X174045406Y-73000000D03*
%TO.P,J6,3,Pin_3*%
%TO.N,Net-(D1-OUT2)*%
X176045406Y-73000000D03*
%TO.P,J6,4,Pin_4*%
%TO.N,Net-(D1-OUT3)*%
X178045406Y-73000000D03*
%TO.P,J6,5,Pin_5*%
%TO.N,Net-(D1-OUT4)*%
X180045406Y-73000000D03*
%TD*%
D20*
%TO.P,C3,1*%
%TO.N,Net-(SW1-B)*%
X162000000Y-142000000D03*
%TO.P,C3,2*%
%TO.N,GND*%
X164500000Y-142000000D03*
%TD*%
D21*
%TO.P,D2,1,IN1*%
%TO.N,/D2 in1*%
X118045406Y-100280000D03*
D22*
%TO.P,D2,2,IN2*%
%TO.N,/D2 in2*%
X118045406Y-97740000D03*
%TO.P,D2,3,IN3*%
%TO.N,/D2 in3*%
X118045406Y-95200000D03*
%TO.P,D2,4,IN4*%
%TO.N,/D2 in4*%
X118045406Y-92660000D03*
%TO.P,D2,5,IN5*%
%TO.N,unconnected-(D2-IN5-Pad5)*%
X118045406Y-90120000D03*
%TO.P,D2,6,IN6*%
%TO.N,unconnected-(D2-IN6-Pad6)*%
X118045406Y-87580000D03*
%TO.P,D2,7,IN7*%
%TO.N,unconnected-(D2-IN7-Pad7)*%
X118045406Y-85040000D03*
%TO.P,D2,8,GND*%
%TO.N,GND*%
X118045406Y-82500000D03*
%TO.P,D2,9,COM*%
%TO.N,+5V*%
X110425406Y-82500000D03*
%TO.P,D2,10,OUT7*%
%TO.N,unconnected-(D2-OUT7-Pad10)*%
X110425406Y-85040000D03*
%TO.P,D2,11,OUT6*%
%TO.N,unconnected-(D2-OUT6-Pad11)*%
X110425406Y-87580000D03*
%TO.P,D2,12,OUT5*%
%TO.N,unconnected-(D2-OUT5-Pad12)*%
X110425406Y-90120000D03*
%TO.P,D2,13,OUT4*%
%TO.N,Net-(D2-OUT4)*%
X110425406Y-92660000D03*
%TO.P,D2,14,OUT3*%
%TO.N,Net-(D2-OUT3)*%
X110425406Y-95200000D03*
%TO.P,D2,15,OUT2*%
%TO.N,Net-(D2-OUT2)*%
X110425406Y-97740000D03*
%TO.P,D2,16,OUT1*%
%TO.N,Net-(D2-OUT1)*%
X110425406Y-100280000D03*
%TD*%
D10*
%TO.P,R2,1*%
%TO.N,Net-(D3-A)*%
X108825406Y-138770000D03*
D11*
%TO.P,R2,2*%
%TO.N,+5V*%
X108825406Y-131150000D03*
%TD*%
D21*
%TO.P,D1,1,IN1*%
%TO.N,/D1 in1*%
X172925406Y-82380000D03*
D22*
%TO.P,D1,2,IN2*%
%TO.N,/D1 in2*%
X172925406Y-84920000D03*
%TO.P,D1,3,IN3*%
%TO.N,/D1 in3*%
X172925406Y-87460000D03*
%TO.P,D1,4,IN4*%
%TO.N,/D1 in4*%
X172925406Y-90000000D03*
%TO.P,D1,5,IN5*%
%TO.N,unconnected-(D1-IN5-Pad5)*%
X172925406Y-92540000D03*
%TO.P,D1,6,IN6*%
%TO.N,unconnected-(D1-IN6-Pad6)*%
X172925406Y-95080000D03*
%TO.P,D1,7,IN7*%
%TO.N,unconnected-(D1-IN7-Pad7)*%
X172925406Y-97620000D03*
%TO.P,D1,8,GND*%
%TO.N,GND*%
X172925406Y-100160000D03*
%TO.P,D1,9,COM*%
%TO.N,+5V*%
X180545406Y-100160000D03*
%TO.P,D1,10,OUT7*%
%TO.N,unconnected-(D1-OUT7-Pad10)*%
X180545406Y-97620000D03*
%TO.P,D1,11,OUT6*%
%TO.N,unconnected-(D1-OUT6-Pad11)*%
X180545406Y-95080000D03*
%TO.P,D1,12,OUT5*%
%TO.N,unconnected-(D1-OUT5-Pad12)*%
X180545406Y-92540000D03*
%TO.P,D1,13,OUT4*%
%TO.N,Net-(D1-OUT4)*%
X180545406Y-90000000D03*
%TO.P,D1,14,OUT3*%
%TO.N,Net-(D1-OUT3)*%
X180545406Y-87460000D03*
%TO.P,D1,15,OUT2*%
%TO.N,Net-(D1-OUT2)*%
X180545406Y-84920000D03*
%TO.P,D1,16,OUT1*%
%TO.N,Net-(D1-OUT1)*%
X180545406Y-82380000D03*
%TD*%
D20*
%TO.P,C2,1*%
%TO.N,+5V*%
X113295406Y-108000000D03*
%TO.P,C2,2*%
%TO.N,GND*%
X115795406Y-108000000D03*
%TD*%
%TO.P,C1,1*%
%TO.N,+5V*%
X175295406Y-107120000D03*
%TO.P,C1,2*%
%TO.N,GND*%
X177795406Y-107120000D03*
%TD*%
D23*
%TO.P,D3,1,K*%
%TO.N,GND*%
X114000000Y-133500000D03*
D24*
%TO.P,D3,2,A*%
%TO.N,Net-(D3-A)*%
X114000000Y-136040000D03*
%TD*%
D16*
%TO.P,J2,1,Pin_1*%
%TO.N,+12V*%
X143645406Y-142000000D03*
D17*
%TO.P,J2,2,Pin_2*%
%TO.N,GND*%
X148445406Y-142000000D03*
%TD*%
D25*
%TO.P,P1,1,1*%
%TO.N,GND*%
X184500000Y-133420000D03*
D26*
%TO.P,P1,2,2*%
%TO.N,+12V*%
X184500000Y-138500000D03*
%TD*%
D27*
%TO.P,J4,1,Pin_1*%
%TO.N,/sensor*%
X114045406Y-118460000D03*
D28*
%TO.P,J4,2,Pin_2*%
%TO.N,+5V*%
X114045406Y-121000000D03*
%TO.P,J4,3,Pin_3*%
%TO.N,GND*%
X114045406Y-123540000D03*
%TD*%
D18*
%TO.P,J5,1,Pin_1*%
%TO.N,+5V*%
X118545406Y-73500000D03*
D19*
%TO.P,J5,2,Pin_2*%
%TO.N,Net-(D2-OUT1)*%
X116545406Y-73500000D03*
%TO.P,J5,3,Pin_3*%
%TO.N,Net-(D2-OUT2)*%
X114545406Y-73500000D03*
%TO.P,J5,4,Pin_4*%
%TO.N,Net-(D2-OUT3)*%
X112545406Y-73500000D03*
%TO.P,J5,5,Pin_5*%
%TO.N,Net-(D2-OUT4)*%
X110545406Y-73500000D03*
%TD*%
D20*
%TO.P,C4,1*%
%TO.N,+5V*%
X169500000Y-130500000D03*
%TO.P,C4,2*%
%TO.N,GND*%
X172000000Y-130500000D03*
%TD*%
D29*
%TO.N,+12V*%
X184500000Y-138500000D02*
X184500000Y-146045406D01*
X184500000Y-146045406D02*
X184045406Y-146500000D01*
X143645406Y-146354594D02*
X143500000Y-146500000D01*
X143645406Y-142000000D02*
X143645406Y-146354594D01*
X143500000Y-146500000D02*
X124545406Y-146500000D01*
X184045406Y-146500000D02*
X143500000Y-146500000D01*
X123745406Y-145700000D02*
X123745406Y-142500000D01*
X124545406Y-146500000D02*
X123745406Y-145700000D01*
%TO.N,+5V*%
X113295406Y-108000000D02*
X113295406Y-82750000D01*
X106500000Y-127000000D02*
X109499139Y-127000000D01*
X110499139Y-128000000D02*
X110499139Y-129476267D01*
X175295406Y-112410000D02*
X157602703Y-130102703D01*
X110499139Y-128000000D02*
X127545406Y-128000000D01*
X111500000Y-123500000D02*
X110730000Y-124270000D01*
X128545406Y-122000000D02*
X145345406Y-122000000D01*
X110730000Y-124270000D02*
X108825406Y-124270000D01*
X106500000Y-114795406D02*
X106500000Y-127000000D01*
X114045406Y-121000000D02*
X111545406Y-123500000D01*
X175295406Y-105410000D02*
X180545406Y-100160000D01*
X113295406Y-82750000D02*
X113045406Y-82500000D01*
X132845406Y-109500000D02*
X145422703Y-122077297D01*
X172045406Y-73000000D02*
X172045406Y-75045406D01*
X113295406Y-108000000D02*
X106500000Y-114795406D01*
X118545406Y-77000000D02*
X118545406Y-73500000D01*
X175295406Y-107120000D02*
X175295406Y-105410000D01*
X155205406Y-132500000D02*
X148585406Y-132500000D01*
X110499139Y-129476267D02*
X108825406Y-131150000D01*
X145345406Y-122000000D02*
X145422703Y-122077297D01*
X110425406Y-82500000D02*
X113045406Y-82500000D01*
X169500000Y-130500000D02*
X158000000Y-130500000D01*
X172045406Y-75045406D02*
X178500000Y-81500000D01*
X175295406Y-112410000D02*
X175295406Y-107120000D01*
X157602703Y-130102703D02*
X155205406Y-132500000D01*
X145422703Y-122077297D02*
X148585406Y-125240000D01*
X178500000Y-81500000D02*
X178500000Y-98114594D01*
X109499139Y-127000000D02*
X110499139Y-128000000D01*
X111545406Y-123500000D02*
X111500000Y-123500000D01*
X148585406Y-125240000D02*
X148585406Y-132500000D01*
X113045406Y-82500000D02*
X118545406Y-77000000D01*
X127545406Y-128000000D02*
X127545406Y-123000000D01*
X127545406Y-123000000D02*
X128545406Y-122000000D01*
X178500000Y-98114594D02*
X180545406Y-100160000D01*
X158000000Y-130500000D02*
X157602703Y-130102703D01*
%TO.N,/D1 in3*%
X158245406Y-89180000D02*
X166605406Y-89180000D01*
X168325406Y-87460000D02*
X172925406Y-87460000D01*
X166605406Y-89180000D02*
X168325406Y-87460000D01*
%TO.N,/D1 in1*%
X158245406Y-84100000D02*
X165685406Y-84100000D01*
X167405406Y-82380000D02*
X172925406Y-82380000D01*
X165685406Y-84100000D02*
X167405406Y-82380000D01*
%TO.N,/D1 in2*%
X158245406Y-86640000D02*
X166145406Y-86640000D01*
X167865406Y-84920000D02*
X172925406Y-84920000D01*
X166145406Y-86640000D02*
X167865406Y-84920000D01*
D30*
%TO.N,Net-(D1-OUT2)*%
X181937606Y-79512200D02*
X181937606Y-83527800D01*
X181937606Y-83527800D02*
X180545406Y-84920000D01*
X176045406Y-73000000D02*
X176045406Y-73620000D01*
X176045406Y-73620000D02*
X181937606Y-79512200D01*
%TO.N,Net-(D1-OUT3)*%
X183385406Y-84620000D02*
X180545406Y-87460000D01*
X178045406Y-73620000D02*
X183545406Y-79120000D01*
X183545406Y-84620000D02*
X183385406Y-84620000D01*
X183545406Y-79120000D02*
X183545406Y-84620000D01*
X178045406Y-73000000D02*
X178045406Y-73620000D01*
%TO.N,Net-(D1-OUT4)*%
X180045406Y-73000000D02*
X185045406Y-78000000D01*
X185045406Y-85500000D02*
X180545406Y-90000000D01*
X185045406Y-78000000D02*
X185045406Y-85500000D01*
%TO.N,Net-(D1-OUT1)*%
X174045406Y-73620000D02*
X180545406Y-80120000D01*
X180545406Y-80120000D02*
X180545406Y-82380000D01*
X174045406Y-73000000D02*
X174045406Y-73620000D01*
D29*
%TO.N,/D1 in4*%
X168785406Y-90000000D02*
X172925406Y-90000000D01*
X158245406Y-91720000D02*
X167065406Y-91720000D01*
X167065406Y-91720000D02*
X168785406Y-90000000D01*
%TO.N,/D2 in4*%
X128145406Y-86640000D02*
X132845406Y-86640000D01*
X118045406Y-92660000D02*
X122125406Y-92660000D01*
X122125406Y-92660000D02*
X128145406Y-86640000D01*
%TO.N,/D2 in2*%
X118045406Y-97740000D02*
X123045406Y-97740000D01*
X132845406Y-91720000D02*
X129065406Y-91720000D01*
X129065406Y-91720000D02*
X123045406Y-97740000D01*
D30*
%TO.N,Net-(D2-OUT4)*%
X108545406Y-75500000D02*
X108545406Y-90780000D01*
X108545406Y-90780000D02*
X110425406Y-92660000D01*
X110545406Y-73500000D02*
X108545406Y-75500000D01*
D29*
%TO.N,/D2 in1*%
X124325406Y-100460000D02*
X130525406Y-94260000D01*
X124145406Y-100280000D02*
X124325406Y-100460000D01*
X130525406Y-94260000D02*
X132845406Y-94260000D01*
X118045406Y-100280000D02*
X124145406Y-100280000D01*
D30*
%TO.N,Net-(D2-OUT3)*%
X107045406Y-91820000D02*
X110425406Y-95200000D01*
X108545406Y-71500000D02*
X107045406Y-73000000D01*
X112545406Y-72500000D02*
X111545406Y-71500000D01*
X112545406Y-73500000D02*
X112545406Y-72500000D01*
X107045406Y-73000000D02*
X107045406Y-91820000D01*
X111545406Y-71500000D02*
X108545406Y-71500000D01*
D29*
%TO.N,/D2 in3*%
X122585406Y-95200000D02*
X128605406Y-89180000D01*
X118045406Y-95200000D02*
X122585406Y-95200000D01*
X128605406Y-89180000D02*
X132845406Y-89180000D01*
D30*
%TO.N,Net-(D2-OUT2)*%
X114545406Y-73500000D02*
X114545406Y-72545406D01*
X114545406Y-72545406D02*
X112000000Y-70000000D01*
X112000000Y-70000000D02*
X108045406Y-70000000D01*
X108045406Y-70000000D02*
X105545406Y-72500000D01*
X105545406Y-72500000D02*
X105545406Y-92860000D01*
X105545406Y-92860000D02*
X110425406Y-97740000D01*
%TO.N,Net-(D2-OUT1)*%
X116855406Y-73810000D02*
X116545406Y-73500000D01*
X110425406Y-100280000D02*
X104045406Y-93900000D01*
X104045406Y-93900000D02*
X104045406Y-72000000D01*
X112500000Y-68500000D02*
X116545406Y-72545406D01*
X107545406Y-68500000D02*
X112500000Y-68500000D01*
X104045406Y-72000000D02*
X107545406Y-68500000D01*
X116545406Y-72545406D02*
X116545406Y-73500000D01*
D29*
%TO.N,/sensor*%
X132845406Y-101880000D02*
X116265406Y-118460000D01*
X108825406Y-116650000D02*
X112235406Y-116650000D01*
X112235406Y-116650000D02*
X114045406Y-118460000D01*
X116265406Y-118460000D02*
X114045406Y-118460000D01*
%TO.N,Net-(SW1-B)*%
X128545406Y-142500000D02*
X138500000Y-132545406D01*
X138500000Y-132545406D02*
X138500000Y-132500000D01*
X157500000Y-137500000D02*
X148500000Y-137500000D01*
X138500000Y-132500000D02*
X143505406Y-132500000D01*
X143505406Y-133005406D02*
X143505406Y-132500000D01*
X148500000Y-137500000D02*
X148500000Y-137494594D01*
X162000000Y-142000000D02*
X157500000Y-137500000D01*
X148500000Y-137494594D02*
X143505406Y-132500000D01*
D30*
%TO.N,Net-(D3-A)*%
X108825406Y-138770000D02*
X111270000Y-138770000D01*
X111270000Y-138770000D02*
X114000000Y-136040000D01*
%TD*%
%TA.AperFunction,Conductor*%
%TO.N,GND*%
G36*
X131287578Y-105379525D02*
G01*
X131343511Y-105421397D01*
X131351625Y-105433697D01*
X131353221Y-105436462D01*
X131353592Y-105437104D01*
X131521848Y-105648089D01*
X131701773Y-105815034D01*
X131719665Y-105831635D01*
X131942632Y-105983651D01*
X131942635Y-105983652D01*
X131942636Y-105983653D01*
X131955542Y-105989868D01*
X132185765Y-106100738D01*
X132378975Y-106160335D01*
X132430104Y-106191144D01*
X132707831Y-106468871D01*
X132648553Y-106484755D01*
X132532259Y-106551898D01*
X132437304Y-106646853D01*
X132370161Y-106763147D01*
X132354277Y-106822425D01*
X131621969Y-106090117D01*
X131521673Y-106243633D01*
X131521671Y-106243637D01*
X131421818Y-106471282D01*
X131360793Y-106712261D01*
X131360791Y-106712270D01*
X131340265Y-106959994D01*
X131340265Y-106960000D01*
X131360791Y-107207729D01*
X131360793Y-107207738D01*
X131421818Y-107448717D01*
X131521673Y-107676367D01*
X131621968Y-107829881D01*
X132354277Y-107097573D01*
X132370161Y-107156853D01*
X132437304Y-107273147D01*
X132532259Y-107368102D01*
X132648553Y-107435245D01*
X132707831Y-107451128D01*
X132430104Y-107728854D01*
X132378973Y-107759664D01*
X132185766Y-107819261D01*
X131942636Y-107936346D01*
X131719664Y-108088365D01*
X131521848Y-108271910D01*
X131353591Y-108482898D01*
X131218664Y-108716599D01*
X131218662Y-108716603D01*
X131120072Y-108967804D01*
X131120070Y-108967811D01*
X131060022Y-109230898D01*
X131039857Y-109499995D01*
X131039857Y-109500004D01*
X131060022Y-109769101D01*
X131120070Y-110032188D01*
X131120072Y-110032195D01*
X131218663Y-110283398D01*
X131353591Y-110517102D01*
X131482899Y-110679249D01*
X131521848Y-110728089D01*
X131652723Y-110849522D01*
X131719665Y-110911635D01*
X131942632Y-111063651D01*
X132185765Y-111180738D01*
X132443634Y-111260280D01*
X132443635Y-111260280D01*
X132443638Y-111260281D01*
X132710469Y-111300499D01*
X132710474Y-111300499D01*
X132710477Y-111300500D01*
X132755359Y-111300500D01*
X132822398Y-111320185D01*
X132843040Y-111336819D01*
X141994040Y-120487819D01*
X142027525Y-120549142D01*
X142022541Y-120618834D01*
X141980669Y-120674767D01*
X141915205Y-120699184D01*
X141906359Y-120699500D01*
X128443054Y-120699500D01*
X128375660Y-120710174D01*
X128240870Y-120731523D01*
X128046190Y-120794777D01*
X128046187Y-120794778D01*
X127894483Y-120872077D01*
X127894482Y-120872076D01*
X127863794Y-120887713D01*
X127698192Y-121008028D01*
X126553442Y-122152778D01*
X126433119Y-122318388D01*
X126386652Y-122409585D01*
X126386651Y-122409584D01*
X126340185Y-122500781D01*
X126340184Y-122500785D01*
X126316210Y-122574572D01*
X126316210Y-122574573D01*
X126281432Y-122681609D01*
X126281431Y-122681612D01*
X126276928Y-122695468D01*
X126244906Y-122897648D01*
X126244906Y-126575500D01*
X126225221Y-126642539D01*
X126172417Y-126688294D01*
X126120906Y-126699500D01*
X111089185Y-126699500D01*
X111022146Y-126679815D01*
X111001504Y-126663181D01*
X110346360Y-126008036D01*
X110346359Y-126008035D01*
X110346358Y-126008034D01*
X110180750Y-125887713D01*
X110089553Y-125841246D01*
X110018387Y-125804985D01*
X109967591Y-125757010D01*
X109950796Y-125689189D01*
X109973333Y-125623054D01*
X110028049Y-125579603D01*
X110074682Y-125570500D01*
X110832351Y-125570500D01*
X110832352Y-125570500D01*
X111034535Y-125538477D01*
X111131876Y-125506848D01*
X111229219Y-125475220D01*
X111392212Y-125392171D01*
X111411611Y-125382287D01*
X111577219Y-125261966D01*
X112219683Y-124619500D01*
X112234465Y-124606875D01*
X112392625Y-124491966D01*
X112682974Y-124201616D01*
X112744291Y-124168135D01*
X112813983Y-124173119D01*
X112869917Y-124214990D01*
X112872224Y-124218177D01*
X113007296Y-124411078D01*
X113174323Y-124578105D01*
X113367827Y-124713600D01*
X113581913Y-124813429D01*
X113581922Y-124813433D01*
X113795406Y-124870634D01*
X113795406Y-123973012D01*
X113852413Y-124005925D01*
X113979580Y-124040000D01*
X114111232Y-124040000D01*
X114238399Y-124005925D01*
X114295406Y-123973012D01*
X114295406Y-124870633D01*
X114508889Y-124813433D01*
X114508898Y-124813429D01*
X114722984Y-124713600D01*
X114916488Y-124578105D01*
X115083511Y-124411082D01*
X115219006Y-124217578D01*
X115318835Y-124003492D01*
X115318838Y-124003486D01*
X115376042Y-123790000D01*
X114478418Y-123790000D01*
X114511331Y-123732993D01*
X114545406Y-123605826D01*
X114545406Y-123474174D01*
X114511331Y-123347007D01*
X114478418Y-123290000D01*
X115376042Y-123290000D01*
X115376041Y-123289999D01*
X115318838Y-123076513D01*
X115318835Y-123076507D01*
X115219006Y-122862422D01*
X115219005Y-122862420D01*
X115083519Y-122668926D01*
X114965743Y-122551149D01*
X114932259Y-122489826D01*
X114937243Y-122420134D01*
X114979115Y-122364201D01*
X114988629Y-122357744D01*
X115018546Y-122339412D01*
X115216095Y-122170689D01*
X115384818Y-121973140D01*
X115520560Y-121751628D01*
X115619979Y-121511610D01*
X115680627Y-121258994D01*
X115701010Y-121000000D01*
X115680627Y-120741006D01*
X115619979Y-120488390D01*
X115561740Y-120347790D01*
X115520560Y-120248371D01*
X115407703Y-120064205D01*
X115389458Y-119996759D01*
X115410574Y-119930157D01*
X115425739Y-119911744D01*
X115525222Y-119812262D01*
X115525226Y-119812256D01*
X115529271Y-119807185D01*
X115586460Y-119767046D01*
X115626216Y-119760500D01*
X116367757Y-119760500D01*
X116367758Y-119760500D01*
X116569941Y-119728477D01*
X116667282Y-119696848D01*
X116764625Y-119665220D01*
X116855820Y-119618753D01*
X116947017Y-119572287D01*
X117112625Y-119451966D01*
X119219333Y-117345258D01*
X131564906Y-117345258D01*
X131564906Y-117574741D01*
X131588261Y-117752130D01*
X131594858Y-117802238D01*
X131623860Y-117910476D01*
X131654248Y-118023887D01*
X131742056Y-118235876D01*
X131742063Y-118235890D01*
X131856798Y-118434617D01*
X131996487Y-118616661D01*
X131996495Y-118616670D01*
X132158736Y-118778911D01*
X132158744Y-118778918D01*
X132340788Y-118918607D01*
X132340791Y-118918608D01*
X132340794Y-118918611D01*
X132539518Y-119033344D01*
X132539523Y-119033346D01*
X132539529Y-119033349D01*
X132630886Y-119071190D01*
X132751519Y-119121158D01*
X132973168Y-119180548D01*
X133200672Y-119210500D01*
X133200679Y-119210500D01*
X133430133Y-119210500D01*
X133430140Y-119210500D01*
X133657644Y-119180548D01*
X133879293Y-119121158D01*
X134091294Y-119033344D01*
X134290018Y-118918611D01*
X134472067Y-118778919D01*
X134472071Y-118778914D01*
X134472076Y-118778911D01*
X134634317Y-118616670D01*
X134634320Y-118616665D01*
X134634325Y-118616661D01*
X134774017Y-118434612D01*
X134888750Y-118235888D01*
X134976564Y-118023887D01*
X135035954Y-117802238D01*
X135065906Y-117574734D01*
X135065906Y-117345266D01*
X135035954Y-117117762D01*
X134976564Y-116896113D01*
X134888750Y-116684112D01*
X134774017Y-116485388D01*
X134774014Y-116485385D01*
X134774013Y-116485382D01*
X134634324Y-116303338D01*
X134634317Y-116303330D01*
X134472076Y-116141089D01*
X134472067Y-116141081D01*
X134290023Y-116001392D01*
X134091296Y-115886657D01*
X134091282Y-115886650D01*
X133879293Y-115798842D01*
X133657644Y-115739452D01*
X133619621Y-115734446D01*
X133430147Y-115709500D01*
X133430140Y-115709500D01*
X133200672Y-115709500D01*
X133200664Y-115709500D01*
X132984121Y-115738009D01*
X132973168Y-115739452D01*
X132879482Y-115764554D01*
X132751518Y-115798842D01*
X132539529Y-115886650D01*
X132539515Y-115886657D01*
X132340788Y-116001392D01*
X132158744Y-116141081D01*
X131996487Y-116303338D01*
X131856798Y-116485382D01*
X131742063Y-116684109D01*
X131742056Y-116684123D01*
X131654248Y-116896112D01*
X131594859Y-117117759D01*
X131594857Y-117117770D01*
X131564906Y-117345258D01*
X119219333Y-117345258D01*
X131156565Y-105408024D01*
X131217886Y-105374541D01*
X131287578Y-105379525D01*
G37*
%TD.AperFunction*%
%TA.AperFunction,Conductor*%
G36*
X135443039Y-60520185D02*
G01*
X135488794Y-60572989D01*
X135500000Y-60624500D01*
X135500000Y-76000000D01*
X156000000Y-76000000D01*
X156000000Y-71300747D01*
X156019685Y-71233708D01*
X156072489Y-71187953D01*
X156141647Y-71178009D01*
X156205203Y-71207034D01*
X156238561Y-71253295D01*
X156252056Y-71285876D01*
X156252063Y-71285890D01*
X156366798Y-71484617D01*
X156506487Y-71666661D01*
X156506495Y-71666670D01*
X156668736Y-71828911D01*
X156668744Y-71828918D01*
X156850788Y-71968607D01*
X156850791Y-71968608D01*
X156850794Y-71968611D01*
X157049518Y-72083344D01*
X157049523Y-72083346D01*
X157049529Y-72083349D01*
X157087824Y-72099211D01*
X157261519Y-72171158D01*
X157274702Y-72174690D01*
X157334363Y-72211054D01*
X157364893Y-72273900D01*
X157356599Y-72343276D01*
X157312462Y-72396917D01*
X157298356Y-72406536D01*
X157119664Y-72528365D01*
X156921848Y-72711910D01*
X156753591Y-72922898D01*
X156618664Y-73156599D01*
X156618662Y-73156603D01*
X156520072Y-73407804D01*
X156520070Y-73407811D01*
X156460022Y-73670898D01*
X156439857Y-73939995D01*
X156439857Y-73940004D01*
X156460022Y-74209101D01*
X156520070Y-74472188D01*
X156520072Y-74472195D01*
X156602249Y-74681578D01*
X156618663Y-74723398D01*
X156753591Y-74957102D01*
X156796880Y-75011384D01*
X156893616Y-75132687D01*
X156920024Y-75197374D01*
X156907268Y-75266069D01*
X156893616Y-75287313D01*
X156753591Y-75462898D01*
X156618664Y-75696599D01*
X156618662Y-75696603D01*
X156520072Y-75947804D01*
X156520070Y-75947811D01*
X156460022Y-76210898D01*
X156439857Y-76479995D01*
X156439857Y-76480004D01*
X156460022Y-76749101D01*
X156520070Y-77012188D01*
X156520072Y-77012195D01*
X156618662Y-77263396D01*
X156618664Y-77263400D01*
X156630022Y-77283072D01*
X156753591Y-77497102D01*
X156893616Y-77672687D01*
X156920024Y-77737374D01*
X156907268Y-77806069D01*
X156893616Y-77827313D01*
X156753591Y-78002898D01*
X156618664Y-78236599D01*
X156618662Y-78236603D01*
X156520072Y-78487804D01*
X156520070Y-78487811D01*
X156460022Y-78750898D01*
X156439857Y-79019995D01*
X156439857Y-79020004D01*
X156460022Y-79289101D01*
X156520070Y-79552188D01*
X156520072Y-79552195D01*
X156618663Y-79803398D01*
X156753591Y-80037102D01*
X156893616Y-80212687D01*
X156920024Y-80277374D01*
X156907268Y-80346069D01*
X156893616Y-80367313D01*
X156753591Y-80542898D01*
X156618664Y-80776599D01*
X156618662Y-80776603D01*
X156520072Y-81027804D01*
X156520070Y-81027811D01*
X156460022Y-81290898D01*
X156439857Y-81559995D01*
X156439857Y-81560004D01*
X156460022Y-81829101D01*
X156520070Y-82092188D01*
X156520072Y-82092195D01*
X156618663Y-82343398D01*
X156753591Y-82577102D01*
X156817988Y-82657853D01*
X156893616Y-82752687D01*
X156920024Y-82817374D01*
X156907268Y-82886069D01*
X156893616Y-82907313D01*
X156753591Y-83082898D01*
X156618664Y-83316599D01*
X156618662Y-83316603D01*
X156520072Y-83567804D01*
X156520070Y-83567811D01*
X156460022Y-83830898D01*
X156439857Y-84099995D01*
X156439857Y-84100004D01*
X156460022Y-84369101D01*
X156520070Y-84632188D01*
X156520072Y-84632195D01*
X156579203Y-84782858D01*
X156618663Y-84883398D01*
X156753591Y-85117102D01*
X156876775Y-85271569D01*
X156893616Y-85292687D01*
X156920024Y-85357374D01*
X156907268Y-85426069D01*
X156893616Y-85447312D01*
X156782530Y-85586610D01*
X156753591Y-85622898D01*
X156618664Y-85856599D01*
X156618662Y-85856603D01*
X156520072Y-86107804D01*
X156520070Y-86107811D01*
X156460022Y-86370898D01*
X156439857Y-86639995D01*
X156439857Y-86640004D01*
X156460022Y-86909101D01*
X156520070Y-87172188D01*
X156520072Y-87172195D01*
X156579203Y-87322858D01*
X156618663Y-87423398D01*
X156753591Y-87657102D01*
X156893616Y-87832687D01*
X156920024Y-87897374D01*
X156907268Y-87966069D01*
X156893616Y-87987312D01*
X156753591Y-88162898D01*
X156618664Y-88396599D01*
X156618662Y-88396603D01*
X156520072Y-88647804D01*
X156520070Y-88647811D01*
X156460022Y-88910898D01*
X156439857Y-89179995D01*
X156439857Y-89180004D01*
X156460022Y-89449101D01*
X156520070Y-89712188D01*
X156520072Y-89712195D01*
X156596749Y-89907564D01*
X156618663Y-89963398D01*
X156753591Y-90197102D01*
X156893616Y-90372687D01*
X156920024Y-90437374D01*
X156907268Y-90506069D01*
X156893616Y-90527312D01*
X156753591Y-90702898D01*
X156618664Y-90936599D01*
X156618662Y-90936603D01*
X156520072Y-91187804D01*
X156520070Y-91187811D01*
X156460022Y-91450898D01*
X156439857Y-91719995D01*
X156439857Y-91720004D01*
X156460022Y-91989101D01*
X156520070Y-92252188D01*
X156520072Y-92252195D01*
X156579203Y-92402858D01*
X156618663Y-92503398D01*
X156753591Y-92737102D01*
X156850246Y-92858303D01*
X156893616Y-92912687D01*
X156920024Y-92977374D01*
X156907268Y-93046069D01*
X156893616Y-93067312D01*
X156770406Y-93221813D01*
X156753591Y-93242898D01*
X156618664Y-93476599D01*
X156618662Y-93476603D01*
X156520072Y-93727804D01*
X156520070Y-93727811D01*
X156460022Y-93990898D01*
X156439857Y-94259995D01*
X156439857Y-94260004D01*
X156460022Y-94529101D01*
X156520070Y-94792188D01*
X156520072Y-94792195D01*
X156579203Y-94942858D01*
X156618663Y-95043398D01*
X156753591Y-95277102D01*
X156893616Y-95452687D01*
X156920024Y-95517374D01*
X156907268Y-95586069D01*
X156893616Y-95607312D01*
X156770406Y-95761813D01*
X156753591Y-95782898D01*
X156618664Y-96016599D01*
X156618662Y-96016603D01*
X156520072Y-96267804D01*
X156520070Y-96267811D01*
X156460022Y-96530898D01*
X156439857Y-96799995D01*
X156439857Y-96800004D01*
X156460022Y-97069101D01*
X156520070Y-97332188D01*
X156520072Y-97332195D01*
X156579203Y-97482858D01*
X156618663Y-97583398D01*
X156753591Y-97817102D01*
X156893616Y-97992687D01*
X156920024Y-98057374D01*
X156907268Y-98126069D01*
X156893616Y-98147312D01*
X156753591Y-98322898D01*
X156618664Y-98556599D01*
X156618662Y-98556603D01*
X156520072Y-98807804D01*
X156520070Y-98807811D01*
X156460022Y-99070898D01*
X156439857Y-99339995D01*
X156439857Y-99340004D01*
X156460022Y-99609101D01*
X156520070Y-99872188D01*
X156520072Y-99872195D01*
X156618663Y-100123398D01*
X156753591Y-100357102D01*
X156870030Y-100503111D01*
X156893616Y-100532687D01*
X156920024Y-100597374D01*
X156907268Y-100666069D01*
X156893616Y-100687312D01*
X156778507Y-100831654D01*
X156753591Y-100862898D01*
X156618664Y-101096599D01*
X156618662Y-101096603D01*
X156520072Y-101347804D01*
X156520070Y-101347811D01*
X156460022Y-101610898D01*
X156439857Y-101879995D01*
X156439857Y-101880004D01*
X156460022Y-102149101D01*
X156520070Y-102412188D01*
X156520072Y-102412195D01*
X156618663Y-102663398D01*
X156753591Y-102897102D01*
X156893616Y-103072687D01*
X156920024Y-103137374D01*
X156907268Y-103206069D01*
X156893616Y-103227313D01*
X156753591Y-103402898D01*
X156618664Y-103636599D01*
X156618662Y-103636603D01*
X156520072Y-103887804D01*
X156520070Y-103887811D01*
X156460022Y-104150898D01*
X156439857Y-104419995D01*
X156439857Y-104420004D01*
X156460022Y-104689101D01*
X156520070Y-104952188D01*
X156520072Y-104952195D01*
X156618663Y-105203398D01*
X156753591Y-105437102D01*
X156753593Y-105437104D01*
X156921848Y-105648089D01*
X157101773Y-105815034D01*
X157119665Y-105831635D01*
X157342632Y-105983651D01*
X157342635Y-105983652D01*
X157342636Y-105983653D01*
X157355542Y-105989868D01*
X157585765Y-106100738D01*
X157778975Y-106160335D01*
X157830104Y-106191144D01*
X158107831Y-106468871D01*
X158048553Y-106484755D01*
X157932259Y-106551898D01*
X157837304Y-106646853D01*
X157770161Y-106763147D01*
X157754277Y-106822425D01*
X157021969Y-106090117D01*
X156921673Y-106243633D01*
X156921671Y-106243637D01*
X156821818Y-106471282D01*
X156760793Y-106712261D01*
X156760791Y-106712270D01*
X156740265Y-106959994D01*
X156740265Y-106960000D01*
X156760791Y-107207729D01*
X156760793Y-107207738D01*
X156821818Y-107448717D01*
X156906796Y-107642450D01*
X156915699Y-107711750D01*
X156885721Y-107774863D01*
X156859213Y-107797252D01*
X156824186Y-107819262D01*
X156743143Y-107870184D01*
X156615590Y-107997737D01*
X156519617Y-108150476D01*
X156460037Y-108320745D01*
X156460036Y-108320750D01*
X156444906Y-108455039D01*
X156444906Y-110544960D01*
X156460036Y-110679249D01*
X156460037Y-110679254D01*
X156519617Y-110849523D01*
X156558645Y-110911635D01*
X156615590Y-111002262D01*
X156743144Y-111129816D01*
X156895884Y-111225789D01*
X157066151Y-111285368D01*
X157066156Y-111285369D01*
X157156652Y-111295565D01*
X157200446Y-111300499D01*
X157200449Y-111300500D01*
X157200452Y-111300500D01*
X159290363Y-111300500D01*
X159290364Y-111300499D01*
X159357510Y-111292934D01*
X159424655Y-111285369D01*
X159424658Y-111285368D01*
X159424661Y-111285368D01*
X159594928Y-111225789D01*
X159747668Y-111129816D01*
X159875222Y-111002262D01*
X159971195Y-110849522D01*
X160030774Y-110679255D01*
X160045906Y-110544954D01*
X160045906Y-108455046D01*
X160033650Y-108346269D01*
X160030775Y-108320750D01*
X160030774Y-108320745D01*
X159971194Y-108150476D01*
X159896200Y-108031124D01*
X159875222Y-107997738D01*
X159747668Y-107870184D01*
X159747666Y-107870182D01*
X159631599Y-107797252D01*
X159585309Y-107744918D01*
X159574661Y-107675864D01*
X159584016Y-107642449D01*
X159668994Y-107448717D01*
X159730018Y-107207738D01*
X159730020Y-107207729D01*
X159750547Y-106960000D01*
X159750547Y-106959994D01*
X159730020Y-106712270D01*
X159730018Y-106712261D01*
X159668993Y-106471282D01*
X159569138Y-106243632D01*
X159468841Y-106090116D01*
X158736533Y-106822423D01*
X158720651Y-106763147D01*
X158653508Y-106646853D01*
X158558553Y-106551898D01*
X158442259Y-106484755D01*
X158382978Y-106468871D01*
X158660705Y-106191144D01*
X158711834Y-106160336D01*
X158905047Y-106100738D01*
X159135271Y-105989868D01*
X159148173Y-105983655D01*
X159148173Y-105983654D01*
X159148181Y-105983651D01*
X159371147Y-105831635D01*
X159568967Y-105648085D01*
X159737221Y-105437102D01*
X159872149Y-105203398D01*
X159970740Y-104952195D01*
X160030789Y-104689103D01*
X160050955Y-104420000D01*
X160030789Y-104150897D01*
X159970740Y-103887805D01*
X159872149Y-103636602D01*
X159737221Y-103402898D01*
X159597193Y-103227310D01*
X159570787Y-103162627D01*
X159583542Y-103093931D01*
X159597190Y-103072693D01*
X159737221Y-102897102D01*
X159872149Y-102663398D01*
X159970740Y-102412195D01*
X160030789Y-102149103D01*
X160050955Y-101880000D01*
X160050668Y-101876173D01*
X160034150Y-101655747D01*
X160030789Y-101610897D01*
X159970740Y-101347805D01*
X159872149Y-101096602D01*
X159737221Y-100862898D01*
X159597193Y-100687310D01*
X159570787Y-100622627D01*
X159583542Y-100553931D01*
X159597190Y-100532693D01*
X159737221Y-100357102D01*
X159872149Y-100123398D01*
X159970740Y-99872195D01*
X160030789Y-99609103D01*
X160039839Y-99488341D01*
X160050955Y-99340004D01*
X160050955Y-99339995D01*
X160030789Y-99070898D01*
X160025057Y-99045785D01*
X159970740Y-98807805D01*
X159872149Y-98556602D01*
X159737221Y-98322898D01*
X159597193Y-98147310D01*
X159570787Y-98082627D01*
X159583542Y-98013931D01*
X159597190Y-97992693D01*
X159737221Y-97817102D01*
X159872149Y-97583398D01*
X159970740Y-97332195D01*
X160030789Y-97069103D01*
X160037511Y-96979402D01*
X160050955Y-96800004D01*
X160050955Y-96799995D01*
X160030789Y-96530898D01*
X160025057Y-96505785D01*
X159970740Y-96267805D01*
X159872149Y-96016602D01*
X159737221Y-95782898D01*
X159597193Y-95607310D01*
X159570787Y-95542627D01*
X159583542Y-95473931D01*
X159597190Y-95452693D01*
X159737221Y-95277102D01*
X159872149Y-95043398D01*
X159970740Y-94792195D01*
X160030789Y-94529103D01*
X160037511Y-94439402D01*
X160050955Y-94260004D01*
X160050955Y-94259995D01*
X160030789Y-93990898D01*
X160029811Y-93986611D01*
X159970740Y-93727805D01*
X159872149Y-93476602D01*
X159737221Y-93242898D01*
X159720405Y-93221812D01*
X159693997Y-93157126D01*
X159706754Y-93088431D01*
X159754624Y-93037537D01*
X159817353Y-93020500D01*
X167167757Y-93020500D01*
X167167758Y-93020500D01*
X167369941Y-92988477D01*
X167489899Y-92949500D01*
X167564625Y-92925220D01*
X167695957Y-92858303D01*
X167747017Y-92832287D01*
X167912625Y-92711966D01*
X169287772Y-91336819D01*
X169349095Y-91303334D01*
X169375453Y-91300500D01*
X171560029Y-91300500D01*
X171627068Y-91320185D01*
X171672823Y-91372989D01*
X171682767Y-91442147D01*
X171654319Y-91505031D01*
X171595577Y-91573808D01*
X171595568Y-91573820D01*
X171460798Y-91793745D01*
X171460796Y-91793748D01*
X171362092Y-92032043D01*
X171301875Y-92282863D01*
X171281639Y-92540000D01*
X171301875Y-92797136D01*
X171301875Y-92797139D01*
X171301876Y-92797142D01*
X171347812Y-92988477D01*
X171362092Y-93047956D01*
X171460796Y-93286251D01*
X171460798Y-93286254D01*
X171595568Y-93506179D01*
X171595572Y-93506184D01*
X171763087Y-93702319D01*
X171778767Y-93715711D01*
X171816959Y-93774218D01*
X171817457Y-93844086D01*
X171780103Y-93903132D01*
X171778767Y-93904289D01*
X171763087Y-93917680D01*
X171595572Y-94113815D01*
X171595568Y-94113820D01*
X171460798Y-94333745D01*
X171460796Y-94333748D01*
X171362092Y-94572043D01*
X171301875Y-94822863D01*
X171281639Y-95080000D01*
X171301875Y-95337136D01*
X171301875Y-95337139D01*
X171301876Y-95337142D01*
X171348178Y-95530000D01*
X171362092Y-95587956D01*
X171460796Y-95826251D01*
X171460798Y-95826254D01*
X171595568Y-96046179D01*
X171595572Y-96046184D01*
X171763087Y-96242319D01*
X171778767Y-96255711D01*
X171816959Y-96314218D01*
X171817457Y-96384086D01*
X171780103Y-96443132D01*
X171778767Y-96444289D01*
X171763087Y-96457680D01*
X171595572Y-96653815D01*
X171595568Y-96653820D01*
X171460798Y-96873745D01*
X171460796Y-96873748D01*
X171362092Y-97112043D01*
X171301875Y-97362863D01*
X171281639Y-97620000D01*
X171301875Y-97877136D01*
X171301875Y-97877139D01*
X171301876Y-97877142D01*
X171348178Y-98070000D01*
X171362092Y-98127956D01*
X171460796Y-98366251D01*
X171460798Y-98366254D01*
X171595568Y-98586179D01*
X171595572Y-98586184D01*
X171644175Y-98643090D01*
X171763087Y-98782319D01*
X171849260Y-98855917D01*
X171959221Y-98949833D01*
X171959226Y-98949837D01*
X172179144Y-99084603D01*
X172179151Y-99084607D01*
X172198042Y-99092432D01*
X172238272Y-99119312D01*
X172747986Y-99629026D01*
X172709717Y-99639281D01*
X172582295Y-99712849D01*
X172478255Y-99816889D01*
X172404687Y-99944311D01*
X172394432Y-99982579D01*
X171818951Y-99407098D01*
X171818950Y-99407099D01*
X171762065Y-99488341D01*
X171663107Y-99700558D01*
X171663103Y-99700567D01*
X171602503Y-99926731D01*
X171602501Y-99926741D01*
X171582094Y-100159998D01*
X171582094Y-100160001D01*
X171602501Y-100393258D01*
X171602503Y-100393268D01*
X171663103Y-100619432D01*
X171663107Y-100619441D01*
X171762063Y-100831654D01*
X171762064Y-100831656D01*
X171818951Y-100912899D01*
X171818952Y-100912900D01*
X172394432Y-100337419D01*
X172404687Y-100375689D01*
X172478255Y-100503111D01*
X172582295Y-100607151D01*
X172709717Y-100680719D01*
X172747986Y-100690973D01*
X172172504Y-101266453D01*
X172253754Y-101323343D01*
X172465964Y-101422298D01*
X172465973Y-101422302D01*
X172692137Y-101482902D01*
X172692147Y-101482904D01*
X172925404Y-101503312D01*
X172925408Y-101503312D01*
X173158664Y-101482904D01*
X173158674Y-101482902D01*
X173384838Y-101422302D01*
X173384847Y-101422298D01*
X173597061Y-101323342D01*
X173678306Y-101266453D01*
X173102825Y-100690973D01*
X173141095Y-100680719D01*
X173268517Y-100607151D01*
X173372557Y-100503111D01*
X173446125Y-100375689D01*
X173456379Y-100337419D01*
X174031859Y-100912900D01*
X174088748Y-100831655D01*
X174187704Y-100619441D01*
X174187708Y-100619432D01*
X174248308Y-100393268D01*
X174248310Y-100393258D01*
X174268718Y-100160001D01*
X174268718Y-100159998D01*
X174248310Y-99926741D01*
X174248308Y-99926731D01*
X174187708Y-99700567D01*
X174187704Y-99700558D01*
X174088749Y-99488348D01*
X174031858Y-99407098D01*
X173456378Y-99982579D01*
X173446125Y-99944311D01*
X173372557Y-99816889D01*
X173268517Y-99712849D01*
X173141095Y-99639281D01*
X173102825Y-99629026D01*
X173612538Y-99119312D01*
X173652765Y-99092433D01*
X173671661Y-99084607D01*
X173891588Y-98949835D01*
X174087725Y-98782319D01*
X174255241Y-98586182D01*
X174390013Y-98366255D01*
X174488721Y-98127952D01*
X174548936Y-97877142D01*
X174569173Y-97620000D01*
X174548936Y-97362858D01*
X174488721Y-97112048D01*
X174439720Y-96993748D01*
X174390015Y-96873748D01*
X174390013Y-96873745D01*
X174255243Y-96653820D01*
X174255239Y-96653815D01*
X174098246Y-96470000D01*
X174087725Y-96457681D01*
X174072045Y-96444289D01*
X174033853Y-96385785D01*
X174033353Y-96315917D01*
X174070706Y-96256870D01*
X174071950Y-96255791D01*
X174087725Y-96242319D01*
X174255241Y-96046182D01*
X174390013Y-95826255D01*
X174488721Y-95587952D01*
X174548936Y-95337142D01*
X174569173Y-95080000D01*
X174548936Y-94822858D01*
X174488721Y-94572048D01*
X174439720Y-94453748D01*
X174390015Y-94333748D01*
X174390013Y-94333745D01*
X174255243Y-94113820D01*
X174255239Y-94113815D01*
X174146596Y-93986611D01*
X174087725Y-93917681D01*
X174072045Y-93904289D01*
X174033853Y-93845785D01*
X174033353Y-93775917D01*
X174070706Y-93716870D01*
X174071950Y-93715791D01*
X174087725Y-93702319D01*
X174255241Y-93506182D01*
X174390013Y-93286255D01*
X174397561Y-93268034D01*
X174480701Y-93067313D01*
X174488721Y-93047952D01*
X174548936Y-92797142D01*
X174569173Y-92540000D01*
X174548936Y-92282858D01*
X174488721Y-92032048D01*
X174439720Y-91913748D01*
X174390015Y-91793748D01*
X174390013Y-91793745D01*
X174255243Y-91573820D01*
X174255239Y-91573815D01*
X174098246Y-91390000D01*
X174087725Y-91377681D01*
X174072045Y-91364289D01*
X174033853Y-91305785D01*
X174033353Y-91235917D01*
X174070706Y-91176870D01*
X174071950Y-91175791D01*
X174087725Y-91162319D01*
X174255241Y-90966182D01*
X174390013Y-90746255D01*
X174488721Y-90507952D01*
X174548936Y-90257142D01*
X174569173Y-90000000D01*
X174548936Y-89742858D01*
X174488721Y-89492048D01*
X174439720Y-89373748D01*
X174390015Y-89253748D01*
X174390013Y-89253745D01*
X174255243Y-89033820D01*
X174255239Y-89033815D01*
X174098246Y-88850000D01*
X174087725Y-88837681D01*
X174072045Y-88824289D01*
X174033853Y-88765785D01*
X174033353Y-88695917D01*
X174070706Y-88636870D01*
X174071950Y-88635791D01*
X174087725Y-88622319D01*
X174255241Y-88426182D01*
X174390013Y-88206255D01*
X174488721Y-87967952D01*
X174548936Y-87717142D01*
X174569173Y-87460000D01*
X174548936Y-87202858D01*
X174488721Y-86952048D01*
X174439720Y-86833748D01*
X174390015Y-86713748D01*
X174390013Y-86713745D01*
X174255243Y-86493820D01*
X174255239Y-86493815D01*
X174098246Y-86310000D01*
X174087725Y-86297681D01*
X174072045Y-86284289D01*
X174033853Y-86225785D01*
X174033353Y-86155917D01*
X174070706Y-86096870D01*
X174071950Y-86095791D01*
X174087725Y-86082319D01*
X174255241Y-85886182D01*
X174390013Y-85666255D01*
X174397561Y-85648034D01*
X174485893Y-85434779D01*
X174488721Y-85427952D01*
X174548936Y-85177142D01*
X174569173Y-84920000D01*
X174548936Y-84662858D01*
X174488721Y-84412048D01*
X174439720Y-84293748D01*
X174390015Y-84173748D01*
X174390013Y-84173745D01*
X174328777Y-84073818D01*
X174270153Y-83978153D01*
X174251909Y-83910709D01*
X174273025Y-83844106D01*
X174288190Y-83825693D01*
X174393422Y-83720462D01*
X174489395Y-83567722D01*
X174548974Y-83397455D01*
X174564106Y-83263154D01*
X174564106Y-81496846D01*
X174548974Y-81362545D01*
X174489395Y-81192278D01*
X174475500Y-81170165D01*
X174393421Y-81039537D01*
X174265868Y-80911984D01*
X174113129Y-80816011D01*
X173942860Y-80756431D01*
X173942855Y-80756430D01*
X173808566Y-80741300D01*
X173808560Y-80741300D01*
X172042252Y-80741300D01*
X172042245Y-80741300D01*
X171907956Y-80756430D01*
X171907951Y-80756431D01*
X171737682Y-80816011D01*
X171584943Y-80911984D01*
X171453747Y-81043181D01*
X171392424Y-81076666D01*
X171366066Y-81079500D01*
X167507757Y-81079500D01*
X167303054Y-81079500D01*
X167256185Y-81086923D01*
X167100874Y-81111522D01*
X167100873Y-81111522D01*
X167013619Y-81139872D01*
X167013620Y-81139873D01*
X166906182Y-81174781D01*
X166822496Y-81217423D01*
X166723793Y-81267714D01*
X166723790Y-81267716D01*
X166558184Y-81388036D01*
X165183040Y-82763181D01*
X165121717Y-82796666D01*
X165095359Y-82799500D01*
X159817353Y-82799500D01*
X159750314Y-82779815D01*
X159704559Y-82727011D01*
X159694615Y-82657853D01*
X159720406Y-82598187D01*
X159737221Y-82577102D01*
X159872149Y-82343398D01*
X159970740Y-82092195D01*
X160030789Y-81829103D01*
X160050955Y-81560000D01*
X160046222Y-81496846D01*
X160030789Y-81290898D01*
X160025498Y-81267716D01*
X159970740Y-81027805D01*
X159872149Y-80776602D01*
X159737221Y-80542898D01*
X159597193Y-80367310D01*
X159570787Y-80302627D01*
X159583542Y-80233931D01*
X159597190Y-80212693D01*
X159737221Y-80037102D01*
X159872149Y-79803398D01*
X159970740Y-79552195D01*
X160030789Y-79289103D01*
X160050955Y-79020000D01*
X160030789Y-78750897D01*
X159970740Y-78487805D01*
X159872149Y-78236602D01*
X159737221Y-78002898D01*
X159597193Y-77827310D01*
X159570787Y-77762627D01*
X159583542Y-77693931D01*
X159597190Y-77672693D01*
X159737221Y-77497102D01*
X159872149Y-77263398D01*
X159970740Y-77012195D01*
X160030789Y-76749103D01*
X160050955Y-76480000D01*
X160030789Y-76210897D01*
X159970740Y-75947805D01*
X159872149Y-75696602D01*
X159737221Y-75462898D01*
X159597193Y-75287310D01*
X159570787Y-75222627D01*
X159583542Y-75153931D01*
X159597190Y-75132693D01*
X159737221Y-74957102D01*
X159872149Y-74723398D01*
X159970740Y-74472195D01*
X160030789Y-74209103D01*
X160050955Y-73940000D01*
X160044529Y-73854255D01*
X160030789Y-73670898D01*
X159977461Y-73437252D01*
X159970740Y-73407805D01*
X159872149Y-73156602D01*
X159737221Y-72922898D01*
X159568967Y-72711915D01*
X159568966Y-72711914D01*
X159568963Y-72711910D01*
X159371147Y-72528365D01*
X159293573Y-72475476D01*
X159148181Y-72376349D01*
X159148175Y-72376346D01*
X159148174Y-72376345D01*
X159148173Y-72376344D01*
X158905049Y-72259263D01*
X158905051Y-72259263D01*
X158780055Y-72220707D01*
X158721796Y-72182136D01*
X158693638Y-72118192D01*
X158704522Y-72049175D01*
X158750991Y-71996998D01*
X158754538Y-71994868D01*
X158800018Y-71968611D01*
X158982067Y-71828919D01*
X158982071Y-71828914D01*
X158982076Y-71828911D01*
X159144317Y-71666670D01*
X159144320Y-71666665D01*
X159144325Y-71666661D01*
X159284017Y-71484612D01*
X159398750Y-71285888D01*
X159486564Y-71073887D01*
X159545954Y-70852238D01*
X159575906Y-70624734D01*
X159575906Y-70395266D01*
X159545954Y-70167762D01*
X159486564Y-69946113D01*
X159434785Y-69821109D01*
X159398755Y-69734123D01*
X159398752Y-69734117D01*
X159398750Y-69734112D01*
X159284017Y-69535388D01*
X159284014Y-69535385D01*
X159284013Y-69535382D01*
X159144324Y-69353338D01*
X159144317Y-69353330D01*
X158982076Y-69191089D01*
X158982067Y-69191081D01*
X158800023Y-69051392D01*
X158601296Y-68936657D01*
X158601282Y-68936650D01*
X158389293Y-68848842D01*
X158167644Y-68789452D01*
X158129621Y-68784446D01*
X157940147Y-68759500D01*
X157940140Y-68759500D01*
X157710672Y-68759500D01*
X157710664Y-68759500D01*
X157494121Y-68788009D01*
X157483168Y-68789452D01*
X157389482Y-68814554D01*
X157261518Y-68848842D01*
X157049529Y-68936650D01*
X157049515Y-68936657D01*
X156850788Y-69051392D01*
X156668744Y-69191081D01*
X156506487Y-69353338D01*
X156366798Y-69535382D01*
X156252063Y-69734109D01*
X156252058Y-69734118D01*
X156238561Y-69766705D01*
X156194719Y-69821109D01*
X156128425Y-69843173D01*
X156060726Y-69825893D01*
X156013116Y-69774756D01*
X156000000Y-69719252D01*
X156000000Y-60624500D01*
X156019685Y-60557461D01*
X156072489Y-60511706D01*
X156124000Y-60500500D01*
X189920906Y-60500500D01*
X189987945Y-60520185D01*
X190033700Y-60572989D01*
X190044906Y-60624500D01*
X190044906Y-149375500D01*
X190025221Y-149442539D01*
X189972417Y-149488294D01*
X189920906Y-149499500D01*
X101169906Y-149499500D01*
X101102867Y-149479815D01*
X101057112Y-149427011D01*
X101045906Y-149375500D01*
X101045906Y-141423394D01*
X121669906Y-141423394D01*
X121669906Y-143576604D01*
X121685105Y-143730932D01*
X121685106Y-143730935D01*
X121745174Y-143928955D01*
X121817423Y-144064123D01*
X121842723Y-144111454D01*
X121973995Y-144271410D01*
X122066235Y-144347109D01*
X122133955Y-144402685D01*
X122316451Y-144500232D01*
X122356900Y-144512501D01*
X122415337Y-144550796D01*
X122443796Y-144614607D01*
X122444906Y-144631162D01*
X122444906Y-145802357D01*
X122476331Y-146000767D01*
X122476332Y-146000767D01*
X122476334Y-146000781D01*
X122476929Y-146004534D01*
X122540186Y-146199219D01*
X122567203Y-146252243D01*
X122633119Y-146381611D01*
X122753440Y-146547219D01*
X122753441Y-146547220D01*
X122753442Y-146547221D01*
X123550314Y-147344092D01*
X123550328Y-147344107D01*
X123553439Y-147347218D01*
X123553440Y-147347219D01*
X123698187Y-147491966D01*
X123698190Y-147491968D01*
X123698193Y-147491971D01*
X123742862Y-147524424D01*
X123780991Y-147552126D01*
X123863795Y-147612287D01*
X123947809Y-147655094D01*
X124046186Y-147705220D01*
X124046192Y-147705222D01*
X124096553Y-147721584D01*
X124143527Y-147736847D01*
X124143528Y-147736848D01*
X124190380Y-147752071D01*
X124240871Y-147768477D01*
X124341963Y-147784488D01*
X124443054Y-147800500D01*
X124443055Y-147800500D01*
X184147757Y-147800500D01*
X184147758Y-147800500D01*
X184349941Y-147768477D01*
X184447282Y-147736848D01*
X184544625Y-147705220D01*
X184643003Y-147655094D01*
X184727017Y-147612287D01*
X184892625Y-147491966D01*
X185491966Y-146892625D01*
X185612287Y-146727017D01*
X185658753Y-146635820D01*
X185705220Y-146544625D01*
X185736848Y-146447282D01*
X185768477Y-146349941D01*
X185800500Y-146147758D01*
X185800500Y-145943054D01*
X185800500Y-139523761D01*
X185818773Y-139458971D01*
X185880403Y-139358397D01*
X185952809Y-139240243D01*
X186050722Y-139003860D01*
X186110452Y-138755070D01*
X186130526Y-138500000D01*
X186110452Y-138244930D01*
X186050722Y-137996140D01*
X185988207Y-137845215D01*
X185952811Y-137759760D01*
X185952809Y-137759757D01*
X185917728Y-137702510D01*
X185819123Y-137541601D01*
X185819122Y-137541600D01*
X185819121Y-137541598D01*
X185759319Y-137471579D01*
X185652956Y-137347044D01*
X185546591Y-137256200D01*
X185458401Y-137180878D01*
X185458396Y-137180875D01*
X185240242Y-137047190D01*
X185240239Y-137047188D01*
X185003864Y-136949279D01*
X185003860Y-136949278D01*
X184755070Y-136889548D01*
X184755067Y-136889547D01*
X184755064Y-136889547D01*
X184500000Y-136869474D01*
X184244935Y-136889547D01*
X184244931Y-136889547D01*
X184244930Y-136889548D01*
X184120535Y-136919413D01*
X183996135Y-136949279D01*
X183759760Y-137047188D01*
X183759757Y-137047190D01*
X183541603Y-137180875D01*
X183541598Y-137180878D01*
X183347044Y-137347044D01*
X183180878Y-137541598D01*
X183180875Y-137541603D01*
X183047190Y-137759757D01*
X183047188Y-137759760D01*
X182949279Y-137996135D01*
X182889547Y-138244935D01*
X182869474Y-138500000D01*
X182889547Y-138755064D01*
X182889547Y-138755067D01*
X182889548Y-138755070D01*
X182949278Y-139003860D01*
X182949279Y-139003864D01*
X183047188Y-139240239D01*
X183047190Y-139240242D01*
X183181227Y-139458971D01*
X183199500Y-139523761D01*
X183199500Y-145075500D01*
X183179815Y-145142539D01*
X183127011Y-145188294D01*
X183075500Y-145199500D01*
X145069906Y-145199500D01*
X145002867Y-145179815D01*
X144957112Y-145127011D01*
X144945906Y-145075500D01*
X144945906Y-144131162D01*
X144965591Y-144064123D01*
X145018395Y-144018368D01*
X145033900Y-144012505D01*
X145074361Y-144000232D01*
X145256857Y-143902685D01*
X145416816Y-143771410D01*
X145548091Y-143611451D01*
X145645638Y-143428955D01*
X145705706Y-143230935D01*
X145720906Y-143076609D01*
X145720905Y-141999995D01*
X146665429Y-141999995D01*
X146665429Y-142000004D01*
X146685309Y-142265290D01*
X146685309Y-142265292D01*
X146744504Y-142524643D01*
X146744510Y-142524662D01*
X146841702Y-142772303D01*
X146974719Y-143002695D01*
X146974726Y-143002706D01*
X147025490Y-143066360D01*
X147025491Y-143066361D01*
X147748693Y-142343159D01*
X147758610Y-142367100D01*
X147843424Y-142494034D01*
X147951372Y-142601982D01*
X148078306Y-142686796D01*
X148102245Y-142696712D01*
X147378245Y-143420711D01*
X147555417Y-143541504D01*
X147555421Y-143541506D01*
X147795101Y-143656931D01*
X147795105Y-143656932D01*
X148049315Y-143735346D01*
X148049321Y-143735347D01*
X148312382Y-143774999D01*
X148312389Y-143775000D01*
X148578423Y-143775000D01*
X148578429Y-143774999D01*
X148841490Y-143735347D01*
X148841496Y-143735346D01*
X149095705Y-143656933D01*
X149335390Y-143541507D01*
X149512565Y-143420711D01*
X148788565Y-142696712D01*
X148812506Y-142686796D01*
X148939440Y-142601982D01*
X149047388Y-142494034D01*
X149132202Y-142367100D01*
X149142118Y-142343160D01*
X149865319Y-143066361D01*
X149865319Y-143066360D01*
X149916094Y-143002693D01*
X150049109Y-142772303D01*
X150146301Y-142524662D01*
X150146307Y-142524643D01*
X150205502Y-142265292D01*
X150205502Y-142265290D01*
X150225383Y-142000004D01*
X150225383Y-141999995D01*
X150205502Y-141734709D01*
X150205502Y-141734707D01*
X150146307Y-141475356D01*
X150146301Y-141475337D01*
X150049109Y-141227696D01*
X149916092Y-140997304D01*
X149865319Y-140933637D01*
X149142117Y-141656839D01*
X149132202Y-141632900D01*
X149047388Y-141505966D01*
X148939440Y-141398018D01*
X148812506Y-141313204D01*
X148788564Y-141303287D01*
X149512565Y-140579287D01*
X149335395Y-140458495D01*
X149335391Y-140458493D01*
X149095705Y-140343066D01*
X148841496Y-140264653D01*
X148841490Y-140264652D01*
X148578429Y-140225000D01*
X148312382Y-140225000D01*
X148049321Y-140264652D01*
X148049315Y-140264653D01*
X147795105Y-140343067D01*
X147795101Y-140343068D01*
X147555418Y-140458494D01*
X147555410Y-140458499D01*
X147378246Y-140579286D01*
X148102247Y-141303287D01*
X148078306Y-141313204D01*
X147951372Y-141398018D01*
X147843424Y-141505966D01*
X147758610Y-141632900D01*
X147748693Y-141656840D01*
X147025490Y-140933637D01*
X146974722Y-140997299D01*
X146841702Y-141227696D01*
X146744510Y-141475337D01*
X146744504Y-141475356D01*
X146685309Y-141734707D01*
X146685309Y-141734709D01*
X146665429Y-141999995D01*
X145720905Y-141999995D01*
X145720905Y-140923392D01*
X145705706Y-140769065D01*
X145645638Y-140571045D01*
X145548091Y-140388549D01*
X145451211Y-140270500D01*
X145416816Y-140228589D01*
X145256860Y-140097317D01*
X145256858Y-140097316D01*
X145256857Y-140097315D01*
X145074361Y-139999768D01*
X144876341Y-139939700D01*
X144876339Y-139939699D01*
X144876341Y-139939699D01*
X144765628Y-139928795D01*
X144722015Y-139924500D01*
X144722011Y-139924500D01*
X142568801Y-139924500D01*
X142414473Y-139939699D01*
X142216448Y-139999769D01*
X142033951Y-140097317D01*
X141873995Y-140228589D01*
X141742723Y-140388545D01*
X141645175Y-140571042D01*
X141585105Y-140769066D01*
X141569906Y-140923394D01*
X141569906Y-143076604D01*
X141585105Y-143230932D01*
X141585106Y-143230935D01*
X141645174Y-143428955D01*
X141739512Y-143605448D01*
X141742723Y-143611454D01*
X141873995Y-143771410D01*
X142033951Y-143902682D01*
X142033955Y-143902685D01*
X142216451Y-144000232D01*
X142256900Y-144012501D01*
X142315337Y-144050796D01*
X142343796Y-144114607D01*
X142344906Y-144131162D01*
X142344906Y-145075500D01*
X142325221Y-145142539D01*
X142272417Y-145188294D01*
X142220906Y-145199500D01*
X125169906Y-145199500D01*
X125102867Y-145179815D01*
X125057112Y-145127011D01*
X125045906Y-145075500D01*
X125045906Y-144631162D01*
X125065591Y-144564123D01*
X125118395Y-144518368D01*
X125133900Y-144512505D01*
X125174361Y-144500232D01*
X125356857Y-144402685D01*
X125516816Y-144271410D01*
X125648091Y-144111451D01*
X125745638Y-143928955D01*
X125805706Y-143730935D01*
X125820906Y-143576609D01*
X125820905Y-141423392D01*
X125805706Y-141269065D01*
X125745638Y-141071045D01*
X125648091Y-140888549D01*
X125632760Y-140869868D01*
X125516816Y-140728589D01*
X125356860Y-140597317D01*
X125356858Y-140597316D01*
X125356857Y-140597315D01*
X125174361Y-140499768D01*
X124976341Y-140439700D01*
X124976339Y-140439699D01*
X124976341Y-140439699D01*
X124865628Y-140428795D01*
X124822015Y-140424500D01*
X124822011Y-140424500D01*
X122668801Y-140424500D01*
X122514473Y-140439699D01*
X122316448Y-140499769D01*
X122133951Y-140597317D01*
X121973995Y-140728589D01*
X121842723Y-140888545D01*
X121745175Y-141071042D01*
X121685105Y-141269066D01*
X121669906Y-141423394D01*
X101045906Y-141423394D01*
X101045906Y-138769994D01*
X107319763Y-138769994D01*
X107319763Y-138770005D01*
X107340296Y-139017812D01*
X107340298Y-139017824D01*
X107401342Y-139258881D01*
X107501232Y-139486606D01*
X107637239Y-139694782D01*
X107669651Y-139729991D01*
X107805662Y-139877738D01*
X108001897Y-140030474D01*
X108220596Y-140148828D01*
X108439547Y-140223994D01*
X108452931Y-140228589D01*
X108455792Y-140229571D01*
X108701071Y-140270500D01*
X108949741Y-140270500D01*
X109195020Y-140229571D01*
X109430216Y-140148828D01*
X109648915Y-140030474D01*
X109820857Y-139896645D01*
X109885851Y-139871004D01*
X109897019Y-139870500D01*
X111356610Y-139870500D01*
X111356611Y-139870500D01*
X111527701Y-139843402D01*
X111692445Y-139789873D01*
X111846788Y-139711232D01*
X111986928Y-139609414D01*
X113819522Y-137776818D01*
X113880845Y-137743334D01*
X113907203Y-137740500D01*
X114127435Y-137740500D01*
X114379458Y-137702513D01*
X114623004Y-137627389D01*
X114852634Y-137516805D01*
X115063217Y-137373232D01*
X115250050Y-137199877D01*
X115408959Y-137000612D01*
X115536393Y-136779888D01*
X115629508Y-136542637D01*
X115686222Y-136294157D01*
X115705268Y-136040000D01*
X115686222Y-135785843D01*
X115629508Y-135537363D01*
X115536393Y-135300112D01*
X115408959Y-135079388D01*
X115266005Y-134900130D01*
X115239598Y-134835445D01*
X115252353Y-134766750D01*
X115263687Y-134748507D01*
X115343352Y-134642089D01*
X115343354Y-134642086D01*
X115393596Y-134507379D01*
X115393598Y-134507372D01*
X115399999Y-134447844D01*
X115400000Y-134447827D01*
X115400000Y-133750000D01*
X114375278Y-133750000D01*
X114419333Y-133673694D01*
X114450000Y-133559244D01*
X114450000Y-133440756D01*
X114419333Y-133326306D01*
X114375278Y-133250000D01*
X115400000Y-133250000D01*
X115400000Y-132552172D01*
X115399999Y-132552155D01*
X115393598Y-132492627D01*
X115393596Y-132492620D01*
X115343354Y-132357913D01*
X115343350Y-132357906D01*
X115257190Y-132242812D01*
X115257187Y-132242809D01*
X115142093Y-132156649D01*
X115142086Y-132156645D01*
X115007379Y-132106403D01*
X115007372Y-132106401D01*
X114947844Y-132100000D01*
X114250000Y-132100000D01*
X114250000Y-133124722D01*
X114173694Y-133080667D01*
X114059244Y-133050000D01*
X113940756Y-133050000D01*
X113826306Y-133080667D01*
X113750000Y-133124722D01*
X113750000Y-132100000D01*
X113052155Y-132100000D01*
X112992627Y-132106401D01*
X112992620Y-132106403D01*
X112857913Y-132156645D01*
X112857906Y-132156649D01*
X112742812Y-132242809D01*
X112742809Y-132242812D01*
X112656649Y-132357906D01*
X112656645Y-132357913D01*
X112606403Y-132492620D01*
X112606401Y-132492627D01*
X112600000Y-132552155D01*
X112600000Y-133250000D01*
X113624722Y-133250000D01*
X113580667Y-133326306D01*
X113550000Y-133440756D01*
X113550000Y-133559244D01*
X113580667Y-133673694D01*
X113624722Y-133750000D01*
X112600000Y-133750000D01*
X112600000Y-134447844D01*
X112606401Y-134507372D01*
X112606403Y-134507379D01*
X112656645Y-134642086D01*
X112656649Y-134642093D01*
X112736312Y-134748508D01*
X112760730Y-134813972D01*
X112745879Y-134882245D01*
X112733993Y-134900132D01*
X112591041Y-135079388D01*
X112463608Y-135300109D01*
X112370492Y-135537362D01*
X112370490Y-135537369D01*
X112313777Y-135785845D01*
X112294732Y-136039995D01*
X112294732Y-136040004D01*
X112300863Y-136121818D01*
X112286244Y-136190141D01*
X112264891Y-136218765D01*
X110850477Y-137633181D01*
X110789154Y-137666666D01*
X110762796Y-137669500D01*
X109897019Y-137669500D01*
X109829980Y-137649815D01*
X109820857Y-137643354D01*
X109658272Y-137516809D01*
X109648915Y-137509526D01*
X109648913Y-137509525D01*
X109648912Y-137509524D01*
X109430217Y-137391172D01*
X109430208Y-137391169D01*
X109195022Y-137310429D01*
X108949741Y-137269500D01*
X108701071Y-137269500D01*
X108455789Y-137310429D01*
X108220603Y-137391169D01*
X108220594Y-137391172D01*
X108001899Y-137509524D01*
X107805663Y-137662261D01*
X107637239Y-137845217D01*
X107501232Y-138053393D01*
X107401342Y-138281118D01*
X107340298Y-138522175D01*
X107340296Y-138522187D01*
X107319763Y-138769994D01*
X101045906Y-138769994D01*
X101045906Y-71913389D01*
X102944906Y-71913389D01*
X102944906Y-93986610D01*
X102965053Y-94113818D01*
X102972004Y-94157701D01*
X103025533Y-94322445D01*
X103104174Y-94476788D01*
X103205992Y-94616928D01*
X103205994Y-94616930D01*
X108747595Y-100158531D01*
X108781080Y-100219854D01*
X108783532Y-100255937D01*
X108781639Y-100279998D01*
X108801875Y-100537136D01*
X108801875Y-100537139D01*
X108801876Y-100537142D01*
X108845489Y-100718800D01*
X108862092Y-100787956D01*
X108960796Y-101026251D01*
X108960798Y-101026254D01*
X109095568Y-101246179D01*
X109095572Y-101246184D01*
X109161472Y-101323343D01*
X109263087Y-101442319D01*
X109318724Y-101489837D01*
X109459221Y-101609833D01*
X109459226Y-101609837D01*
X109679151Y-101744607D01*
X109679154Y-101744609D01*
X109917449Y-101843313D01*
X109917454Y-101843315D01*
X110168264Y-101903530D01*
X110425406Y-101923767D01*
X110682548Y-101903530D01*
X110933358Y-101843315D01*
X111133292Y-101760500D01*
X111171657Y-101744609D01*
X111171658Y-101744608D01*
X111171661Y-101744607D01*
X111367479Y-101624609D01*
X111391585Y-101609837D01*
X111391585Y-101609836D01*
X111391588Y-101609835D01*
X111587725Y-101442319D01*
X111755241Y-101246182D01*
X111765178Y-101229967D01*
X111816989Y-101183090D01*
X111885919Y-101171667D01*
X111950082Y-101199323D01*
X111989107Y-101257278D01*
X111994906Y-101294755D01*
X111994906Y-107024084D01*
X111976633Y-107088874D01*
X111864939Y-107271140D01*
X111768533Y-107503886D01*
X111718629Y-107711750D01*
X111685736Y-107770483D01*
X105508036Y-113948184D01*
X105387713Y-114113794D01*
X105341246Y-114204991D01*
X105341245Y-114204990D01*
X105294779Y-114296187D01*
X105294779Y-114296188D01*
X105231523Y-114490867D01*
X105231523Y-114490870D01*
X105199500Y-114693054D01*
X105199500Y-127102351D01*
X105231522Y-127304534D01*
X105294781Y-127499223D01*
X105387715Y-127681613D01*
X105508028Y-127847213D01*
X105652786Y-127991971D01*
X105807749Y-128104556D01*
X105818390Y-128112287D01*
X105934607Y-128171503D01*
X106000776Y-128205218D01*
X106000778Y-128205218D01*
X106000781Y-128205220D01*
X106105137Y-128239127D01*
X106195465Y-128268477D01*
X106296557Y-128284488D01*
X106397648Y-128300500D01*
X106602352Y-128300500D01*
X108909092Y-128300500D01*
X108976131Y-128320185D01*
X108996768Y-128336814D01*
X109162321Y-128502366D01*
X109195805Y-128563688D01*
X109198639Y-128590046D01*
X109198639Y-128886219D01*
X109178954Y-128953258D01*
X109162320Y-128973900D01*
X108460849Y-129675370D01*
X108413431Y-129704970D01*
X108220603Y-129771169D01*
X108220594Y-129771172D01*
X108001899Y-129889524D01*
X107805663Y-130042261D01*
X107637239Y-130225217D01*
X107501232Y-130433393D01*
X107401342Y-130661118D01*
X107340298Y-130902175D01*
X107340296Y-130902187D01*
X107319763Y-131149994D01*
X107319763Y-131150005D01*
X107340296Y-131397812D01*
X107340298Y-131397824D01*
X107401342Y-131638881D01*
X107501232Y-131866606D01*
X107637239Y-132074782D01*
X107637242Y-132074785D01*
X107805662Y-132257738D01*
X108001897Y-132410474D01*
X108001899Y-132410475D01*
X108167326Y-132500000D01*
X108220596Y-132528828D01*
X108455792Y-132609571D01*
X108701071Y-132650500D01*
X108949741Y-132650500D01*
X109195020Y-132609571D01*
X109430216Y-132528828D01*
X109648915Y-132410474D01*
X109845150Y-132257738D01*
X110013570Y-132074785D01*
X110149579Y-131866607D01*
X110249469Y-131638881D01*
X110250396Y-131635223D01*
X110264626Y-131579025D01*
X110266099Y-131573206D01*
X110298622Y-131515967D01*
X111491105Y-130323486D01*
X111611426Y-130157878D01*
X111691470Y-130000782D01*
X111704359Y-129975486D01*
X111767616Y-129780801D01*
X111777575Y-129717927D01*
X111784315Y-129675370D01*
X111799639Y-129578624D01*
X111799639Y-129424500D01*
X111819324Y-129357461D01*
X111872128Y-129311706D01*
X111923639Y-129300500D01*
X127647757Y-129300500D01*
X127647758Y-129300500D01*
X127849940Y-129268477D01*
X128044625Y-129205220D01*
X128227016Y-129112287D01*
X128389417Y-128994297D01*
X128392619Y-128991971D01*
X128392621Y-128991968D01*
X128392625Y-128991966D01*
X128537372Y-128847219D01*
X128537374Y-128847215D01*
X128537377Y-128847213D01*
X128590138Y-128774590D01*
X128657693Y-128681610D01*
X128750626Y-128499219D01*
X128813883Y-128304534D01*
X128845906Y-128102352D01*
X128845906Y-123590046D01*
X128865591Y-123523007D01*
X128882225Y-123502365D01*
X129047771Y-123336819D01*
X129109094Y-123303334D01*
X129135452Y-123300500D01*
X144755359Y-123300500D01*
X144822398Y-123320185D01*
X144843040Y-123336819D01*
X147248587Y-125742366D01*
X147282072Y-125803689D01*
X147284906Y-125830047D01*
X147284906Y-131271782D01*
X147265221Y-131338821D01*
X147257853Y-131349094D01*
X147130879Y-131508315D01*
X146999322Y-131736179D01*
X146903178Y-131981149D01*
X146875431Y-132023527D01*
X146634966Y-132263991D01*
X146608135Y-132199215D01*
X146538642Y-132095211D01*
X146450195Y-132006764D01*
X146346191Y-131937271D01*
X146281412Y-131910438D01*
X146883395Y-131308456D01*
X146883395Y-131308455D01*
X146843944Y-131277749D01*
X146631877Y-131162983D01*
X146631868Y-131162980D01*
X146403814Y-131084688D01*
X146165971Y-131045000D01*
X145924841Y-131045000D01*
X145686997Y-131084688D01*
X145458943Y-131162980D01*
X145458929Y-131162986D01*
X145342358Y-131226071D01*
X145274030Y-131240666D01*
X145208658Y-131216003D01*
X145178347Y-131182988D01*
X145116581Y-131084688D01*
X145090222Y-131042738D01*
X144962668Y-130915184D01*
X144809929Y-130819211D01*
X144639660Y-130759631D01*
X144639655Y-130759630D01*
X144505366Y-130744500D01*
X144505360Y-130744500D01*
X142505452Y-130744500D01*
X142505445Y-130744500D01*
X142371156Y-130759630D01*
X142371151Y-130759631D01*
X142200882Y-130819211D01*
X142048143Y-130915184D01*
X141920590Y-131042737D01*
X141858551Y-131141472D01*
X141806216Y-131187763D01*
X141753557Y-131199500D01*
X138602352Y-131199500D01*
X138397648Y-131199500D01*
X138373329Y-131203351D01*
X138195465Y-131231522D01*
X138000776Y-131294781D01*
X137818386Y-131387715D01*
X137652786Y-131508028D01*
X137508032Y-131652782D01*
X137508028Y-131652787D01*
X137393134Y-131810927D01*
X137380497Y-131825723D01*
X128813869Y-140392350D01*
X128752546Y-140425835D01*
X128709304Y-140427514D01*
X128687375Y-140424500D01*
X128687374Y-140424500D01*
X128403438Y-140424500D01*
X128403437Y-140424500D01*
X128122146Y-140463162D01*
X128122140Y-140463163D01*
X127848735Y-140539768D01*
X127588305Y-140652890D01*
X127345713Y-140800414D01*
X127345702Y-140800421D01*
X127125460Y-140979601D01*
X126931656Y-141187113D01*
X126767914Y-141419084D01*
X126637282Y-141671192D01*
X126637281Y-141671194D01*
X126542202Y-141938722D01*
X126542197Y-141938739D01*
X126484432Y-142216723D01*
X126484431Y-142216725D01*
X126465056Y-142500000D01*
X126484431Y-142783274D01*
X126484432Y-142783276D01*
X126542197Y-143061260D01*
X126542202Y-143061277D01*
X126637281Y-143328805D01*
X126637282Y-143328807D01*
X126637283Y-143328810D01*
X126637285Y-143328814D01*
X126711156Y-143471377D01*
X126767914Y-143580915D01*
X126931656Y-143812886D01*
X127125460Y-144020398D01*
X127345702Y-144199578D01*
X127345705Y-144199580D01*
X127345709Y-144199583D01*
X127588310Y-144347112D01*
X127848739Y-144460233D01*
X128122146Y-144536838D01*
X128369446Y-144570828D01*
X128403437Y-144575500D01*
X128403438Y-144575500D01*
X128687375Y-144575500D01*
X128717700Y-144571331D01*
X128968666Y-144536838D01*
X129242073Y-144460233D01*
X129502502Y-144347112D01*
X129745103Y-144199583D01*
X129965355Y-144020395D01*
X130159157Y-143812884D01*
X130322897Y-143580916D01*
X130453527Y-143328814D01*
X130548611Y-143061272D01*
X130548612Y-143061265D01*
X130548614Y-143061260D01*
X130575430Y-142932212D01*
X130606380Y-142783274D01*
X130625756Y-142500000D01*
X130614164Y-142330536D01*
X130629228Y-142262312D01*
X130650190Y-142234399D01*
X139047771Y-133836819D01*
X139109094Y-133803334D01*
X139135452Y-133800500D01*
X141753557Y-133800500D01*
X141820596Y-133820185D01*
X141858551Y-133858528D01*
X141859545Y-133860110D01*
X141920590Y-133957262D01*
X142048144Y-134084816D01*
X142200884Y-134180789D01*
X142302320Y-134216283D01*
X142371151Y-134240368D01*
X142371156Y-134240369D01*
X142461652Y-134250565D01*
X142505446Y-134255499D01*
X142505449Y-134255500D01*
X142505452Y-134255500D01*
X143124656Y-134255500D01*
X143162972Y-134261568D01*
X143200872Y-134273883D01*
X143403054Y-134305906D01*
X143420765Y-134305906D01*
X143487804Y-134325591D01*
X143508446Y-134342225D01*
X147486765Y-138320543D01*
X147499400Y-138335336D01*
X147508031Y-138347215D01*
X147508036Y-138347221D01*
X147652786Y-138491971D01*
X147807749Y-138604556D01*
X147818390Y-138612287D01*
X147934607Y-138671503D01*
X148000776Y-138705218D01*
X148000778Y-138705218D01*
X148000781Y-138705220D01*
X148105137Y-138739127D01*
X148195465Y-138768477D01*
X148296557Y-138784488D01*
X148397648Y-138800500D01*
X148602352Y-138800500D01*
X156909953Y-138800500D01*
X156976992Y-138820185D01*
X156997634Y-138836819D01*
X160390330Y-142229515D01*
X160423223Y-142288249D01*
X160473126Y-142496111D01*
X160569533Y-142728859D01*
X160701160Y-142943653D01*
X160701161Y-142943656D01*
X160751595Y-143002706D01*
X160864776Y-143135224D01*
X160971370Y-143226264D01*
X161056343Y-143298838D01*
X161056346Y-143298839D01*
X161271140Y-143430466D01*
X161503889Y-143526873D01*
X161748852Y-143585683D01*
X162000000Y-143605449D01*
X162251148Y-143585683D01*
X162496111Y-143526873D01*
X162728859Y-143430466D01*
X162943659Y-143298836D01*
X163135224Y-143135224D01*
X163298836Y-142943659D01*
X163430466Y-142728859D01*
X163430472Y-142728843D01*
X163432677Y-142724518D01*
X163433345Y-142724858D01*
X163457013Y-142689432D01*
X164100000Y-142046445D01*
X164100000Y-142052661D01*
X164127259Y-142154394D01*
X164179920Y-142245606D01*
X164254394Y-142320080D01*
X164345606Y-142372741D01*
X164447339Y-142400000D01*
X164453553Y-142400000D01*
X163774526Y-143079025D01*
X163847513Y-143130132D01*
X163847521Y-143130136D01*
X164053668Y-143226264D01*
X164053682Y-143226269D01*
X164273389Y-143285139D01*
X164273400Y-143285141D01*
X164499998Y-143304966D01*
X164500002Y-143304966D01*
X164726599Y-143285141D01*
X164726610Y-143285139D01*
X164946317Y-143226269D01*
X164946331Y-143226264D01*
X165152478Y-143130136D01*
X165225471Y-143079024D01*
X164546447Y-142400000D01*
X164552661Y-142400000D01*
X164654394Y-142372741D01*
X164745606Y-142320080D01*
X164820080Y-142245606D01*
X164872741Y-142154394D01*
X164900000Y-142052661D01*
X164900000Y-142046447D01*
X165579024Y-142725471D01*
X165630136Y-142652478D01*
X165726264Y-142446331D01*
X165726269Y-142446317D01*
X165785139Y-142226610D01*
X165785141Y-142226599D01*
X165804966Y-142000002D01*
X165804966Y-141999997D01*
X165785141Y-141773400D01*
X165785139Y-141773389D01*
X165726269Y-141553682D01*
X165726264Y-141553668D01*
X165630136Y-141347521D01*
X165630132Y-141347513D01*
X165579025Y-141274526D01*
X164900000Y-141953551D01*
X164900000Y-141947339D01*
X164872741Y-141845606D01*
X164820080Y-141754394D01*
X164745606Y-141679920D01*
X164654394Y-141627259D01*
X164552661Y-141600000D01*
X164546445Y-141600000D01*
X165225472Y-140920974D01*
X165152478Y-140869863D01*
X164946331Y-140773735D01*
X164946317Y-140773730D01*
X164726610Y-140714860D01*
X164726599Y-140714858D01*
X164500002Y-140695034D01*
X164499998Y-140695034D01*
X164273400Y-140714858D01*
X164273389Y-140714860D01*
X164053682Y-140773730D01*
X164053673Y-140773734D01*
X163847516Y-140869866D01*
X163847512Y-140869868D01*
X163774526Y-140920973D01*
X163774526Y-140920974D01*
X164453553Y-141600000D01*
X164447339Y-141600000D01*
X164345606Y-141627259D01*
X164254394Y-141679920D01*
X164179920Y-141754394D01*
X164127259Y-141845606D01*
X164100000Y-141947339D01*
X164100000Y-141953553D01*
X163457014Y-141310567D01*
X163433346Y-141275145D01*
X163432680Y-141275485D01*
X163430466Y-141271141D01*
X163298839Y-141056346D01*
X163298838Y-141056343D01*
X163233294Y-140979601D01*
X163135224Y-140864776D01*
X162959693Y-140714858D01*
X162943656Y-140701161D01*
X162943653Y-140701160D01*
X162728859Y-140569533D01*
X162496110Y-140473126D01*
X162496112Y-140473126D01*
X162288249Y-140423223D01*
X162229515Y-140390330D01*
X158347221Y-136508036D01*
X158347219Y-136508034D01*
X158181611Y-136387713D01*
X158073888Y-136332826D01*
X158073886Y-136332824D01*
X158024108Y-136307462D01*
X157999219Y-136294780D01*
X157901876Y-136263151D01*
X157878003Y-136255394D01*
X157804535Y-136231522D01*
X157629995Y-136203878D01*
X157602352Y-136199500D01*
X157602351Y-136199500D01*
X149095452Y-136199500D01*
X149028413Y-136179815D01*
X149007771Y-136163181D01*
X147170181Y-134325591D01*
X146781731Y-133937140D01*
X146748247Y-133875819D01*
X146753231Y-133806127D01*
X146795103Y-133750194D01*
X146810397Y-133740406D01*
X146843936Y-133722255D01*
X146843940Y-133722253D01*
X146883395Y-133691542D01*
X146281413Y-133089560D01*
X146346191Y-133062729D01*
X146450195Y-132993236D01*
X146538642Y-132904789D01*
X146608135Y-132800785D01*
X146634967Y-132736007D01*
X146875431Y-132976471D01*
X146903178Y-133018850D01*
X146928077Y-133082292D01*
X146999321Y-133263818D01*
X147130877Y-133491681D01*
X147294925Y-133697391D01*
X147487801Y-133876353D01*
X147705195Y-134024570D01*
X147942252Y-134138731D01*
X148193675Y-134216285D01*
X148453849Y-134255500D01*
X148453850Y-134255500D01*
X148716962Y-134255500D01*
X148716963Y-134255500D01*
X148977137Y-134216285D01*
X149228560Y-134138731D01*
X149465617Y-134024570D01*
X149683011Y-133876353D01*
X149702312Y-133858443D01*
X149729086Y-133833602D01*
X149791618Y-133802433D01*
X149813427Y-133800500D01*
X155307757Y-133800500D01*
X155307758Y-133800500D01*
X155509941Y-133768477D01*
X155635285Y-133727750D01*
X155704625Y-133705220D01*
X155797902Y-133657693D01*
X155887017Y-133612287D01*
X156052625Y-133491966D01*
X156997435Y-132547155D01*
X183175000Y-132547155D01*
X183175000Y-133170000D01*
X184009252Y-133170000D01*
X183987482Y-133207708D01*
X183950000Y-133347591D01*
X183950000Y-133492409D01*
X183987482Y-133632292D01*
X184009252Y-133670000D01*
X183175000Y-133670000D01*
X183175000Y-134292844D01*
X183181401Y-134352372D01*
X183181403Y-134352379D01*
X183231645Y-134487086D01*
X183231649Y-134487093D01*
X183317809Y-134602187D01*
X183317812Y-134602190D01*
X183432906Y-134688350D01*
X183432913Y-134688354D01*
X183567620Y-134738596D01*
X183567627Y-134738598D01*
X183627155Y-134744999D01*
X183627172Y-134745000D01*
X184250000Y-134745000D01*
X184250000Y-133910747D01*
X184287708Y-133932518D01*
X184427591Y-133970000D01*
X184572409Y-133970000D01*
X184712292Y-133932518D01*
X184750000Y-133910747D01*
X184750000Y-134745000D01*
X185372828Y-134745000D01*
X185372844Y-134744999D01*
X185432372Y-134738598D01*
X185432379Y-134738596D01*
X185567086Y-134688354D01*
X185567093Y-134688350D01*
X185682187Y-134602190D01*
X185682190Y-134602187D01*
X185768350Y-134487093D01*
X185768354Y-134487086D01*
X185818596Y-134352379D01*
X185818598Y-134352372D01*
X185824999Y-134292844D01*
X185825000Y-134292827D01*
X185825000Y-133670000D01*
X184990748Y-133670000D01*
X185012518Y-133632292D01*
X185050000Y-133492409D01*
X185050000Y-133347591D01*
X185012518Y-133207708D01*
X184990748Y-133170000D01*
X185825000Y-133170000D01*
X185825000Y-132547172D01*
X185824999Y-132547155D01*
X185818598Y-132487627D01*
X185818596Y-132487620D01*
X185768354Y-132352913D01*
X185768350Y-132352906D01*
X185682190Y-132237812D01*
X185682187Y-132237809D01*
X185567093Y-132151649D01*
X185567086Y-132151645D01*
X185432379Y-132101403D01*
X185432372Y-132101401D01*
X185372844Y-132095000D01*
X184750000Y-132095000D01*
X184750000Y-132929252D01*
X184712292Y-132907482D01*
X184572409Y-132870000D01*
X184427591Y-132870000D01*
X184287708Y-132907482D01*
X184250000Y-132929252D01*
X184250000Y-132095000D01*
X183627155Y-132095000D01*
X183567627Y-132101401D01*
X183567620Y-132101403D01*
X183432913Y-132151645D01*
X183432906Y-132151649D01*
X183317812Y-132237809D01*
X183317809Y-132237812D01*
X183231649Y-132352906D01*
X183231645Y-132352913D01*
X183181403Y-132487620D01*
X183181401Y-132487627D01*
X183175000Y-132547155D01*
X156997435Y-132547155D01*
X157720412Y-131824177D01*
X157781733Y-131790694D01*
X157827484Y-131789387D01*
X157897648Y-131800500D01*
X157897649Y-131800500D01*
X158102352Y-131800500D01*
X168524085Y-131800500D01*
X168588875Y-131818773D01*
X168771140Y-131930466D01*
X168893501Y-131981149D01*
X169003889Y-132026873D01*
X169248852Y-132085683D01*
X169500000Y-132105449D01*
X169751148Y-132085683D01*
X169996111Y-132026873D01*
X170228859Y-131930466D01*
X170443659Y-131798836D01*
X170635224Y-131635224D01*
X170798836Y-131443659D01*
X170930466Y-131228859D01*
X170930472Y-131228843D01*
X170932677Y-131224518D01*
X170933345Y-131224858D01*
X170957013Y-131189432D01*
X171600000Y-130546445D01*
X171600000Y-130552661D01*
X171627259Y-130654394D01*
X171679920Y-130745606D01*
X171754394Y-130820080D01*
X171845606Y-130872741D01*
X171947339Y-130900000D01*
X171953553Y-130900000D01*
X171274526Y-131579025D01*
X171347513Y-131630132D01*
X171347521Y-131630136D01*
X171553668Y-131726264D01*
X171553682Y-131726269D01*
X171773389Y-131785139D01*
X171773400Y-131785141D01*
X171999998Y-131804966D01*
X172000002Y-131804966D01*
X172226599Y-131785141D01*
X172226610Y-131785139D01*
X172446317Y-131726269D01*
X172446331Y-131726264D01*
X172652478Y-131630136D01*
X172725471Y-131579024D01*
X172046447Y-130900000D01*
X172052661Y-130900000D01*
X172154394Y-130872741D01*
X172245606Y-130820080D01*
X172320080Y-130745606D01*
X172372741Y-130654394D01*
X172400000Y-130552661D01*
X172400000Y-130546447D01*
X173079024Y-131225471D01*
X173130136Y-131152478D01*
X173226264Y-130946331D01*
X173226269Y-130946317D01*
X173285139Y-130726610D01*
X173285141Y-130726599D01*
X173304966Y-130500002D01*
X173304966Y-130499997D01*
X173285141Y-130273400D01*
X173285139Y-130273389D01*
X173226269Y-130053682D01*
X173226264Y-130053668D01*
X173130136Y-129847521D01*
X173130132Y-129847513D01*
X173079025Y-129774526D01*
X172400000Y-130453551D01*
X172400000Y-130447339D01*
X172372741Y-130345606D01*
X172320080Y-130254394D01*
X172245606Y-130179920D01*
X172154394Y-130127259D01*
X172052661Y-130100000D01*
X172046445Y-130100000D01*
X172725472Y-129420974D01*
X172652478Y-129369863D01*
X172446331Y-129273735D01*
X172446317Y-129273730D01*
X172226610Y-129214860D01*
X172226599Y-129214858D01*
X172000002Y-129195034D01*
X171999998Y-129195034D01*
X171773400Y-129214858D01*
X171773389Y-129214860D01*
X171553682Y-129273730D01*
X171553673Y-129273734D01*
X171347516Y-129369866D01*
X171347512Y-129369868D01*
X171274526Y-129420973D01*
X171274526Y-129420974D01*
X171953553Y-130100000D01*
X171947339Y-130100000D01*
X171845606Y-130127259D01*
X171754394Y-130179920D01*
X171679920Y-130254394D01*
X171627259Y-130345606D01*
X171600000Y-130447339D01*
X171600000Y-130453553D01*
X170957014Y-129810567D01*
X170933346Y-129775145D01*
X170932680Y-129775485D01*
X170930466Y-129771141D01*
X170798839Y-129556346D01*
X170798838Y-129556343D01*
X170686233Y-129424500D01*
X170635224Y-129364776D01*
X170448406Y-129205218D01*
X170443656Y-129201161D01*
X170443653Y-129201160D01*
X170228859Y-129069533D01*
X169996110Y-128973126D01*
X169751151Y-128914317D01*
X169500000Y-128894551D01*
X169248848Y-128914317D01*
X169003889Y-128973126D01*
X168771140Y-129069533D01*
X168588875Y-129181227D01*
X168524085Y-129199500D01*
X160644453Y-129199500D01*
X160577414Y-129179815D01*
X160531659Y-129127011D01*
X160521715Y-129057853D01*
X160550740Y-128994297D01*
X160556772Y-128987819D01*
X162969091Y-126575500D01*
X176135556Y-113409032D01*
X176135563Y-113409027D01*
X176142623Y-113401967D01*
X176142625Y-113401966D01*
X176287372Y-113257219D01*
X176287374Y-113257215D01*
X176287377Y-113257213D01*
X176407692Y-113091611D01*
X176407693Y-113091610D01*
X176498420Y-112913548D01*
X176500325Y-112910145D01*
X176500626Y-112909219D01*
X176500627Y-112909218D01*
X176563883Y-112714534D01*
X176595907Y-112512351D01*
X176595907Y-112307648D01*
X176595907Y-112303247D01*
X176595906Y-112303232D01*
X176595906Y-108095914D01*
X176614179Y-108031124D01*
X176633252Y-108000000D01*
X176725872Y-107848859D01*
X176725878Y-107848843D01*
X176728083Y-107844518D01*
X176728751Y-107844858D01*
X176752419Y-107809432D01*
X177395406Y-107166445D01*
X177395406Y-107172661D01*
X177422665Y-107274394D01*
X177475326Y-107365606D01*
X177549800Y-107440080D01*
X177641012Y-107492741D01*
X177742745Y-107520000D01*
X177748959Y-107520000D01*
X177069932Y-108199025D01*
X177142919Y-108250132D01*
X177142927Y-108250136D01*
X177349074Y-108346264D01*
X177349088Y-108346269D01*
X177568795Y-108405139D01*
X177568806Y-108405141D01*
X177795404Y-108424966D01*
X177795408Y-108424966D01*
X178022005Y-108405141D01*
X178022016Y-108405139D01*
X178241723Y-108346269D01*
X178241737Y-108346264D01*
X178447884Y-108250136D01*
X178520877Y-108199024D01*
X177841853Y-107520000D01*
X177848067Y-107520000D01*
X177949800Y-107492741D01*
X178041012Y-107440080D01*
X178115486Y-107365606D01*
X178168147Y-107274394D01*
X178195406Y-107172661D01*
X178195406Y-107166447D01*
X178874430Y-107845471D01*
X178925542Y-107772478D01*
X179021670Y-107566331D01*
X179021675Y-107566317D01*
X179080545Y-107346610D01*
X179080547Y-107346599D01*
X179100372Y-107120002D01*
X179100372Y-107119997D01*
X179080547Y-106893400D01*
X179080545Y-106893389D01*
X179021675Y-106673682D01*
X179021670Y-106673668D01*
X178925542Y-106467521D01*
X178925538Y-106467513D01*
X178874431Y-106394526D01*
X178195406Y-107073551D01*
X178195406Y-107067339D01*
X178168147Y-106965606D01*
X178115486Y-106874394D01*
X178041012Y-106799920D01*
X177949800Y-106747259D01*
X177848067Y-106720000D01*
X177841851Y-106720000D01*
X178520878Y-106040974D01*
X178447884Y-105989863D01*
X178241737Y-105893735D01*
X178241723Y-105893730D01*
X178022016Y-105834860D01*
X178022005Y-105834858D01*
X177795408Y-105815034D01*
X177795404Y-105815034D01*
X177568806Y-105834858D01*
X177568795Y-105834860D01*
X177349088Y-105893730D01*
X177349079Y-105893734D01*
X177142922Y-105989866D01*
X177142918Y-105989868D01*
X177069932Y-106040973D01*
X177069932Y-106040974D01*
X177748959Y-106720000D01*
X177742745Y-106720000D01*
X177641012Y-106747259D01*
X177549800Y-106799920D01*
X177475326Y-106874394D01*
X177422665Y-106965606D01*
X177395406Y-107067339D01*
X177395406Y-107073553D01*
X176752420Y-106430567D01*
X176728752Y-106395145D01*
X176728086Y-106395485D01*
X176725872Y-106391141D01*
X176614179Y-106208874D01*
X176595906Y-106144084D01*
X176595906Y-106000046D01*
X176615591Y-105933007D01*
X176632220Y-105912370D01*
X180725170Y-101819419D01*
X180786491Y-101785936D01*
X180798898Y-101784108D01*
X180802536Y-101783531D01*
X180802536Y-101783530D01*
X180802548Y-101783530D01*
X181053358Y-101723315D01*
X181193617Y-101665218D01*
X181291657Y-101624609D01*
X181291658Y-101624608D01*
X181291661Y-101624607D01*
X181511588Y-101489835D01*
X181707725Y-101322319D01*
X181875241Y-101126182D01*
X182010013Y-100906255D01*
X182108721Y-100667952D01*
X182168936Y-100417142D01*
X182189173Y-100160000D01*
X182168936Y-99902858D01*
X182108721Y-99652048D01*
X182087659Y-99601200D01*
X182010015Y-99413748D01*
X182010013Y-99413745D01*
X181875243Y-99193820D01*
X181875239Y-99193815D01*
X181718246Y-99010000D01*
X181707725Y-98997681D01*
X181692045Y-98984289D01*
X181653853Y-98925785D01*
X181653353Y-98855917D01*
X181690706Y-98796870D01*
X181691950Y-98795791D01*
X181707725Y-98782319D01*
X181875241Y-98586182D01*
X182010013Y-98366255D01*
X182108721Y-98127952D01*
X182168936Y-97877142D01*
X182189173Y-97620000D01*
X182168936Y-97362858D01*
X182108721Y-97112048D01*
X182059720Y-96993748D01*
X182010015Y-96873748D01*
X182010013Y-96873745D01*
X181875243Y-96653820D01*
X181875239Y-96653815D01*
X181718246Y-96470000D01*
X181707725Y-96457681D01*
X181692045Y-96444289D01*
X181653853Y-96385785D01*
X181653353Y-96315917D01*
X181690706Y-96256870D01*
X181691950Y-96255791D01*
X181707725Y-96242319D01*
X181875241Y-96046182D01*
X182010013Y-95826255D01*
X182108721Y-95587952D01*
X182168936Y-95337142D01*
X182189173Y-95080000D01*
X182168936Y-94822858D01*
X182108721Y-94572048D01*
X182059720Y-94453748D01*
X182010015Y-94333748D01*
X182010013Y-94333745D01*
X181875243Y-94113820D01*
X181875239Y-94113815D01*
X181766596Y-93986611D01*
X181707725Y-93917681D01*
X181692045Y-93904289D01*
X181653853Y-93845785D01*
X181653353Y-93775917D01*
X181690706Y-93716870D01*
X181691950Y-93715791D01*
X181707725Y-93702319D01*
X181875241Y-93506182D01*
X182010013Y-93286255D01*
X182017561Y-93268034D01*
X182100701Y-93067313D01*
X182108721Y-93047952D01*
X182168936Y-92797142D01*
X182189173Y-92540000D01*
X182168936Y-92282858D01*
X182108721Y-92032048D01*
X182059720Y-91913748D01*
X182010015Y-91793748D01*
X182010013Y-91793745D01*
X181875243Y-91573820D01*
X181875239Y-91573815D01*
X181718246Y-91390000D01*
X181707725Y-91377681D01*
X181692045Y-91364289D01*
X181653853Y-91305785D01*
X181653353Y-91235917D01*
X181690706Y-91176870D01*
X181691950Y-91175791D01*
X181707725Y-91162319D01*
X181875241Y-90966182D01*
X182010013Y-90746255D01*
X182108721Y-90507952D01*
X182168936Y-90257142D01*
X182189173Y-90000000D01*
X182187279Y-89975939D01*
X182201643Y-89907564D01*
X182223213Y-89878533D01*
X185884820Y-86216928D01*
X185986638Y-86076788D01*
X186065279Y-85922445D01*
X186118808Y-85757701D01*
X186145906Y-85586611D01*
X186145906Y-85413389D01*
X186145906Y-77913389D01*
X186118808Y-77742299D01*
X186065279Y-77577555D01*
X185986638Y-77423212D01*
X185884820Y-77283072D01*
X185762334Y-77160586D01*
X181551257Y-72949509D01*
X181517772Y-72888186D01*
X181515362Y-72872075D01*
X181505770Y-72756308D01*
X181445742Y-72519264D01*
X181347517Y-72295333D01*
X181282087Y-72195184D01*
X181213773Y-72090621D01*
X181048163Y-71910722D01*
X181048153Y-71910713D01*
X180855197Y-71760529D01*
X180855193Y-71760526D01*
X180640140Y-71644145D01*
X180640135Y-71644143D01*
X180408864Y-71564748D01*
X180227967Y-71534562D01*
X180167669Y-71524500D01*
X179923143Y-71524500D01*
X179874904Y-71532549D01*
X179681947Y-71564748D01*
X179450676Y-71644143D01*
X179450671Y-71644145D01*
X179235615Y-71760528D01*
X179121569Y-71849295D01*
X179056575Y-71874938D01*
X178988035Y-71861372D01*
X178969243Y-71849295D01*
X178855196Y-71760528D01*
X178640140Y-71644145D01*
X178640135Y-71644143D01*
X178408864Y-71564748D01*
X178227967Y-71534562D01*
X178167669Y-71524500D01*
X177923143Y-71524500D01*
X177874904Y-71532549D01*
X177681947Y-71564748D01*
X177450676Y-71644143D01*
X177450671Y-71644145D01*
X177235615Y-71760528D01*
X177121569Y-71849295D01*
X177056575Y-71874938D01*
X176988035Y-71861372D01*
X176969243Y-71849295D01*
X176855196Y-71760528D01*
X176640140Y-71644145D01*
X176640135Y-71644143D01*
X176408864Y-71564748D01*
X176227967Y-71534562D01*
X176167669Y-71524500D01*
X175923143Y-71524500D01*
X175874904Y-71532549D01*
X175681947Y-71564748D01*
X175450676Y-71644143D01*
X175450671Y-71644145D01*
X175235615Y-71760528D01*
X175121569Y-71849295D01*
X175056575Y-71874938D01*
X174988035Y-71861372D01*
X174969243Y-71849295D01*
X174855196Y-71760528D01*
X174640140Y-71644145D01*
X174640135Y-71644143D01*
X174408864Y-71564748D01*
X174227967Y-71534562D01*
X174167669Y-71524500D01*
X173923143Y-71524500D01*
X173874904Y-71532549D01*
X173681947Y-71564748D01*
X173450676Y-71644143D01*
X173450660Y-71644150D01*
X173348210Y-71699593D01*
X173279882Y-71714188D01*
X173223222Y-71695532D01*
X173069929Y-71599211D01*
X172899660Y-71539631D01*
X172899655Y-71539630D01*
X172765366Y-71524500D01*
X172765360Y-71524500D01*
X171325452Y-71524500D01*
X171325445Y-71524500D01*
X171191156Y-71539630D01*
X171191151Y-71539631D01*
X171020882Y-71599211D01*
X170868143Y-71695184D01*
X170740590Y-71822737D01*
X170644617Y-71975476D01*
X170585037Y-72145745D01*
X170585036Y-72145750D01*
X170569906Y-72280039D01*
X170569906Y-73719960D01*
X170585036Y-73854249D01*
X170585037Y-73854254D01*
X170644617Y-74024524D01*
X170725899Y-74153881D01*
X170744906Y-74219854D01*
X170744906Y-74943054D01*
X170744906Y-75147758D01*
X170754569Y-75208770D01*
X170776928Y-75349937D01*
X170776928Y-75349938D01*
X170797545Y-75413390D01*
X170840184Y-75544622D01*
X170840186Y-75544625D01*
X170861579Y-75586611D01*
X170933119Y-75727017D01*
X171053440Y-75892625D01*
X171053442Y-75892627D01*
X177163181Y-82002366D01*
X177196666Y-82063689D01*
X177199500Y-82090047D01*
X177199500Y-98012242D01*
X177199500Y-98216946D01*
X177204411Y-98247952D01*
X177231522Y-98419124D01*
X177231524Y-98419134D01*
X177242342Y-98452425D01*
X177242342Y-98452428D01*
X177242343Y-98452428D01*
X177276191Y-98556603D01*
X177294781Y-98613815D01*
X177316515Y-98656470D01*
X177387711Y-98796203D01*
X177396145Y-98807811D01*
X177508034Y-98961813D01*
X177508036Y-98961815D01*
X178618540Y-100072319D01*
X178652025Y-100133642D01*
X178647041Y-100203334D01*
X178618540Y-100247681D01*
X174303442Y-104562778D01*
X174183119Y-104728388D01*
X174136652Y-104819585D01*
X174136651Y-104819584D01*
X174090185Y-104910781D01*
X174090185Y-104910782D01*
X174026929Y-105105461D01*
X174026929Y-105105464D01*
X173994906Y-105307648D01*
X173994906Y-106144084D01*
X173976633Y-106208874D01*
X173864939Y-106391140D01*
X173768532Y-106623889D01*
X173709723Y-106868848D01*
X173689957Y-107120000D01*
X173709723Y-107371151D01*
X173768532Y-107616110D01*
X173864939Y-107848859D01*
X173976633Y-108031124D01*
X173994906Y-108095914D01*
X173994906Y-111819952D01*
X173975221Y-111886991D01*
X173958587Y-111907633D01*
X156738042Y-129128178D01*
X154703040Y-131163181D01*
X154641717Y-131196666D01*
X154615359Y-131199500D01*
X150009906Y-131199500D01*
X149942867Y-131179815D01*
X149897112Y-131127011D01*
X149885906Y-131075500D01*
X149885906Y-125137648D01*
X149853883Y-124935465D01*
X149790624Y-124740776D01*
X149728833Y-124619506D01*
X149697693Y-124558390D01*
X149649434Y-124491966D01*
X149577377Y-124392786D01*
X142529849Y-117345258D01*
X156074906Y-117345258D01*
X156074906Y-117574741D01*
X156098261Y-117752130D01*
X156104858Y-117802238D01*
X156133860Y-117910476D01*
X156164248Y-118023887D01*
X156252056Y-118235876D01*
X156252063Y-118235890D01*
X156366798Y-118434617D01*
X156506487Y-118616661D01*
X156506495Y-118616670D01*
X156668736Y-118778911D01*
X156668744Y-118778918D01*
X156850788Y-118918607D01*
X156850791Y-118918608D01*
X156850794Y-118918611D01*
X157049518Y-119033344D01*
X157049523Y-119033346D01*
X157049529Y-119033349D01*
X157140886Y-119071190D01*
X157261519Y-119121158D01*
X157483168Y-119180548D01*
X157710672Y-119210500D01*
X157710679Y-119210500D01*
X157940133Y-119210500D01*
X157940140Y-119210500D01*
X158167644Y-119180548D01*
X158389293Y-119121158D01*
X158601294Y-119033344D01*
X158800018Y-118918611D01*
X158982067Y-118778919D01*
X158982071Y-118778914D01*
X158982076Y-118778911D01*
X159144317Y-118616670D01*
X159144320Y-118616665D01*
X159144325Y-118616661D01*
X159284017Y-118434612D01*
X159398750Y-118235888D01*
X159486564Y-118023887D01*
X159545954Y-117802238D01*
X159575906Y-117574734D01*
X159575906Y-117345266D01*
X159545954Y-117117762D01*
X159486564Y-116896113D01*
X159398750Y-116684112D01*
X159284017Y-116485388D01*
X159284014Y-116485385D01*
X159284013Y-116485382D01*
X159144324Y-116303338D01*
X159144317Y-116303330D01*
X158982076Y-116141089D01*
X158982067Y-116141081D01*
X158800023Y-116001392D01*
X158601296Y-115886657D01*
X158601282Y-115886650D01*
X158389293Y-115798842D01*
X158167644Y-115739452D01*
X158129621Y-115734446D01*
X157940147Y-115709500D01*
X157940140Y-115709500D01*
X157710672Y-115709500D01*
X157710664Y-115709500D01*
X157494121Y-115738009D01*
X157483168Y-115739452D01*
X157389482Y-115764554D01*
X157261518Y-115798842D01*
X157049529Y-115886650D01*
X157049515Y-115886657D01*
X156850788Y-116001392D01*
X156668744Y-116141081D01*
X156506487Y-116303338D01*
X156366798Y-116485382D01*
X156252063Y-116684109D01*
X156252056Y-116684123D01*
X156164248Y-116896112D01*
X156104859Y-117117759D01*
X156104857Y-117117770D01*
X156074906Y-117345258D01*
X142529849Y-117345258D01*
X134680763Y-109496172D01*
X134647278Y-109434849D01*
X134644792Y-109417765D01*
X134630789Y-109230897D01*
X134570740Y-108967805D01*
X134472149Y-108716602D01*
X134337221Y-108482898D01*
X134168967Y-108271915D01*
X134168966Y-108271914D01*
X134168963Y-108271910D01*
X133971147Y-108088365D01*
X133887190Y-108031124D01*
X133748181Y-107936349D01*
X133748175Y-107936346D01*
X133748174Y-107936345D01*
X133748173Y-107936344D01*
X133505049Y-107819263D01*
X133505051Y-107819263D01*
X133311837Y-107759664D01*
X133260706Y-107728854D01*
X132982980Y-107451128D01*
X133042259Y-107435245D01*
X133158553Y-107368102D01*
X133253508Y-107273147D01*
X133320651Y-107156853D01*
X133336534Y-107097575D01*
X134068841Y-107829882D01*
X134169139Y-107676364D01*
X134268993Y-107448717D01*
X134330018Y-107207738D01*
X134330020Y-107207729D01*
X134350547Y-106960000D01*
X134350547Y-106959994D01*
X134330020Y-106712270D01*
X134330018Y-106712261D01*
X134268993Y-106471282D01*
X134169138Y-106243632D01*
X134068841Y-106090116D01*
X133336534Y-106822424D01*
X133320651Y-106763147D01*
X133253508Y-106646853D01*
X133158553Y-106551898D01*
X133042259Y-106484755D01*
X132982978Y-106468871D01*
X133260705Y-106191144D01*
X133311834Y-106160336D01*
X133505047Y-106100738D01*
X133735271Y-105989868D01*
X133748173Y-105983655D01*
X133748173Y-105983654D01*
X133748181Y-105983651D01*
X133971147Y-105831635D01*
X134168967Y-105648085D01*
X134337221Y-105437102D01*
X134472149Y-105203398D01*
X134570740Y-104952195D01*
X134630789Y-104689103D01*
X134650955Y-104420000D01*
X134630789Y-104150897D01*
X134570740Y-103887805D01*
X134472149Y-103636602D01*
X134337221Y-103402898D01*
X134197193Y-103227310D01*
X134170787Y-103162627D01*
X134183542Y-103093931D01*
X134197190Y-103072693D01*
X134337221Y-102897102D01*
X134472149Y-102663398D01*
X134570740Y-102412195D01*
X134630789Y-102149103D01*
X134650955Y-101880000D01*
X134650668Y-101876173D01*
X134634150Y-101655747D01*
X134630789Y-101610897D01*
X134570740Y-101347805D01*
X134472149Y-101096602D01*
X134337221Y-100862898D01*
X134197193Y-100687310D01*
X134170787Y-100622627D01*
X134183542Y-100553931D01*
X134197190Y-100532693D01*
X134337221Y-100357102D01*
X134472149Y-100123398D01*
X134570740Y-99872195D01*
X134630789Y-99609103D01*
X134639839Y-99488341D01*
X134650955Y-99340004D01*
X134650955Y-99339995D01*
X134630789Y-99070898D01*
X134625057Y-99045785D01*
X134570740Y-98807805D01*
X134472149Y-98556602D01*
X134337221Y-98322898D01*
X134197193Y-98147310D01*
X134170787Y-98082627D01*
X134183542Y-98013931D01*
X134197190Y-97992693D01*
X134337221Y-97817102D01*
X134472149Y-97583398D01*
X134570740Y-97332195D01*
X134630789Y-97069103D01*
X134637511Y-96979402D01*
X134650955Y-96800004D01*
X134650955Y-96799995D01*
X134630789Y-96530898D01*
X134625057Y-96505785D01*
X134570740Y-96267805D01*
X134472149Y-96016602D01*
X134337221Y-95782898D01*
X134197193Y-95607310D01*
X134170787Y-95542627D01*
X134183542Y-95473931D01*
X134197190Y-95452693D01*
X134337221Y-95277102D01*
X134472149Y-95043398D01*
X134570740Y-94792195D01*
X134630789Y-94529103D01*
X134637511Y-94439402D01*
X134650955Y-94260004D01*
X134650955Y-94259995D01*
X134630789Y-93990898D01*
X134629811Y-93986611D01*
X134570740Y-93727805D01*
X134472149Y-93476602D01*
X134337221Y-93242898D01*
X134197193Y-93067310D01*
X134170787Y-93002627D01*
X134183542Y-92933931D01*
X134197190Y-92912693D01*
X134337221Y-92737102D01*
X134472149Y-92503398D01*
X134570740Y-92252195D01*
X134630789Y-91989103D01*
X134637511Y-91899402D01*
X134650955Y-91720004D01*
X134650955Y-91719995D01*
X134630789Y-91450898D01*
X134625057Y-91425785D01*
X134570740Y-91187805D01*
X134472149Y-90936602D01*
X134337221Y-90702898D01*
X134197193Y-90527310D01*
X134170787Y-90462627D01*
X134183542Y-90393931D01*
X134197190Y-90372693D01*
X134337221Y-90197102D01*
X134472149Y-89963398D01*
X134570740Y-89712195D01*
X134630789Y-89449103D01*
X134637511Y-89359402D01*
X134650955Y-89180004D01*
X134650955Y-89179995D01*
X134630789Y-88910898D01*
X134625057Y-88885785D01*
X134570740Y-88647805D01*
X134472149Y-88396602D01*
X134337221Y-88162898D01*
X134197193Y-87987310D01*
X134170787Y-87922627D01*
X134183542Y-87853931D01*
X134197190Y-87832693D01*
X134337221Y-87657102D01*
X134472149Y-87423398D01*
X134570740Y-87172195D01*
X134630789Y-86909103D01*
X134637511Y-86819402D01*
X134650955Y-86640004D01*
X134650955Y-86639995D01*
X134630789Y-86370898D01*
X134625057Y-86345785D01*
X134570740Y-86107805D01*
X134472149Y-85856602D01*
X134337221Y-85622898D01*
X134197193Y-85447310D01*
X134170787Y-85382627D01*
X134183542Y-85313931D01*
X134197190Y-85292693D01*
X134337221Y-85117102D01*
X134472149Y-84883398D01*
X134570740Y-84632195D01*
X134630789Y-84369103D01*
X134637511Y-84279402D01*
X134650955Y-84100004D01*
X134650955Y-84099995D01*
X134630789Y-83830898D01*
X134630789Y-83830897D01*
X134570740Y-83567805D01*
X134472149Y-83316602D01*
X134337221Y-83082898D01*
X134197193Y-82907310D01*
X134170787Y-82842627D01*
X134183542Y-82773931D01*
X134197190Y-82752693D01*
X134337221Y-82577102D01*
X134472149Y-82343398D01*
X134570740Y-82092195D01*
X134630789Y-81829103D01*
X134650955Y-81560000D01*
X134646222Y-81496846D01*
X134630789Y-81290898D01*
X134625498Y-81267716D01*
X134570740Y-81027805D01*
X134472149Y-80776602D01*
X134337221Y-80542898D01*
X134197193Y-80367310D01*
X134170787Y-80302627D01*
X134183542Y-80233931D01*
X134197190Y-80212693D01*
X134337221Y-80037102D01*
X134472149Y-79803398D01*
X134570740Y-79552195D01*
X134630789Y-79289103D01*
X134650955Y-79020000D01*
X134630789Y-78750897D01*
X134570740Y-78487805D01*
X134472149Y-78236602D01*
X134337221Y-78002898D01*
X134197193Y-77827310D01*
X134170787Y-77762627D01*
X134183542Y-77693931D01*
X134197190Y-77672693D01*
X134337221Y-77497102D01*
X134472149Y-77263398D01*
X134570740Y-77012195D01*
X134630789Y-76749103D01*
X134650955Y-76480000D01*
X134630789Y-76210897D01*
X134570740Y-75947805D01*
X134472149Y-75696602D01*
X134337221Y-75462898D01*
X134197193Y-75287310D01*
X134170787Y-75222627D01*
X134183542Y-75153931D01*
X134197190Y-75132693D01*
X134337221Y-74957102D01*
X134472149Y-74723398D01*
X134570740Y-74472195D01*
X134630789Y-74209103D01*
X134650955Y-73940000D01*
X134644529Y-73854255D01*
X134630789Y-73670898D01*
X134577461Y-73437252D01*
X134570740Y-73407805D01*
X134472149Y-73156602D01*
X134337221Y-72922898D01*
X134168967Y-72711915D01*
X134168966Y-72711914D01*
X134168963Y-72711910D01*
X133971147Y-72528365D01*
X133893573Y-72475476D01*
X133792454Y-72406534D01*
X133748154Y-72352507D01*
X133740095Y-72283103D01*
X133770838Y-72220361D01*
X133830214Y-72184308D01*
X133879293Y-72171158D01*
X134091294Y-72083344D01*
X134290018Y-71968611D01*
X134472067Y-71828919D01*
X134472071Y-71828914D01*
X134472076Y-71828911D01*
X134634317Y-71666670D01*
X134634320Y-71666665D01*
X134634325Y-71666661D01*
X134774017Y-71484612D01*
X134888750Y-71285888D01*
X134976564Y-71073887D01*
X135035954Y-70852238D01*
X135065906Y-70624734D01*
X135065906Y-70395266D01*
X135035954Y-70167762D01*
X134976564Y-69946113D01*
X134924785Y-69821109D01*
X134888755Y-69734123D01*
X134888752Y-69734117D01*
X134888750Y-69734112D01*
X134774017Y-69535388D01*
X134774014Y-69535385D01*
X134774013Y-69535382D01*
X134634324Y-69353338D01*
X134634317Y-69353330D01*
X134472076Y-69191089D01*
X134472067Y-69191081D01*
X134290023Y-69051392D01*
X134091296Y-68936657D01*
X134091282Y-68936650D01*
X133879293Y-68848842D01*
X133657644Y-68789452D01*
X133619621Y-68784446D01*
X133430147Y-68759500D01*
X133430140Y-68759500D01*
X133200672Y-68759500D01*
X133200664Y-68759500D01*
X132984121Y-68788009D01*
X132973168Y-68789452D01*
X132879482Y-68814554D01*
X132751518Y-68848842D01*
X132539529Y-68936650D01*
X132539515Y-68936657D01*
X132340788Y-69051392D01*
X132158744Y-69191081D01*
X131996487Y-69353338D01*
X131856798Y-69535382D01*
X131742063Y-69734109D01*
X131742056Y-69734123D01*
X131654248Y-69946112D01*
X131594859Y-70167759D01*
X131594857Y-70167770D01*
X131564906Y-70395258D01*
X131564906Y-70624741D01*
X131589852Y-70814215D01*
X131594858Y-70852238D01*
X131594859Y-70852240D01*
X131654248Y-71073887D01*
X131742056Y-71285876D01*
X131742063Y-71285890D01*
X131856798Y-71484617D01*
X131996487Y-71666661D01*
X131996495Y-71666670D01*
X132158736Y-71828911D01*
X132158744Y-71828918D01*
X132340788Y-71968607D01*
X132340791Y-71968608D01*
X132340794Y-71968611D01*
X132368795Y-71984777D01*
X132417010Y-72035341D01*
X132430234Y-72103948D01*
X132404267Y-72168813D01*
X132347354Y-72209342D01*
X132343346Y-72210654D01*
X132185762Y-72259263D01*
X131942636Y-72376346D01*
X131719664Y-72528365D01*
X131521848Y-72711910D01*
X131353591Y-72922898D01*
X131218664Y-73156599D01*
X131218662Y-73156603D01*
X131120072Y-73407804D01*
X131120070Y-73407811D01*
X131060022Y-73670898D01*
X131039857Y-73939995D01*
X131039857Y-73940004D01*
X131060022Y-74209101D01*
X131120070Y-74472188D01*
X131120072Y-74472195D01*
X131202249Y-74681578D01*
X131218663Y-74723398D01*
X131353591Y-74957102D01*
X131396880Y-75011384D01*
X131493616Y-75132687D01*
X131520024Y-75197374D01*
X131507268Y-75266069D01*
X131493616Y-75287313D01*
X131353591Y-75462898D01*
X131218664Y-75696599D01*
X131218662Y-75696603D01*
X131120072Y-75947804D01*
X131120070Y-75947811D01*
X131060022Y-76210898D01*
X131039857Y-76479995D01*
X131039857Y-76480004D01*
X131060022Y-76749101D01*
X131120070Y-77012188D01*
X131120072Y-77012195D01*
X131218662Y-77263396D01*
X131218664Y-77263400D01*
X131230022Y-77283072D01*
X131353591Y-77497102D01*
X131493616Y-77672687D01*
X131520024Y-77737374D01*
X131507268Y-77806069D01*
X131493616Y-77827313D01*
X131353591Y-78002898D01*
X131218664Y-78236599D01*
X131218662Y-78236603D01*
X131120072Y-78487804D01*
X131120070Y-78487811D01*
X131060022Y-78750898D01*
X131039857Y-79019995D01*
X131039857Y-79020004D01*
X131060022Y-79289101D01*
X131120070Y-79552188D01*
X131120072Y-79552195D01*
X131218663Y-79803398D01*
X131353591Y-80037102D01*
X131493616Y-80212687D01*
X131520024Y-80277374D01*
X131507268Y-80346069D01*
X131493616Y-80367313D01*
X131353591Y-80542898D01*
X131218664Y-80776599D01*
X131218662Y-80776603D01*
X131120072Y-81027804D01*
X131120070Y-81027811D01*
X131060022Y-81290898D01*
X131039857Y-81559995D01*
X131039857Y-81560004D01*
X131060022Y-81829101D01*
X131120070Y-82092188D01*
X131120072Y-82092195D01*
X131218663Y-82343398D01*
X131353591Y-82577102D01*
X131417988Y-82657853D01*
X131493616Y-82752687D01*
X131520024Y-82817374D01*
X131507268Y-82886069D01*
X131493616Y-82907313D01*
X131353591Y-83082898D01*
X131218664Y-83316599D01*
X131218662Y-83316603D01*
X131120072Y-83567804D01*
X131120070Y-83567811D01*
X131060022Y-83830898D01*
X131039857Y-84099995D01*
X131039857Y-84100004D01*
X131060022Y-84369101D01*
X131120070Y-84632188D01*
X131120072Y-84632195D01*
X131179203Y-84782858D01*
X131218663Y-84883398D01*
X131353591Y-85117102D01*
X131370406Y-85138187D01*
X131396815Y-85202874D01*
X131384058Y-85271569D01*
X131336188Y-85322463D01*
X131273459Y-85339500D01*
X128043054Y-85339500D01*
X127930204Y-85357374D01*
X127860103Y-85368477D01*
X127840870Y-85371523D01*
X127646190Y-85434777D01*
X127646187Y-85434778D01*
X127495351Y-85511635D01*
X127463792Y-85527715D01*
X127298192Y-85648028D01*
X127298188Y-85648032D01*
X121623040Y-91323181D01*
X121561717Y-91356666D01*
X121535359Y-91359500D01*
X119410783Y-91359500D01*
X119343744Y-91339815D01*
X119297989Y-91287011D01*
X119288045Y-91217853D01*
X119316493Y-91154969D01*
X119375234Y-91086191D01*
X119375243Y-91086179D01*
X119448779Y-90966179D01*
X119510013Y-90866255D01*
X119608721Y-90627952D01*
X119668936Y-90377142D01*
X119689173Y-90120000D01*
X119668936Y-89862858D01*
X119608721Y-89612048D01*
X119559016Y-89492048D01*
X119510015Y-89373748D01*
X119510013Y-89373745D01*
X119375243Y-89153820D01*
X119375239Y-89153815D01*
X119308741Y-89075956D01*
X119207725Y-88957681D01*
X119192045Y-88944289D01*
X119153853Y-88885785D01*
X119153353Y-88815917D01*
X119190706Y-88756870D01*
X119191950Y-88755791D01*
X119207725Y-88742319D01*
X119375241Y-88546182D01*
X119375244Y-88546178D01*
X119448779Y-88426179D01*
X119510013Y-88326255D01*
X119608721Y-88087952D01*
X119668936Y-87837142D01*
X119689173Y-87580000D01*
X119668936Y-87322858D01*
X119608721Y-87072048D01*
X119559016Y-86952048D01*
X119510015Y-86833748D01*
X119510013Y-86833745D01*
X119375243Y-86613820D01*
X119375239Y-86613815D01*
X119308741Y-86535956D01*
X119207725Y-86417681D01*
X119192045Y-86404289D01*
X119153853Y-86345785D01*
X119153353Y-86275917D01*
X119190706Y-86216870D01*
X119191950Y-86215791D01*
X119207725Y-86202319D01*
X119375241Y-86006182D01*
X119375244Y-86006178D01*
X119448779Y-85886179D01*
X119510013Y-85786255D01*
X119521841Y-85757701D01*
X119608719Y-85547956D01*
X119608721Y-85547952D01*
X119668936Y-85297142D01*
X119689173Y-85040000D01*
X119668936Y-84782858D01*
X119608721Y-84532048D01*
X119559016Y-84412048D01*
X119510015Y-84293748D01*
X119510013Y-84293745D01*
X119375243Y-84073820D01*
X119375239Y-84073815D01*
X119314952Y-84003228D01*
X119207725Y-83877681D01*
X119100496Y-83786099D01*
X119011590Y-83710166D01*
X119011585Y-83710162D01*
X118791664Y-83575394D01*
X118772765Y-83567566D01*
X118732539Y-83540687D01*
X118222825Y-83030973D01*
X118261095Y-83020719D01*
X118388517Y-82947151D01*
X118492557Y-82843111D01*
X118566125Y-82715689D01*
X118576379Y-82677419D01*
X119151859Y-83252900D01*
X119208748Y-83171655D01*
X119307704Y-82959441D01*
X119307708Y-82959432D01*
X119368308Y-82733268D01*
X119368310Y-82733258D01*
X119388718Y-82500001D01*
X119388718Y-82499998D01*
X119368310Y-82266741D01*
X119368308Y-82266731D01*
X119307708Y-82040567D01*
X119307704Y-82040558D01*
X119208749Y-81828348D01*
X119151858Y-81747098D01*
X118576378Y-82322579D01*
X118566125Y-82284311D01*
X118492557Y-82156889D01*
X118388517Y-82052849D01*
X118261095Y-81979281D01*
X118222825Y-81969026D01*
X118798306Y-81393546D01*
X118798305Y-81393545D01*
X118717062Y-81336658D01*
X118717060Y-81336657D01*
X118504847Y-81237701D01*
X118504838Y-81237697D01*
X118278674Y-81177097D01*
X118278664Y-81177095D01*
X118045408Y-81156688D01*
X118045404Y-81156688D01*
X117812147Y-81177095D01*
X117812137Y-81177097D01*
X117585973Y-81237697D01*
X117585964Y-81237701D01*
X117373747Y-81336659D01*
X117292505Y-81393544D01*
X117292504Y-81393545D01*
X117867986Y-81969026D01*
X117829717Y-81979281D01*
X117702295Y-82052849D01*
X117598255Y-82156889D01*
X117524687Y-82284311D01*
X117514432Y-82322579D01*
X116938951Y-81747098D01*
X116938950Y-81747099D01*
X116882065Y-81828341D01*
X116783107Y-82040558D01*
X116783103Y-82040567D01*
X116722503Y-82266731D01*
X116722501Y-82266741D01*
X116702094Y-82499998D01*
X116702094Y-82500001D01*
X116722501Y-82733258D01*
X116722503Y-82733268D01*
X116783103Y-82959432D01*
X116783107Y-82959441D01*
X116882063Y-83171654D01*
X116882064Y-83171656D01*
X116938951Y-83252899D01*
X116938952Y-83252900D01*
X117514432Y-82677419D01*
X117524687Y-82715689D01*
X117598255Y-82843111D01*
X117702295Y-82947151D01*
X117829717Y-83020719D01*
X117867986Y-83030973D01*
X117358271Y-83540687D01*
X117318046Y-83567566D01*
X117299150Y-83575393D01*
X117299144Y-83575396D01*
X117079226Y-83710162D01*
X117079221Y-83710166D01*
X116883087Y-83877681D01*
X116715572Y-84073815D01*
X116715568Y-84073820D01*
X116580798Y-84293745D01*
X116580796Y-84293748D01*
X116482092Y-84532043D01*
X116421875Y-84782863D01*
X116401639Y-85040000D01*
X116421875Y-85297136D01*
X116421875Y-85297139D01*
X116421876Y-85297142D01*
X116482091Y-85547952D01*
X116482092Y-85547956D01*
X116580796Y-85786251D01*
X116580798Y-85786254D01*
X116715568Y-86006179D01*
X116715572Y-86006184D01*
X116883087Y-86202319D01*
X116898767Y-86215711D01*
X116936959Y-86274218D01*
X116937457Y-86344086D01*
X116900103Y-86403132D01*
X116898767Y-86404289D01*
X116883087Y-86417680D01*
X116715572Y-86613815D01*
X116715568Y-86613820D01*
X116580798Y-86833745D01*
X116580796Y-86833748D01*
X116482092Y-87072043D01*
X116421875Y-87322863D01*
X116401639Y-87580000D01*
X116421875Y-87837136D01*
X116421875Y-87837139D01*
X116421876Y-87837142D01*
X116475906Y-88062189D01*
X116482092Y-88087956D01*
X116580796Y-88326251D01*
X116580798Y-88326254D01*
X116715568Y-88546179D01*
X116715572Y-88546184D01*
X116883087Y-88742319D01*
X116898767Y-88755711D01*
X116936959Y-88814218D01*
X116937457Y-88884086D01*
X116900103Y-88943132D01*
X116898767Y-88944289D01*
X116883087Y-88957680D01*
X116715572Y-89153815D01*
X116715568Y-89153820D01*
X116580798Y-89373745D01*
X116580796Y-89373748D01*
X116482092Y-89612043D01*
X116421875Y-89862863D01*
X116401639Y-90120000D01*
X116421875Y-90377136D01*
X116421875Y-90377139D01*
X116421876Y-90377142D01*
X116475906Y-90602189D01*
X116482092Y-90627956D01*
X116580796Y-90866251D01*
X116580798Y-90866254D01*
X116715568Y-91086179D01*
X116715572Y-91086184D01*
X116883087Y-91282319D01*
X116898767Y-91295711D01*
X116936959Y-91354218D01*
X116937457Y-91424086D01*
X116900103Y-91483132D01*
X116898767Y-91484289D01*
X116883087Y-91497680D01*
X116715572Y-91693815D01*
X116715568Y-91693820D01*
X116580798Y-91913745D01*
X116580796Y-91913748D01*
X116482092Y-92152043D01*
X116421875Y-92402863D01*
X116401639Y-92660000D01*
X116421875Y-92917136D01*
X116421875Y-92917139D01*
X116421876Y-92917142D01*
X116466076Y-93101246D01*
X116482092Y-93167956D01*
X116580796Y-93406251D01*
X116580798Y-93406254D01*
X116715568Y-93626179D01*
X116715572Y-93626184D01*
X116883087Y-93822319D01*
X116898767Y-93835711D01*
X116936959Y-93894218D01*
X116937457Y-93964086D01*
X116900103Y-94023132D01*
X116898767Y-94024289D01*
X116883087Y-94037680D01*
X116715572Y-94233815D01*
X116715568Y-94233820D01*
X116580798Y-94453745D01*
X116580796Y-94453748D01*
X116482092Y-94692043D01*
X116421875Y-94942863D01*
X116401639Y-95200000D01*
X116421875Y-95457136D01*
X116421875Y-95457139D01*
X116421876Y-95457142D01*
X116464094Y-95632989D01*
X116482092Y-95707956D01*
X116580796Y-95946251D01*
X116580798Y-95946254D01*
X116715568Y-96166179D01*
X116715572Y-96166184D01*
X116883087Y-96362319D01*
X116898767Y-96375711D01*
X116936959Y-96434218D01*
X116937457Y-96504086D01*
X116900103Y-96563132D01*
X116898767Y-96564289D01*
X116883087Y-96577680D01*
X116715572Y-96773815D01*
X116715568Y-96773820D01*
X116580798Y-96993745D01*
X116580796Y-96993748D01*
X116482092Y-97232043D01*
X116421875Y-97482863D01*
X116401639Y-97740000D01*
X116421875Y-97997136D01*
X116421875Y-97997139D01*
X116421876Y-97997142D01*
X116474647Y-98216945D01*
X116482092Y-98247956D01*
X116580796Y-98486251D01*
X116580798Y-98486254D01*
X116700656Y-98681845D01*
X116718901Y-98749291D01*
X116697785Y-98815893D01*
X116682611Y-98834315D01*
X116577391Y-98939536D01*
X116577390Y-98939537D01*
X116481417Y-99092276D01*
X116421837Y-99262545D01*
X116421836Y-99262550D01*
X116406706Y-99396839D01*
X116406706Y-101163160D01*
X116421836Y-101297449D01*
X116421837Y-101297454D01*
X116481417Y-101467723D01*
X116571382Y-101610901D01*
X116577390Y-101620462D01*
X116704944Y-101748016D01*
X116795286Y-101804782D01*
X116857128Y-101843640D01*
X116857684Y-101843989D01*
X116960598Y-101880000D01*
X117027951Y-101903568D01*
X117027956Y-101903569D01*
X117118452Y-101913765D01*
X117162246Y-101918699D01*
X117162249Y-101918700D01*
X117162252Y-101918700D01*
X118928563Y-101918700D01*
X118928564Y-101918699D01*
X118995710Y-101911134D01*
X119062855Y-101903569D01*
X119062858Y-101903568D01*
X119062861Y-101903568D01*
X119233128Y-101843989D01*
X119385868Y-101748016D01*
X119513422Y-101620462D01*
X119513422Y-101620461D01*
X119517065Y-101616819D01*
X119578388Y-101583334D01*
X119604746Y-101580500D01*
X123630145Y-101580500D01*
X123686437Y-101594014D01*
X123826188Y-101665220D01*
X124020871Y-101728477D01*
X124223054Y-101760500D01*
X124223055Y-101760500D01*
X124427757Y-101760500D01*
X124427758Y-101760500D01*
X124629941Y-101728477D01*
X124824624Y-101665220D01*
X125007017Y-101572287D01*
X125172625Y-101451966D01*
X131027772Y-95596819D01*
X131089095Y-95563334D01*
X131115453Y-95560500D01*
X131273459Y-95560500D01*
X131340498Y-95580185D01*
X131386253Y-95632989D01*
X131396197Y-95702147D01*
X131370406Y-95761813D01*
X131353591Y-95782898D01*
X131218664Y-96016599D01*
X131218662Y-96016603D01*
X131120072Y-96267804D01*
X131120070Y-96267811D01*
X131060022Y-96530898D01*
X131039857Y-96799995D01*
X131039857Y-96800004D01*
X131060022Y-97069101D01*
X131120070Y-97332188D01*
X131120072Y-97332195D01*
X131179203Y-97482858D01*
X131218663Y-97583398D01*
X131353591Y-97817102D01*
X131493616Y-97992687D01*
X131520024Y-98057374D01*
X131507268Y-98126069D01*
X131493616Y-98147312D01*
X131353591Y-98322898D01*
X131218664Y-98556599D01*
X131218662Y-98556603D01*
X131120072Y-98807804D01*
X131120070Y-98807811D01*
X131060022Y-99070898D01*
X131039857Y-99339995D01*
X131039857Y-99340004D01*
X131060022Y-99609101D01*
X131120070Y-99872188D01*
X131120072Y-99872195D01*
X131218663Y-100123398D01*
X131353591Y-100357102D01*
X131470030Y-100503111D01*
X131493616Y-100532687D01*
X131520024Y-100597374D01*
X131507268Y-100666069D01*
X131493616Y-100687312D01*
X131378507Y-100831654D01*
X131353591Y-100862898D01*
X131218664Y-101096599D01*
X131218662Y-101096603D01*
X131120072Y-101347804D01*
X131120069Y-101347813D01*
X131060022Y-101610901D01*
X131060021Y-101610905D01*
X131046019Y-101797759D01*
X131021380Y-101863139D01*
X131010047Y-101876173D01*
X115763040Y-117123181D01*
X115701717Y-117156666D01*
X115675359Y-117159500D01*
X115626216Y-117159500D01*
X115559177Y-117139815D01*
X115529271Y-117112815D01*
X115525222Y-117107738D01*
X115397668Y-116980184D01*
X115244929Y-116884211D01*
X115074660Y-116824631D01*
X115074655Y-116824630D01*
X114940366Y-116809500D01*
X114940360Y-116809500D01*
X114285452Y-116809500D01*
X114218413Y-116789815D01*
X114197771Y-116773181D01*
X113082627Y-115658036D01*
X113082626Y-115658035D01*
X113082625Y-115658034D01*
X112917017Y-115537713D01*
X112825820Y-115491246D01*
X112734625Y-115444780D01*
X112564571Y-115389526D01*
X112539941Y-115381523D01*
X112539937Y-115381522D01*
X112539936Y-115381522D01*
X112425141Y-115363340D01*
X112337758Y-115349500D01*
X112337757Y-115349500D01*
X109606355Y-115349500D01*
X109547337Y-115334555D01*
X109430217Y-115271172D01*
X109430208Y-115271169D01*
X109195022Y-115190429D01*
X108949741Y-115149500D01*
X108701071Y-115149500D01*
X108455789Y-115190429D01*
X108220603Y-115271169D01*
X108220587Y-115271175D01*
X108190642Y-115287381D01*
X108122314Y-115301975D01*
X108056942Y-115277311D01*
X108015282Y-115221219D01*
X108010561Y-115151509D01*
X108043944Y-115090646D01*
X113524923Y-109609666D01*
X113583655Y-109576775D01*
X113791517Y-109526873D01*
X114024265Y-109430466D01*
X114239065Y-109298836D01*
X114430630Y-109135224D01*
X114594242Y-108943659D01*
X114725872Y-108728859D01*
X114725878Y-108728843D01*
X114728083Y-108724518D01*
X114728751Y-108724858D01*
X114752419Y-108689432D01*
X115395406Y-108046445D01*
X115395406Y-108052661D01*
X115422665Y-108154394D01*
X115475326Y-108245606D01*
X115549800Y-108320080D01*
X115641012Y-108372741D01*
X115742745Y-108400000D01*
X115748959Y-108400000D01*
X115069932Y-109079025D01*
X115142919Y-109130132D01*
X115142927Y-109130136D01*
X115349074Y-109226264D01*
X115349088Y-109226269D01*
X115568795Y-109285139D01*
X115568806Y-109285141D01*
X115795404Y-109304966D01*
X115795408Y-109304966D01*
X116022005Y-109285141D01*
X116022016Y-109285139D01*
X116241723Y-109226269D01*
X116241737Y-109226264D01*
X116447884Y-109130136D01*
X116520877Y-109079024D01*
X115841853Y-108400000D01*
X115848067Y-108400000D01*
X115949800Y-108372741D01*
X116041012Y-108320080D01*
X116115486Y-108245606D01*
X116168147Y-108154394D01*
X116195406Y-108052661D01*
X116195406Y-108046447D01*
X116874430Y-108725471D01*
X116925542Y-108652478D01*
X117021670Y-108446331D01*
X117021675Y-108446317D01*
X117080545Y-108226610D01*
X117080547Y-108226599D01*
X117100372Y-108000002D01*
X117100372Y-107999997D01*
X117080547Y-107773400D01*
X117080545Y-107773389D01*
X117021675Y-107553682D01*
X117021670Y-107553668D01*
X116925542Y-107347521D01*
X116925538Y-107347513D01*
X116874431Y-107274526D01*
X116195406Y-107953551D01*
X116195406Y-107947339D01*
X116168147Y-107845606D01*
X116115486Y-107754394D01*
X116041012Y-107679920D01*
X115949800Y-107627259D01*
X115848067Y-107600000D01*
X115841851Y-107600000D01*
X116520878Y-106920974D01*
X116447884Y-106869863D01*
X116241737Y-106773735D01*
X116241723Y-106773730D01*
X116022016Y-106714860D01*
X116022005Y-106714858D01*
X115795408Y-106695034D01*
X115795404Y-106695034D01*
X115568806Y-106714858D01*
X115568795Y-106714860D01*
X115349088Y-106773730D01*
X115349079Y-106773734D01*
X115142922Y-106869866D01*
X115142918Y-106869868D01*
X115069932Y-106920973D01*
X115069932Y-106920974D01*
X115748959Y-107600000D01*
X115742745Y-107600000D01*
X115641012Y-107627259D01*
X115549800Y-107679920D01*
X115475326Y-107754394D01*
X115422665Y-107845606D01*
X115395406Y-107947339D01*
X115395406Y-107953553D01*
X114752420Y-107310567D01*
X114728752Y-107275145D01*
X114728086Y-107275485D01*
X114725872Y-107271141D01*
X114614179Y-107088874D01*
X114595906Y-107024084D01*
X114595906Y-82840045D01*
X114615591Y-82773006D01*
X114632220Y-82752369D01*
X119385556Y-77999032D01*
X119385563Y-77999027D01*
X119392623Y-77991967D01*
X119392625Y-77991966D01*
X119537372Y-77847219D01*
X119537374Y-77847215D01*
X119537377Y-77847213D01*
X119657690Y-77681614D01*
X119657689Y-77681614D01*
X119657693Y-77681610D01*
X119695013Y-77608365D01*
X119750627Y-77499218D01*
X119813883Y-77304534D01*
X119845906Y-77102351D01*
X119845906Y-76897648D01*
X119845906Y-74719854D01*
X119864913Y-74653881D01*
X119866910Y-74650704D01*
X119946195Y-74524522D01*
X120005774Y-74354255D01*
X120007025Y-74343158D01*
X120020905Y-74219960D01*
X120020906Y-74219956D01*
X120020906Y-72780043D01*
X120020905Y-72780039D01*
X120005775Y-72645750D01*
X120005774Y-72645745D01*
X119946194Y-72475476D01*
X119883906Y-72376346D01*
X119850222Y-72322738D01*
X119722668Y-72195184D01*
X119690052Y-72174690D01*
X119569929Y-72099211D01*
X119399660Y-72039631D01*
X119399655Y-72039630D01*
X119265366Y-72024500D01*
X119265360Y-72024500D01*
X117825452Y-72024500D01*
X117825445Y-72024500D01*
X117691152Y-72039631D01*
X117691151Y-72039631D01*
X117650546Y-72053839D01*
X117580767Y-72057400D01*
X117520140Y-72022670D01*
X117499108Y-71993092D01*
X117486637Y-71968617D01*
X117486630Y-71968607D01*
X117384820Y-71828478D01*
X117262334Y-71705992D01*
X113216928Y-67660586D01*
X113076788Y-67558768D01*
X112922445Y-67480127D01*
X112757701Y-67426598D01*
X112757699Y-67426597D01*
X112757698Y-67426597D01*
X112626271Y-67405781D01*
X112586611Y-67399500D01*
X107632016Y-67399500D01*
X107458795Y-67399500D01*
X107373250Y-67413049D01*
X107287704Y-67426598D01*
X107122955Y-67480128D01*
X106968617Y-67558768D01*
X106888662Y-67616859D01*
X106828478Y-67660586D01*
X106828476Y-67660588D01*
X106828475Y-67660588D01*
X103205994Y-71283069D01*
X103205994Y-71283070D01*
X103205992Y-71283072D01*
X103162265Y-71343256D01*
X103104174Y-71423211D01*
X103025534Y-71577552D01*
X103025533Y-71577554D01*
X103025533Y-71577555D01*
X103003897Y-71644143D01*
X102972003Y-71742302D01*
X102944906Y-71913389D01*
X101045906Y-71913389D01*
X101045906Y-60624500D01*
X101065591Y-60557461D01*
X101118395Y-60511706D01*
X101169906Y-60500500D01*
X135376000Y-60500500D01*
X135443039Y-60520185D01*
G37*
%TD.AperFunction*%
%TD*%
M02*
